<?xml version="1.0" encoding="utf-8"?>
<!-- Generator: Adobe Illustrator 26.2.1, SVG Export Plug-In . SVG Version: 6.00 Build 0)  -->
<svg version="1.1" id="Layer_1" xmlns="http://www.w3.org/2000/svg" xmlns:xlink="http://www.w3.org/1999/xlink" x="0px" y="0px"
	 viewBox="0 0 5081.6 1409.6" style="enable-background:new 0 0 5081.6 1409.6;" xml:space="preserve">
<style type="text/css">
	.st0{fill:#F89F1D;}
	.st1{fill:#0D124E;}
	.st2{fill:#F3C70E;}
	.st3{fill:#FFC83E;}
	.st4{opacity:0.7;}
	.st5{fill:#FFFFFF;}
	.st6{opacity:0.3;}
	.st7{fill:#B17E4F;}
	.st8{opacity:0.5;}
	.st9{fill:#FCDAA1;}
	.st10{opacity:0.6;}
	.st11{fill:#F9D6B6;}
	.st12{fill:#B199C5;}
	.st13{fill:#F1C411;}
	.st14{fill:#F2C010;}
	.st15{fill:#F2BD0F;}
	.st16{fill:#F3B90E;}
	.st17{fill:#F3B40D;}
	.st18{fill:#F4B00B;}
	.st19{fill:#F5AC0A;}
	.st20{fill:#F6A609;}
	.st21{fill:#F6A208;}
	.st22{fill:#F79D07;}
	.st23{fill:#F89806;}
	.st24{fill:#F99505;}
	.st25{fill:#F99204;}
	.st26{fill:#FA8E03;}
	.st27{fill:#FA8C03;}
	.st28{fill:#FB8A02;}
	.st29{fill:#FC8601;}
</style>
<g>
	<g>
		<g>
			<g>
				<g>
					<g>
						<g>
							<path class="st0" d="M609.6,1193v65.6c0,62.4-212.5,65.6-255.1,65.6s-255.1-3.2-255.1-65.6V1193H609.6z"/>
							<g>
								<path class="st1" d="M354.5,1332.6c-24.1,0-86.6-0.9-144.7-9.5c-79.9-11.7-118.7-32.8-118.7-64.4V1193
									c0-4.6,3.7-8.3,8.3-8.3h510.2c4.6,0,8.3,3.7,8.3,8.3v65.6c0,31.6-38.8,52.7-118.7,64.4
									C441,1331.6,378.6,1332.6,354.5,1332.6z M107.7,1201.4v57.3c0,39.4,127.9,57.3,246.8,57.3c118.9,0,246.8-17.9,246.8-57.3
									v-57.3H107.7z"/>
							</g>
						</g>
						<g>
							<ellipse class="st0" cx="354.5" cy="1193" rx="255.1" ry="69.9"/>
							<g>
								<path class="st1" d="M354.5,1271.3c-24.2,0-86.6-1-144.8-10.1C130.9,1248.8,91,1225.9,91,1193c0-32.9,39.9-55.8,118.6-68.1
									c58.2-9.1,120.7-10.1,144.8-10.1c24.2,0,86.6,1,144.8,10.1c78.7,12.3,118.6,35.3,118.6,68.1c0,32.9-39.9,55.8-118.6,68.1
									C441.1,1270.3,378.6,1271.3,354.5,1271.3z M354.5,1131.4c-122.8,0-246.8,19.1-246.8,61.6c0,42.6,123.9,61.6,246.8,61.6
									c122.8,0,246.8-19.1,246.8-61.6C601.2,1150.5,477.3,1131.4,354.5,1131.4z"/>
							</g>
						</g>
						<g>
							<ellipse class="st0" cx="354.5" cy="1193" rx="206.8" ry="42.6"/>
							<g>
								<path class="st1" d="M354.5,1239.7c-102.3,0-210.9-16.4-210.9-46.7c0-30.3,108.7-46.7,210.9-46.7
									c102.3,0,210.9,16.4,210.9,46.7C565.4,1223.4,456.7,1239.7,354.5,1239.7z M354.5,1154.6c-55,0-106.6,4.4-145.4,12.4
									c-42.2,8.7-57.2,19.4-57.2,26c0,6.6,15,17.3,57.2,26c38.8,8,90.4,12.4,145.4,12.4c55,0,106.6-4.4,145.4-12.4
									c42.2-8.7,57.2-19.4,57.2-26c0-6.6-15-17.3-57.2-26C461,1159,409.4,1154.6,354.5,1154.6z"/>
							</g>
						</g>
						<g>
							<polygon class="st0" points="347.7,1214 433.2,1192.4 349.7,1170.8 264.3,1192.4 							"/>
							<g>
								<path class="st1" d="M347.7,1218.2c-0.4,0-0.7,0-1-0.1l-83.4-21.6c-1.8-0.5-3.1-2.1-3.1-4c0-1.9,1.3-3.6,3.1-4l85.5-21.6
									c0.7-0.2,1.4-0.2,2.1,0l83.4,21.6c1.8,0.5,3.1,2.1,3.1,4c0,1.9-1.3,3.6-3.1,4l-85.5,21.6
									C348.4,1218.1,348,1218.2,347.7,1218.2z M281,1192.4l66.7,17.3l68.7-17.4l-66.7-17.3L281,1192.4z"/>
							</g>
						</g>
					</g>
					<g>
						<g>
							<path class="st0" d="M609.6,1133.8v65.6c0,62.4-212.5,65.6-255.1,65.6s-255.1-3.2-255.1-65.6v-65.6H609.6z"/>
							<g>
								<path class="st1" d="M354.5,1273.3c-24.1,0-86.6-0.9-144.7-9.5C129.9,1252.1,91,1231,91,1199.4v-65.6c0-4.6,3.7-8.3,8.3-8.3
									h510.2c4.6,0,8.3,3.7,8.3,8.3v65.6c0,31.6-38.8,52.7-118.7,64.4C441,1272.4,378.6,1273.3,354.5,1273.3z M107.7,1142.1v57.3
									c0,39.4,127.9,57.3,246.8,57.3c118.9,0,246.8-17.9,246.8-57.3v-57.3H107.7z"/>
							</g>
						</g>
						<g>
							<ellipse class="st0" cx="354.5" cy="1133.8" rx="255.1" ry="69.9"/>
							<g>
								<path class="st1" d="M354.5,1212c-24.2,0-86.6-1-144.8-10.1c-78.7-12.3-118.6-35.3-118.6-68.1c0-32.9,39.9-55.8,118.6-68.1
									c58.2-9.1,120.7-10.1,144.8-10.1c24.2,0,86.6,1,144.8,10.1c78.7,12.3,118.6,35.3,118.6,68.1c0,32.9-39.9,55.8-118.6,68.1
									C441.1,1211,378.6,1212,354.5,1212z M354.5,1072.2c-122.8,0-246.8,19.1-246.8,61.6c0,42.6,123.9,61.6,246.8,61.6
									c122.8,0,246.8-19.1,246.8-61.6C601.2,1091.2,477.3,1072.2,354.5,1072.2z"/>
							</g>
						</g>
						<g>
							<ellipse class="st0" cx="354.5" cy="1133.8" rx="206.8" ry="42.6"/>
							<g>
								<path class="st1" d="M354.5,1180.5c-102.3,0-210.9-16.4-210.9-46.7c0-30.3,108.7-46.7,210.9-46.7
									c102.3,0,210.9,16.4,210.9,46.7C565.4,1164.1,456.7,1180.5,354.5,1180.5z M354.5,1095.4c-55,0-106.6,4.4-145.4,12.4
									c-42.2,8.7-57.2,19.4-57.2,26s15,17.3,57.2,26c38.8,8,90.4,12.4,145.4,12.4s106.6-4.4,145.4-12.4
									c42.2-8.7,57.2-19.4,57.2-26s-15-17.3-57.2-26C461,1099.8,409.4,1095.4,354.5,1095.4z"/>
							</g>
						</g>
						<g>
							<polygon class="st0" points="347.7,1154.7 433.2,1133.1 349.7,1111.5 264.3,1133.1 							"/>
							<g>
								<path class="st1" d="M347.7,1158.9c-0.4,0-0.7,0-1-0.1l-83.4-21.6c-1.8-0.5-3.1-2.1-3.1-4c0-1.9,1.3-3.6,3.1-4l85.5-21.6
									c0.7-0.2,1.4-0.2,2.1,0l83.4,21.6c1.8,0.5,3.1,2.1,3.1,4c0,1.9-1.3,3.6-3.1,4l-85.5,21.6
									C348.4,1158.9,348,1158.9,347.7,1158.9z M281,1133.2l66.7,17.3l68.7-17.4l-66.7-17.3L281,1133.2z"/>
							</g>
						</g>
					</g>
					<g>
						<g>
							<path class="st0" d="M584.7,1071.6v65.6c0,62.4-212.5,65.6-255.1,65.6s-255.1-3.2-255.1-65.6v-65.6H584.7z"/>
							<g>
								<path class="st1" d="M329.6,1211.2c-24.1,0-86.6-0.9-144.7-9.5c-79.9-11.7-118.7-32.8-118.7-64.4v-65.6
									c0-4.6,3.7-8.3,8.3-8.3h510.2c4.6,0,8.3,3.7,8.3,8.3v65.6c0,31.6-38.8,52.7-118.7,64.4
									C416.2,1210.2,353.7,1211.2,329.6,1211.2z M82.8,1080v57.3c0,39.4,127.9,57.3,246.8,57.3c118.9,0,246.8-17.9,246.8-57.3
									V1080H82.8z"/>
							</g>
						</g>
						<g>
							<ellipse class="st0" cx="329.6" cy="1071.6" rx="255.1" ry="69.9"/>
							<g>
								<path class="st1" d="M329.6,1149.9c-24.2,0-86.6-1-144.8-10.1c-78.7-12.3-118.6-35.3-118.6-68.1s39.9-55.8,118.6-68.1
									c58.2-9.1,120.7-10.1,144.8-10.1c24.2,0,86.6,1,144.8,10.1c78.7,12.3,118.6,35.3,118.6,68.1s-39.9,55.8-118.6,68.1
									C416.2,1148.9,353.7,1149.9,329.6,1149.9z M329.6,1010c-122.8,0-246.8,19.1-246.8,61.6s123.9,61.6,246.8,61.6
									c122.8,0,246.8-19.1,246.8-61.6S452.4,1010,329.6,1010z"/>
							</g>
						</g>
						<g>
							<ellipse class="st0" cx="329.6" cy="1071.6" rx="206.8" ry="42.6"/>
							<g>
								<path class="st1" d="M329.6,1118.4c-102.3,0-210.9-16.4-210.9-46.7c0-30.3,108.7-46.7,210.9-46.7
									c102.3,0,210.9,16.4,210.9,46.7C540.5,1102,431.8,1118.4,329.6,1118.4z M329.6,1033.2c-55,0-106.6,4.4-145.4,12.4
									c-42.2,8.7-57.2,19.4-57.2,26s15,17.3,57.2,26c38.8,8,90.4,12.4,145.4,12.4c55,0,106.6-4.4,145.4-12.4
									c42.2-8.7,57.2-19.4,57.2-26s-15-17.3-57.2-26C436.2,1037.6,384.5,1033.2,329.6,1033.2z"/>
							</g>
						</g>
						<g>
							<polygon class="st0" points="322.8,1092.6 408.3,1071 324.9,1049.4 239.4,1071 							"/>
							<g>
								<path class="st1" d="M322.8,1096.8c-0.4,0-0.7,0-1-0.1l-83.4-21.6c-1.8-0.5-3.1-2.1-3.1-4c0-1.9,1.3-3.6,3.1-4l85.5-21.6
									c0.7-0.2,1.4-0.2,2.1,0l83.4,21.6c1.8,0.5,3.1,2.1,3.1,4c0,1.9-1.3,3.6-3.1,4l-85.5,21.6
									C323.5,1096.7,323.1,1096.8,322.8,1096.8z M256.1,1071l66.7,17.3l68.7-17.4l-66.7-17.3L256.1,1071z"/>
							</g>
						</g>
					</g>
				</g>
				<g>
					<path class="st2" d="M518.6,993.9v65.6c0,62.4-212.5,65.6-255.1,65.6S8.4,1122,8.4,1059.5v-65.6H518.6z"/>
					<g>
						<path class="st1" d="M263.5,1133.4c-24.1,0-86.6-0.9-144.7-9.5C38.9,1112.2,0,1091.1,0,1059.5v-65.6c0-4.6,3.7-8.3,8.3-8.3
							h510.2c4.6,0,8.3,3.7,8.3,8.3v65.6c0,31.6-38.8,52.7-118.7,64.4C350,1132.5,287.6,1133.4,263.5,1133.4z M16.7,1002.2v57.3
							c0,39.4,127.9,57.3,246.8,57.3c118.9,0,246.8-17.9,246.8-57.3v-57.3H16.7z"/>
					</g>
				</g>
				<g>
					<path class="st0" d="M186.8,1094.7c42.6,0,255.1-3.2,255.1-65.6v-35.2h76.7v65.6c0,62.4-212.5,65.6-255.1,65.6
						c-37,0-202.5-2.4-245.1-44.1C82.4,1093.6,162.4,1094.7,186.8,1094.7z"/>
				</g>
				<g>
					<g>
						<path class="st1" d="M263.5,1133.5c-24.1,0-86.6-0.9-144.7-9.5C38.8,1112.3,0,1091.2,0,1059.5v-65.6c0-4.6,3.7-8.4,8.4-8.4
							h510.2c4.6,0,8.4,3.7,8.4,8.4v65.6c0,31.6-38.8,52.7-118.7,64.5C350.1,1132.6,287.6,1133.5,263.5,1133.5z M16.7,1002.3v57.2
							c0,39.3,127.9,57.2,246.7,57.2c118.8,0,246.7-17.9,246.7-57.2v-57.2H16.7z"/>
					</g>
				</g>
				<g>
					<ellipse class="st2" cx="263.5" cy="993.9" rx="255.1" ry="69.9"/>
					<g>
						<path class="st1" d="M263.5,1072.2c-24.2,0-86.6-1-144.8-10.1C39.9,1049.7,0,1026.8,0,993.9s39.9-55.8,118.6-68.1
							c58.2-9.1,120.7-10.1,144.8-10.1c24.2,0,86.6,1,144.8,10.1c78.7,12.3,118.6,35.3,118.6,68.1s-39.9,55.8-118.6,68.1
							C350.1,1071.2,287.6,1072.2,263.5,1072.2z M263.5,932.3c-122.8,0-246.8,19.1-246.8,61.6s123.9,61.6,246.8,61.6
							c122.8,0,246.8-19.1,246.8-61.6S386.3,932.3,263.5,932.3z"/>
					</g>
				</g>
				<g>
					<ellipse class="st3" cx="263.5" cy="993.9" rx="206.8" ry="42.6"/>
					<g>
						<path class="st1" d="M263.5,1040.6c-102.3,0-210.9-16.4-210.9-46.7c0-30.3,108.7-46.7,210.9-46.7
							c102.3,0,210.9,16.4,210.9,46.7C474.4,1024.3,365.7,1040.6,263.5,1040.6z M263.5,955.5c-55,0-106.6,4.4-145.4,12.4
							c-42.2,8.7-57.2,19.4-57.2,26c0,6.6,15,17.3,57.2,26c38.8,8,90.4,12.4,145.4,12.4c55,0,106.6-4.4,145.4-12.4
							c42.2-8.7,57.2-19.4,57.2-26c0-6.6-15-17.3-57.2-26C370,959.9,318.4,955.5,263.5,955.5z"/>
					</g>
				</g>
				<g>
					<polygon class="st3" points="256.7,1014.9 342.2,993.3 258.7,971.6 173.3,993.3 					"/>
					<g>
						<path class="st1" d="M256.7,1019c-0.4,0-0.7,0-1-0.1l-83.4-21.6c-1.8-0.5-3.1-2.1-3.1-4c0-1.9,1.3-3.6,3.1-4l85.5-21.6
							c0.7-0.2,1.4-0.2,2.1,0l83.4,21.6c1.8,0.5,3.1,2.1,3.1,4c0,1.9-1.3,3.6-3.1,4l-85.5,21.6C257.4,1019,257,1019,256.7,1019z
							 M190,993.3l66.7,17.3l68.7-17.4l-66.7-17.3L190,993.3z"/>
					</g>
				</g>
				<g>
					<path class="st2" d="M549.9,921.4V987c0,62.4-212.5,65.6-255.1,65.6c-42.6,0-255.1-3.2-255.1-65.6v-65.6H549.9z"/>
					<g>
						<path class="st1" d="M294.8,1061c-24.1,0-86.6-0.9-144.7-9.5c-79.9-11.7-118.7-32.8-118.7-64.5v-65.6c0-4.6,3.7-8.4,8.4-8.4
							h510.2c4.6,0,8.4,3.7,8.4,8.4V987c0,31.6-38.8,52.7-118.7,64.5C381.4,1060,318.9,1061,294.8,1061z M48,929.8V987
							c0,39.3,127.9,57.2,246.7,57.2s246.7-17.9,246.7-57.2v-57.2H48z"/>
					</g>
				</g>
				<g class="st4">
					<path class="st5" d="M60.6,921.4V987c0,58.4,185.6,64.9,244.7,65.5c-4.1,0-7.7,0.1-10.5,0.1c-42.6,0-255.1-3.2-255.1-65.6
						v-65.6H60.6z"/>
				</g>
				<g>
					<path class="st0" d="M273.1,1037.2c132.9-8.8,213.3-83.1,242.5-115.8h34.3V987c0,62.4-212.5,65.6-255.1,65.6
						c-37.5,0-206.9-2.5-246.7-45.7C108.3,1036.4,240.5,1039.4,273.1,1037.2z"/>
				</g>
				<g>
					<g>
						<path class="st1" d="M294.8,1061c-24.1,0-86.6-0.9-144.7-9.5c-79.9-11.7-118.7-32.8-118.7-64.5v-65.6c0-4.6,3.7-8.4,8.4-8.4
							h510.2c4.6,0,8.4,3.7,8.4,8.4V987c0,31.6-38.8,52.7-118.7,64.5C381.4,1060,318.9,1061,294.8,1061z M48,929.8V987
							c0,39.3,127.9,57.2,246.7,57.2s246.7-17.9,246.7-57.2v-57.2H48z"/>
					</g>
				</g>
				<g>
					<ellipse class="st2" cx="294.8" cy="921.4" rx="255.1" ry="69.9"/>
				</g>
				<g class="st4">
					<path class="st5" d="M294.8,851.5c38.4,0,214.9,2.7,249.3,52.1c-55.5-35.2-198.9-37.3-233-37.3c-42.6,0-255.1,3.4-255.1,69.9
						c0,6.5,2.1,12.5,5.8,17.8c-13.7-8.7-22.1-19.4-22.1-32.6C39.7,854.8,252.2,851.5,294.8,851.5z"/>
				</g>
				<g>
					<g>
						<path class="st1" d="M294.8,999.7c-24.2,0-86.6-1-144.8-10.1c-78.7-12.3-118.6-35.3-118.6-68.2c0-32.9,39.9-55.8,118.6-68.2
							c58.2-9.1,120.7-10.1,144.8-10.1c24.2,0,86.6,1,144.8,10.1c78.7,12.3,118.6,35.3,118.6,68.2c0,32.9-39.9,55.8-118.6,68.2
							C381.4,998.7,318.9,999.7,294.8,999.7z M294.8,859.8C172,859.8,48,878.9,48,921.4C48,963.9,172,983,294.8,983
							s246.7-19,246.7-61.6C541.5,878.9,417.6,859.8,294.8,859.8z"/>
					</g>
				</g>
				<g>
					<ellipse class="st0" cx="294.8" cy="921.4" rx="185.1" ry="38.1"/>
				</g>
				<g class="st6">
					<path class="st1" d="M294.8,883.3c85.3,0,157.1,11.9,178.6,28.1c-30.7-12.3-92.9-20.7-164.6-20.7
						c-102.2,0-185.1,17.1-185.1,38.1c0,3.5,2.3,6.8,6.6,10c-13.1-5.2-20.5-11.1-20.5-17.4C109.7,900.4,192.5,883.3,294.8,883.3z"/>
				</g>
			</g>
			<g>
				<g>
					<g>
						<g>
							<path class="st0" d="M931.3,1193v65.6c0,62.4,212.5,65.6,255.1,65.6s255.1-3.2,255.1-65.6V1193H931.3z"/>
							<g>
								<path class="st1" d="M1186.4,1332.6c-24.1,0-86.6-0.9-144.7-9.5c-79.9-11.7-118.7-32.8-118.7-64.4V1193
									c0-4.6,3.7-8.3,8.3-8.3h510.2c4.6,0,8.3,3.7,8.3,8.3v65.6c0,31.6-38.8,52.7-118.7,64.4
									C1273,1331.6,1210.6,1332.6,1186.4,1332.6z M939.6,1201.4v57.3c0,39.4,127.9,57.3,246.8,57.3c118.9,0,246.8-17.9,246.8-57.3
									v-57.3H939.6z"/>
							</g>
						</g>
						<g>
							<ellipse class="st0" cx="1186.4" cy="1193" rx="255.1" ry="69.9"/>
							<g>
								<path class="st1" d="M1186.4,1271.3c-24.2,0-86.6-1-144.8-10.1c-78.7-12.3-118.6-35.3-118.6-68.1
									c0-32.9,39.9-55.8,118.6-68.1c58.2-9.1,120.7-10.1,144.8-10.1c24.2,0,86.6,1,144.8,10.1c78.7,12.3,118.6,35.3,118.6,68.1
									c0,32.9-39.9,55.8-118.6,68.1C1273.1,1270.3,1210.6,1271.3,1186.4,1271.3z M1186.4,1131.4c-122.8,0-246.8,19.1-246.8,61.6
									c0,42.6,123.9,61.6,246.8,61.6c122.8,0,246.8-19.1,246.8-61.6C1433.2,1150.5,1309.3,1131.4,1186.4,1131.4z"/>
							</g>
						</g>
						<g>
							<ellipse class="st0" cx="1186.4" cy="1193" rx="206.8" ry="42.6"/>
							<g>
								<path class="st1" d="M1186.4,1239.7c-102.3,0-210.9-16.4-210.9-46.7c0-30.3,108.7-46.7,210.9-46.7
									c102.3,0,210.9,16.4,210.9,46.7C1397.4,1223.4,1288.7,1239.7,1186.4,1239.7z M1186.4,1154.6c-55,0-106.6,4.4-145.4,12.4
									c-42.2,8.7-57.2,19.4-57.2,26c0,6.6,15,17.3,57.2,26c38.8,8,90.4,12.4,145.4,12.4c55,0,106.6-4.4,145.4-12.4
									c42.2-8.7,57.2-19.4,57.2-26c0-6.6-15-17.3-57.2-26C1293,1159,1241.4,1154.6,1186.4,1154.6z"/>
							</g>
						</g>
						<g>
							<polygon class="st0" points="1193.2,1214 1107.7,1192.4 1191.1,1170.8 1276.6,1192.4 							"/>
							<g>
								<path class="st1" d="M1193.2,1218.2c-0.3,0-0.7,0-1-0.1l-85.5-21.6c-1.8-0.5-3.1-2.1-3.1-4c0-1.9,1.3-3.6,3.1-4l83.4-21.6
									c0.7-0.2,1.4-0.2,2.1,0l85.5,21.6c1.8,0.5,3.1,2.1,3.1,4c0,1.9-1.3,3.6-3.1,4l-83.4,21.6
									C1193.9,1218.1,1193.6,1218.2,1193.2,1218.2z M1124.5,1192.3l68.7,17.4l66.7-17.3l-68.7-17.4L1124.5,1192.3z"/>
							</g>
						</g>
					</g>
					<g>
						<g>
							<path class="st0" d="M931.3,1133.8v65.6c0,62.4,212.5,65.6,255.1,65.6s255.1-3.2,255.1-65.6v-65.6H931.3z"/>
							<g>
								<path class="st1" d="M1186.4,1273.3c-24.1,0-86.6-0.9-144.7-9.5c-79.9-11.7-118.7-32.8-118.7-64.4v-65.6
									c0-4.6,3.7-8.3,8.3-8.3h510.2c4.6,0,8.3,3.7,8.3,8.3v65.6c0,31.6-38.8,52.7-118.7,64.4
									C1273,1272.4,1210.6,1273.3,1186.4,1273.3z M939.6,1142.1v57.3c0,39.4,127.9,57.3,246.8,57.3c118.9,0,246.8-17.9,246.8-57.3
									v-57.3H939.6z"/>
							</g>
						</g>
						<g>
							<ellipse class="st0" cx="1186.4" cy="1133.8" rx="255.1" ry="69.9"/>
							<g>
								<path class="st1" d="M1186.4,1212c-24.2,0-86.6-1-144.8-10.1c-78.7-12.3-118.6-35.3-118.6-68.1c0-32.9,39.9-55.8,118.6-68.1
									c58.2-9.1,120.7-10.1,144.8-10.1c24.2,0,86.6,1,144.8,10.1c78.7,12.3,118.6,35.3,118.6,68.1c0,32.9-39.9,55.8-118.6,68.1
									C1273.1,1211,1210.6,1212,1186.4,1212z M1186.4,1072.2c-122.8,0-246.8,19.1-246.8,61.6c0,42.6,123.9,61.6,246.8,61.6
									c122.8,0,246.8-19.1,246.8-61.6C1433.2,1091.2,1309.3,1072.2,1186.4,1072.2z"/>
							</g>
						</g>
						<g>
							<ellipse class="st0" cx="1186.4" cy="1133.8" rx="206.8" ry="42.6"/>
							<g>
								<path class="st1" d="M1186.4,1180.5c-102.3,0-210.9-16.4-210.9-46.7c0-30.3,108.7-46.7,210.9-46.7
									c102.3,0,210.9,16.4,210.9,46.7C1397.4,1164.1,1288.7,1180.5,1186.4,1180.5z M1186.4,1095.4c-55,0-106.6,4.4-145.4,12.4
									c-42.2,8.7-57.2,19.4-57.2,26s15,17.3,57.2,26c38.8,8,90.4,12.4,145.4,12.4c55,0,106.6-4.4,145.4-12.4
									c42.2-8.7,57.2-19.4,57.2-26s-15-17.3-57.2-26C1293,1099.8,1241.4,1095.4,1186.4,1095.4z"/>
							</g>
						</g>
						<g>
							<polygon class="st0" points="1193.2,1154.7 1107.7,1133.1 1191.1,1111.5 1276.6,1133.1 							"/>
							<g>
								<path class="st1" d="M1193.2,1158.9c-0.3,0-0.7,0-1-0.1l-85.5-21.6c-1.8-0.5-3.1-2.1-3.1-4c0-1.9,1.3-3.6,3.1-4l83.4-21.6
									c0.7-0.2,1.4-0.2,2.1,0l85.5,21.6c1.8,0.5,3.1,2.1,3.1,4c0,1.9-1.3,3.6-3.1,4l-83.4,21.6
									C1193.9,1158.9,1193.6,1158.9,1193.2,1158.9z M1124.5,1133.1l68.7,17.4l66.7-17.3l-68.7-17.4L1124.5,1133.1z"/>
							</g>
						</g>
					</g>
					<g>
						<g>
							<path class="st0" d="M956.2,1071.6v65.6c0,62.4,212.5,65.6,255.1,65.6c42.6,0,255.1-3.2,255.1-65.6v-65.6H956.2z"/>
							<g>
								<path class="st1" d="M1211.3,1211.2c-24.1,0-86.6-0.9-144.7-9.5c-79.9-11.7-118.7-32.8-118.7-64.4v-65.6
									c0-4.6,3.7-8.3,8.3-8.3h510.2c4.6,0,8.3,3.7,8.3,8.3v65.6c0,31.6-38.8,52.7-118.7,64.4
									C1297.9,1210.2,1235.5,1211.2,1211.3,1211.2z M964.5,1080v57.3c0,39.4,127.9,57.3,246.8,57.3c118.9,0,246.8-17.9,246.8-57.3
									V1080H964.5z"/>
							</g>
						</g>
						<g>
							<ellipse class="st0" cx="1211.3" cy="1071.6" rx="255.1" ry="69.9"/>
							<g>
								<path class="st1" d="M1211.3,1149.9c-24.2,0-86.6-1-144.8-10.1c-78.7-12.3-118.6-35.3-118.6-68.1s39.9-55.8,118.6-68.1
									c58.2-9.1,120.7-10.1,144.8-10.1c24.2,0,86.6,1,144.8,10.1c78.7,12.3,118.6,35.3,118.6,68.1s-39.9,55.8-118.6,68.1
									C1297.9,1148.9,1235.5,1149.9,1211.3,1149.9z M1211.3,1010c-122.8,0-246.8,19.1-246.8,61.6s123.9,61.6,246.8,61.6
									s246.8-19.1,246.8-61.6S1334.2,1010,1211.3,1010z"/>
							</g>
						</g>
						<g>
							<ellipse class="st0" cx="1211.3" cy="1071.6" rx="206.8" ry="42.6"/>
							<g>
								<path class="st1" d="M1211.3,1118.4c-102.3,0-210.9-16.4-210.9-46.7c0-30.3,108.7-46.7,210.9-46.7
									c102.3,0,210.9,16.4,210.9,46.7C1422.2,1102,1313.6,1118.4,1211.3,1118.4z M1211.3,1033.2c-55,0-106.6,4.4-145.4,12.4
									c-42.2,8.7-57.2,19.4-57.2,26s15,17.3,57.2,26c38.8,8,90.4,12.4,145.4,12.4c55,0,106.6-4.4,145.4-12.4
									c42.2-8.7,57.2-19.4,57.2-26s-15-17.3-57.2-26C1317.9,1037.6,1266.3,1033.2,1211.3,1033.2z"/>
							</g>
						</g>
						<g>
							<polygon class="st0" points="1218.1,1092.6 1132.6,1071 1216,1049.4 1301.5,1071 							"/>
							<g>
								<path class="st1" d="M1218.1,1096.8c-0.3,0-0.7,0-1-0.1l-85.5-21.6c-1.8-0.5-3.1-2.1-3.1-4c0-1.9,1.3-3.6,3.1-4l83.4-21.6
									c0.7-0.2,1.4-0.2,2.1,0l85.5,21.6c1.8,0.5,3.1,2.1,3.1,4c0,1.9-1.3,3.6-3.1,4l-83.4,21.6
									C1218.8,1096.7,1218.5,1096.8,1218.1,1096.8z M1149.4,1070.9l68.7,17.4l66.7-17.3l-68.7-17.4L1149.4,1070.9z"/>
							</g>
						</g>
					</g>
				</g>
				<g>
					<path class="st2" d="M1022.3,993.9v65.6c0,62.4,212.5,65.6,255.1,65.6s255.1-3.2,255.1-65.6v-65.6H1022.3z"/>
					<g>
						<path class="st1" d="M1277.4,1133.4c-24.1,0-86.6-0.9-144.7-9.5c-79.9-11.7-118.7-32.8-118.7-64.4v-65.6
							c0-4.6,3.7-8.3,8.3-8.3h510.2c4.6,0,8.3,3.7,8.3,8.3v65.6c0,31.6-38.8,52.7-118.7,64.4
							C1364,1132.5,1301.6,1133.4,1277.4,1133.4z M1030.6,1002.2v57.3c0,39.4,127.9,57.3,246.8,57.3c118.9,0,246.8-17.9,246.8-57.3
							v-57.3H1030.6z"/>
					</g>
				</g>
				<g>
					<path class="st0" d="M1354.1,1094.7c-42.6,0-255.1-3.2-255.1-65.6v-35.2h-76.7v65.6c0,62.4,212.5,65.6,255.1,65.6
						c37,0,202.5-2.4,245.1-44.1C1458.5,1093.6,1378.5,1094.7,1354.1,1094.7z"/>
				</g>
				<g>
					<g>
						<path class="st1" d="M1277.4,1133.5c-24.1,0-86.6-0.9-144.7-9.5c-79.9-11.7-118.7-32.8-118.7-64.5v-65.6
							c0-4.6,3.7-8.4,8.4-8.4h510.2c4.6,0,8.4,3.7,8.4,8.4v65.6c0,31.6-38.8,52.7-118.7,64.5
							C1364,1132.6,1301.6,1133.5,1277.4,1133.5z M1030.7,1002.3v57.2c0,39.3,127.9,57.2,246.7,57.2c118.8,0,246.7-17.9,246.7-57.2
							v-57.2H1030.7z"/>
					</g>
				</g>
				<g>
					<ellipse class="st2" cx="1277.4" cy="993.9" rx="255.1" ry="69.9"/>
					<g>
						<path class="st1" d="M1277.4,1072.2c-24.2,0-86.6-1-144.8-10.1c-78.7-12.3-118.6-35.3-118.6-68.1s39.9-55.8,118.6-68.1
							c58.2-9.1,120.7-10.1,144.8-10.1c24.2,0,86.6,1,144.8,10.1c78.7,12.3,118.6,35.3,118.6,68.1s-39.9,55.8-118.6,68.1
							C1364.1,1071.2,1301.6,1072.2,1277.4,1072.2z M1277.4,932.3c-122.8,0-246.8,19.1-246.8,61.6s123.9,61.6,246.8,61.6
							c122.8,0,246.8-19.1,246.8-61.6S1400.3,932.3,1277.4,932.3z"/>
					</g>
				</g>
				<g>
					<ellipse class="st3" cx="1277.4" cy="993.9" rx="206.8" ry="42.6"/>
					<g>
						<path class="st1" d="M1277.4,1040.6c-102.3,0-210.9-16.4-210.9-46.7c0-30.3,108.7-46.7,210.9-46.7
							c102.3,0,210.9,16.4,210.9,46.7C1488.4,1024.3,1379.7,1040.6,1277.4,1040.6z M1277.4,955.5c-55,0-106.6,4.4-145.4,12.4
							c-42.2,8.7-57.2,19.4-57.2,26c0,6.6,15,17.3,57.2,26c38.8,8,90.4,12.4,145.4,12.4c55,0,106.6-4.4,145.4-12.4
							c42.2-8.7,57.2-19.4,57.2-26c0-6.6-15-17.3-57.2-26C1384,959.9,1332.4,955.5,1277.4,955.5z"/>
					</g>
				</g>
				<g>
					<polygon class="st3" points="1284.2,1014.9 1198.7,993.3 1282.1,971.6 1367.6,993.3 					"/>
					<g>
						<path class="st1" d="M1284.2,1019c-0.3,0-0.7,0-1-0.1l-85.5-21.6c-1.8-0.5-3.1-2.1-3.1-4c0-1.9,1.3-3.6,3.1-4l83.4-21.6
							c0.7-0.2,1.4-0.2,2.1,0l85.5,21.6c1.8,0.5,3.1,2.1,3.1,4c0,1.9-1.3,3.6-3.1,4l-83.4,21.6C1284.9,1019,1284.6,1019,1284.2,1019
							z M1215.5,993.2l68.7,17.4l66.7-17.3l-68.7-17.4L1215.5,993.2z"/>
					</g>
				</g>
				<g>
					<path class="st2" d="M991,921.4V987c0,62.4,212.5,65.6,255.1,65.6s255.1-3.2,255.1-65.6v-65.6H991z"/>
					<g>
						<path class="st1" d="M1246.1,1061c-24.1,0-86.6-0.9-144.7-9.5c-79.9-11.7-118.7-32.8-118.7-64.5v-65.6c0-4.6,3.7-8.4,8.4-8.4
							h510.2c4.6,0,8.4,3.7,8.4,8.4V987c0,31.6-38.8,52.7-118.7,64.5C1332.7,1060,1270.3,1061,1246.1,1061z M999.4,929.8V987
							c0,39.3,127.9,57.2,246.7,57.2c118.8,0,246.7-17.9,246.7-57.2v-57.2H999.4z"/>
					</g>
				</g>
				<g class="st4">
					<path class="st5" d="M1480.3,921.4V987c0,58.4-185.6,64.9-244.7,65.5c4.1,0,7.7,0.1,10.5,0.1c42.6,0,255.1-3.2,255.1-65.6
						v-65.6H1480.3z"/>
				</g>
				<g>
					<path class="st0" d="M1267.8,1037.2c-132.9-8.8-213.3-83.1-242.5-115.8H991V987c0,62.4,212.5,65.6,255.1,65.6
						c37.5,0,206.9-2.5,246.7-45.7C1432.6,1036.4,1300.4,1039.4,1267.8,1037.2z"/>
				</g>
				<g>
					<g>
						<path class="st1" d="M1246.1,1061c-24.1,0-86.6-0.9-144.7-9.5c-79.9-11.7-118.7-32.8-118.7-64.5v-65.6c0-4.6,3.7-8.4,8.4-8.4
							h510.2c4.6,0,8.4,3.7,8.4,8.4V987c0,31.6-38.8,52.7-118.7,64.5C1332.7,1060,1270.3,1061,1246.1,1061z M999.4,929.8V987
							c0,39.3,127.9,57.2,246.7,57.2c118.8,0,246.7-17.9,246.7-57.2v-57.2H999.4z"/>
					</g>
				</g>
				<g>
					<ellipse class="st2" cx="1246.1" cy="921.4" rx="255.1" ry="69.9"/>
				</g>
				<g class="st4">
					<path class="st5" d="M1246.1,851.5c-38.4,0-214.9,2.7-249.3,52.1c55.5-35.2,198.9-37.3,233-37.3c42.6,0,255.1,3.4,255.1,69.9
						c0,6.5-2.1,12.5-5.8,17.8c13.7-8.7,22.1-19.4,22.1-32.6C1501.2,854.8,1288.7,851.5,1246.1,851.5z"/>
				</g>
				<g>
					<g>
						<path class="st1" d="M1246.1,999.7c-24.2,0-86.6-1-144.8-10.1c-78.7-12.3-118.6-35.3-118.6-68.2c0-32.9,39.9-55.8,118.6-68.2
							c58.2-9.1,120.7-10.1,144.8-10.1c24.2,0,86.6,1,144.8,10.1c78.7,12.3,118.6,35.3,118.6,68.2c0,32.9-39.9,55.8-118.6,68.2
							C1332.7,998.7,1270.3,999.7,1246.1,999.7z M1246.1,859.8c-122.8,0-246.7,19-246.7,61.6c0,42.5,123.9,61.6,246.7,61.6
							c122.8,0,246.7-19,246.7-61.6C1492.9,878.9,1368.9,859.8,1246.1,859.8z"/>
					</g>
				</g>
				<g>
					<ellipse class="st0" cx="1246.1" cy="921.4" rx="185.1" ry="38.1"/>
				</g>
				<g class="st6">
					<path class="st1" d="M1246.1,883.3c-85.3,0-157.1,11.9-178.6,28.1c30.7-12.3,92.9-20.7,164.6-20.7
						c102.2,0,185.1,17.1,185.1,38.1c0,3.5-2.3,6.8-6.6,10c13.1-5.2,20.5-11.1,20.5-17.4C1431.2,900.4,1348.3,883.3,1246.1,883.3z"
						/>
				</g>
			</g>
			<g>
				<g>
					<g>
						<path class="st7" d="M92.3,823c29.5-83,106.6-155.1,199.9-132.8c55.9,13.4,98.2,53,110.4,109.7c12.1,56.2-4.9,112.8-9.8,168.7
							c-1.9,21.9-5.7,51,15.4,64.6c21.9,14,52.8,9,77.2,10.6c45.3,2.9,72.8,58.3,32.5,89.6c-38.6,30-126.9,9.7-165.5-12.9
							c-49.6-29-67.3-82.7-67.3-137.5c0.1-30.6,4.8-60.9,8-91.2c2.3-21.4,10.5-59.1-3.5-78c-32.2-43.4-74.3,19-84,47.2
							C179.2,931.4,67.6,897.1,92.3,823z"/>
					</g>
					<g class="st8">
						<g>
							<path class="st5" d="M404.9,799.9c-12.2-56.7-54.5-96.3-110.4-109.7c-41-9.8-78.9-1.4-111,18.3
								c-24.3,14.9-45.3,36.2-61.8,60.8c-11.2,16.7-20.3,34.9-27,53.7c-5.5,16.5-4.2,31,1.3,42.9c-0.4-7.3,0.6-15.3,3.4-23.8
								c8.8-24.8,21.9-48.6,38.3-69.2c12.4-0.5,26-7.6,35.8-20.1c5.6-7.1,9.2-15,10.9-22.8c32.9-21.3,72.2-30.8,114.8-20.6
								c51.1,12.2,90.8,46.4,106.6,95.5C405.6,803.2,405.3,801.5,404.9,799.9z"/>
						</g>
					</g>
					<g class="st6">
						<path class="st1" d="M413.2,1073.5c-68.7-29-93.2-82.7-93.1-137.5c0.1-30.6,6.6-60.9,11.1-91.2c3.2-21.4,14.6-59.1-4.8-78
							c-44.5-43.4-102.8,19-116.2,47.2c-21,40.4-80.8,46.3-121.4,30c0.5,58.9,93,80.3,116.8,16.9c9.6-28.2,51.8-90.6,84-47.2
							c14,18.9,5.8,56.5,3.5,78c-3.2,30.3-8,60.6-8,91.2c-0.1,54.8,17.6,108.5,67.3,137.5c38.6,22.6,127,42.9,165.5,12.9
							c12.2-9.5,18.1-21.1,19.3-32.9C490.2,1097.1,441.8,1085.6,413.2,1073.5z"/>
					</g>
					<g>
						<g>
							<path class="st1" d="M461.7,1158c-42.4,0-89.8-14.9-114.3-29.2c-46.6-27.2-72.1-79-72-145.8c0-23.7,2.9-47.4,5.6-70.3
								c0.9-7.3,1.7-14.6,2.5-21.9c0.4-3.6,0.9-7.5,1.5-11.7c2.7-19.8,6.3-46.8-3.1-59.6c-9.2-12.4-17-11.2-19.6-10.8
								c-18.4,2.9-40.5,34.7-47.5,55.4c0,0.1-0.1,0.2-0.1,0.3c-15.7,41.8-57.1,51.9-89.9,40.3C94.6,894,68.8,863,83.1,819.9
								c0-0.1,0-0.1,0.1-0.2c16.1-45.2,44.2-84.4,79.3-110.4c40.1-29.7,85.7-39.5,131.8-28.5c61,14.6,105,58.4,117.6,117
								c8.9,41.4,2.7,82.8-3.3,122.8c-2.4,16.1-4.9,32.7-6.3,48.8l-0.3,3.5c-1.8,19.9-3.8,42.5,11.3,52.1
								c13.9,8.9,33.3,8.8,52.1,8.7c6.8,0,13.9-0.1,20.5,0.4c27.2,1.8,50.8,20,58.6,45.4c7,22.9-0.7,45.8-20.7,61.4
								C507.9,1153.3,485.6,1158,461.7,1158z M264.7,789.3c9.5,0,21.5,3.9,32.5,18.8c14.1,19,9.9,50.6,6.8,73.6
								c-0.5,4-1.1,7.8-1.4,11.1c-0.8,7.4-1.7,14.7-2.5,22.1c-2.7,22.4-5.4,45.5-5.4,68.1c-0.1,42.2,10.7,98.9,62.5,129.1
								c39.6,23.1,122.1,39.1,154.8,13.6c13.6-10.6,18.8-25.4,14.1-40.5c-5.4-17.5-22.4-30.6-41.4-31.9c-5.9-0.4-12.3-0.4-19.1-0.3
								c-20.6,0.1-43.9,0.2-62.6-11.8c-24.9-16-22.1-47.2-20.1-70.1l0.3-3.4c1.4-16.7,4-33.6,6.4-50c5.7-38.3,11.7-77.9,3.5-115.9
								c-11-51.2-49.6-89.5-103.2-102.3c-86.8-20.8-160.5,47.9-188.5,126.5c-10.2,30.8,7.6,52.6,29.8,60.4
								c23.2,8.2,53.5,2.7,65.4-28.7c6.7-19.4,31.6-63.2,62.8-68.1C261,789.4,262.8,789.3,264.7,789.3z"/>
						</g>
					</g>
				</g>
				<g>
					<path class="st7" d="M1085,1066.3c2.1-14.7,3.2-30.1,3.2-46.3c0-180.4-24.6-382.1-302.5-382.1
						c-260.9,0-302.5,201.8-302.5,382.1c0,17.1,1.2,33.3,3.6,48.8C397.5,1106,373,1178.7,373,1178.7l24.6,203.3
						c95.7-64.1,157.6-83.5,157.6-83.5c62.4-1.5,106.7-24.6,106.7-24.6s0-0.1,0-0.1c37.8,12.8,79.7,19.4,123.8,19.4
						c48,0,93.4-7.7,133.7-22.9c0,0,0,0,0,0s43.3,26.7,104.6,28.2c0,0,60.7,19.4,154.8,83.5l24.2-203.3
						C1203,1178.7,1177.8,1102.6,1085,1066.3z"/>
				</g>
				<g>
					<g class="st6">
						<path class="st1" d="M486.7,1015.3c-1.5-9.7-2.4-19.8-3-30.1c-0.4,10.6-0.5,21.1-0.5,31.6
							C484.4,1016.3,485.5,1015.8,486.7,1015.3z"/>
					</g>
					<g class="st6">
						<path class="st1" d="M1085,1012.8c1.1,0.4,2.1,0.9,3.2,1.3c0-10.4-0.2-20.9-0.4-31.5C1087.3,993,1086.3,1003,1085,1012.8z"/>
					</g>
					<g class="st6">
						<path class="st1" d="M1178.8,1328.5c-58.2-89.5-164.8-117.3-167.8-120.1c-40.3,15.2-146.6,51.9-227,49.1
							c-98.7-3.5-178-23.5-215.8-36.3c0,0-92.9,22.7-170.6,107.4l-19.6-161.4c-3.6,7.2-5.1,11.6-5.1,11.6l24.6,203.3
							c95.7-64.1,157.6-83.5,157.6-83.5c62.4-1.5,106.7-24.6,106.7-24.6s0-0.1,0-0.1c37.8,12.8,79.7,19.4,123.8,19.4
							c48,0,93.4-7.7,133.7-22.9c0,0,0,0,0,0s43.3,26.7,104.6,28.2c0,0,60.7,19.4,154.8,83.5l24.2-203.3c0,0-1.5-4.4-5-11.6
							L1178.8,1328.5z"/>
					</g>
				</g>
				<g>
					<g>
						<path class="st1" d="M1178.8,1391.6c-1.9,0-3.8-0.6-5.4-1.7c-84.4-57.5-142.1-78.7-151.1-81.9c-52.2-1.6-91.3-20.5-103.8-27.2
							c-40.3,14.6-84.9,21.9-132.8,21.9c-43.9,0-85.2-6.3-123-18.6c-12.1,5.6-52.2,22.3-105.8,23.9c-9,3.1-67.9,24.3-153.9,81.9
							c-2.8,1.9-6.3,2.1-9.4,0.8c-3-1.4-5.1-4.3-5.5-7.6l-24.6-203.3c-0.2-1.4,0-2.9,0.4-4.2c1-3.1,25.6-73.6,112.4-112.7
							c-1.8-13.9-2.6-28.3-2.6-42.9c0-116.5,17.4-200.2,54.7-263.6c50.1-85,136.7-128.2,257.4-128.2c129.2,0,215.5,42,263.9,128.3
							c42.5,75.9,48.2,175.8,48.2,263.4c0,13.5-0.8,27-2.3,40.2c90.2,38.4,115.6,112.3,116.6,115.5c0.4,1.3,0.6,2.8,0.4,4.2
							l-24.2,203.3c-0.4,3.3-2.5,6.2-5.6,7.6C1181.5,1391.3,1180.1,1391.6,1178.8,1391.6z M382.8,1179.9l22.5,185.5
							c88.3-57.3,144.5-75.3,147-76.1c0.9-0.3,1.7-0.4,2.6-0.4c55.4-1.4,96.5-20.6,101.9-23.3c2.4-1.5,5.4-1.9,8.1-0.9
							c36.8,12.5,77.4,18.9,120.7,18.9c47.2,0,91.1-7.5,130.3-22.3c3-1.1,6.4-0.7,9,1.2c5.3,3,45.2,25.1,99.2,26.4
							c0.9,0,1.8,0.2,2.7,0.5c2.4,0.8,57.6,18.7,144.1,75.9l22.1-185.3c-4.6-11.5-32.4-73.6-111.7-104.6c-4.2-1.6-6.7-5.9-6-10.3
							c2.1-14.6,3.1-29.7,3.1-44.9c0-85.2-5.4-182-45.8-254c-44.7-79.7-125.5-118.5-247.1-118.5c-115,0-193.7,38.8-240.8,118.7
							c-35,59.5-52.1,142.5-52.1,253.8c0,16.3,1.2,32.2,3.4,47.4c0.7,4.4-1.7,8.6-5.8,10.3C414.4,1109.4,387.4,1168.6,382.8,1179.9z
							"/>
					</g>
				</g>
				<g>
					<path class="st9" d="M1011,1034.8c0,141.8-101.6,214.8-227,214.8s-227-73-227-214.8S658.6,778,784,778S1011,893,1011,1034.8z"
						/>
				</g>
				<g>
					<path class="st7" d="M963.5,902.4c21.1,96.2,86.2,169.3,147.2,169c61.1-0.3,101.2-28.9,80.1-125s-112.3-228.3-173.3-228
						C956.4,718.7,942.4,806.3,963.5,902.4z"/>
				</g>
				<g class="st6">
					<path class="st1" d="M1171.6,1030.6c-61.1,0.3-100.4-73.8-121.5-169.9c-12.2-55.3-38.3-106.9-25-141.6
						c-2.6-0.4-5.1-0.7-7.6-0.7c-61.1,0.3-75.1,87.9-54,184s86.2,169.3,147.2,169c37.6-0.2,67.3-11.1,79.6-42
						C1184.3,1030.2,1178.1,1030.5,1171.6,1030.6z"/>
				</g>
				<g>
					<path class="st7" d="M768.6,887.3c0,104.4-93.1,184.1-209.4,184.1s-204.5-30.8-204.5-135.2S472.8,688.1,589,688.1
						S768.6,783,768.6,887.3z"/>
				</g>
				<g class="st8">
					<g>
						<path class="st5" d="M366.6,950.6c0-104.4,118.1-248.2,234.4-248.2c54,0,96.6,20.5,126.7,52.9c-30.3-40.6-77-67.3-138.7-67.3
							c-116.3,0-234.4,143.8-234.4,248.2c0,37.9,11.7,66.1,32.1,86.6C373.8,1004.1,366.6,980.3,366.6,950.6z"/>
					</g>
				</g>
				<g class="st6">
					<path class="st1" d="M559.2,1019.9c-105.7,0-188.3-25.5-202.4-108.6c-1.4,8.5-2.2,16.8-2.2,24.9
						c0,104.4,88.3,135.2,204.5,135.2s209.4-79.7,209.4-184.1c0-9.6-0.5-19.1-1.6-28.5C754.4,951.7,666.7,1019.9,559.2,1019.9z"/>
				</g>
				<g>
					<path class="st1" d="M1090.2,1021.1c-7.4-5.8-14.3-11.9-21-18.3c-6.7-6.4-13.2-13.1-19.3-20.4c-6.1-7.2-11.8-15-16.6-23.7
						c-2.3-4.4-4.5-9.1-6-14.1c-1.5-5.1-2.6-10.7-2.2-16.7l0-0.4c0.3-5.3,4.8-9.4,10.2-9.1c5.3,0.3,9.4,4.8,9.1,10.2
						c0,0.4-0.1,0.8-0.1,1.2c-1.1,6.2,0.8,14.3,3.9,21.9c3.2,7.7,7.6,15.3,12.6,22.6c5,7.3,10.5,14.3,16.3,21.2
						c5.8,6.8,12,13.5,18.4,19.7l0.1,0.1c1.6,1.6,1.6,4.1,0.1,5.7C1094.1,1022.3,1091.8,1022.4,1090.2,1021.1z"/>
				</g>
				<g>
					<path class="st1" d="M430.7,869.6c9.4-0.5,18.6-0.5,27.9-0.2c9.3,0.4,18.6,1.1,28,2.5c9.3,1.4,18.7,3.4,28.1,6.8
						c4.7,1.7,9.3,3.8,13.9,6.6c4.5,2.8,9,6.3,12.7,11l0.2,0.3c3.3,4.2,2.6,10.3-1.6,13.6c-4.2,3.3-10.3,2.6-13.6-1.6
						c-0.2-0.3-0.5-0.6-0.7-1c-3.3-5.4-10-10.2-17.4-13.8c-7.5-3.6-15.8-6.4-24.4-8.6c-8.5-2.2-17.4-3.8-26.2-5.1
						c-8.9-1.2-17.9-2.1-26.8-2.5l-0.1,0c-2.2-0.1-3.9-2-3.8-4.2C427,871.4,428.7,869.7,430.7,869.6z"/>
				</g>
				<g>
					<g>
						<path class="st1" d="M1110.4,1081.1c-32.4,0-66.3-18.3-95.5-51.6c-28.7-32.7-50.3-77.1-60.8-125l0,0
							c-16.6-75.6-11.1-140,14.7-172.2c12.2-15.3,29.1-23.4,48.7-23.5c0.1,0,0.2,0,0.3,0c42.8,0,86.8,51.2,109.2,81.8
							c34.8,47.4,62.9,106.3,73.3,153.8c10.8,48.9,7,83.9-11.5,107c-15.8,19.8-41.3,29.5-77.9,29.7
							C1110.7,1081.1,1110.5,1081.1,1110.4,1081.1z M972.9,900.3c19.9,90.6,80.2,161.5,137.4,161.5c0.1,0,0.2,0,0.3,0
							c30.4-0.1,51-7.5,63-22.5c14.4-18,17-48.6,7.7-90.9c-21.8-99-112-220.4-163.7-220.4c-0.1,0-0.1,0-0.2,0
							c-14,0.1-25,5.4-33.7,16.3C961.9,771.6,957.8,831.4,972.9,900.3L972.9,900.3z"/>
					</g>
				</g>
				<g>
					<g>
						<path class="st1" d="M559.2,1081.1c-66.1,0-115.4-9.7-150.6-29.7c-42.2-23.9-63.5-62.6-63.5-115.1
							c0-53.3,28.4-116.7,76.1-169.7c50.4-56,111.6-88.1,168-88.1c57.6,0,106.2,22.1,140.8,64c31.2,37.8,48.4,89.3,48.4,144.9
							C778.2,996,682,1081.1,559.2,1081.1z M589,697.7c-50.9,0-106.9,29.8-153.6,81.8c-43.9,48.8-71.1,108.9-71.1,156.8
							c0,45.7,17.6,77.8,53.8,98.4c32.3,18.3,78.4,27.2,141.1,27.2c112,0,199.7-76.6,199.7-174.5C758.9,796,705.8,697.7,589,697.7z"
							/>
					</g>
				</g>
				<g>
					
						<ellipse transform="matrix(0.3779 -0.9258 0.9258 0.3779 229.2814 1311.3086)" class="st7" cx="1090.4" cy="485" rx="126" ry="110"/>
				</g>
				<g class="st10">
					<g>
						<path class="st5" d="M1202.5,461.2c-4.2-58.2-46.2-102.4-101.4-102.5c-61.8,0-116.7,55.4-122.6,123.9
							c-0.1,0.8-0.1,1.6-0.2,2.4c0.3,4.2,0.8,8.3,1.5,12.3c10.3-63.5,62.7-113.4,121.3-113.4c51.2,0,91.1,38.1,99.9,90.1
							c0.6-3.5,1-6.9,1.3-10.5C1202.4,462.8,1202.5,462,1202.5,461.2z"/>
					</g>
				</g>
				<g>
					<g>
						<path class="st1" d="M1079.8,618.5C1079.7,618.5,1079.7,618.5,1079.8,618.5c-30.5,0-58.6-12.4-79.2-34.9
							c-23.3-25.5-34.9-61.7-31.6-99.4l0,0c6.3-73.1,65.6-132.7,132.2-132.7c0,0,0,0,0,0c30.4,0,58.6,12.4,79.2,34.9
							c23.3,25.5,34.9,61.7,31.6,99.4C1205.6,559,1146.3,618.5,1079.8,618.5z M988.1,485.8c-2.8,32.4,6.9,63.3,26.6,84.8
							c17,18.5,40,28.7,65,28.7c0,0,0,0,0,0c56.8,0,107.5-51.6,113-115.1c2.8-32.4-6.9-63.3-26.6-84.8c-17-18.5-40-28.7-65-28.7
							c0,0,0,0,0,0C1044.3,370.8,993.6,422.4,988.1,485.8L988.1,485.8z"/>
					</g>
				</g>
				<g>
					
						<ellipse transform="matrix(0.3779 -0.9258 0.9258 0.3779 224.3524 1314.6219)" class="st9" cx="1090.4" cy="490.4" rx="61.1" ry="53.4"/>
				</g>
				<g>
					<g>
						<path class="st1" d="M1085.3,560.1C1085.3,560.1,1085.3,560.1,1085.3,560.1c-16.2,0-31.1-6.6-42.1-18.5
							c-12.3-13.4-18.3-32.3-16.6-52l0,0c3.3-38,34.3-68.9,69.1-68.9c0,0,0,0,0,0c16.2,0,31.1,6.6,42.1,18.5
							c12.3,13.4,18.3,32.3,16.6,52C1151.1,529.2,1120.1,560.1,1085.3,560.1z M1095.6,439.9c-25.1,0-47.4,23-49.9,51.3l0,0
							c-1.2,14.3,3,27.9,11.6,37.3c7.3,7.9,17.2,12.3,27.9,12.3c0,0,0,0,0,0c25.1,0,47.4-23,49.9-51.3c1.2-14.3-3-27.9-11.6-37.3
							C1116.3,444.3,1106.3,439.9,1095.6,439.9C1095.6,439.9,1095.6,439.9,1095.6,439.9z M1036.2,490.3L1036.2,490.3L1036.2,490.3z"
							/>
					</g>
				</g>
				<g>
					
						<ellipse transform="matrix(0.9258 -0.3779 0.3779 0.9258 -151.7234 196.9008)" class="st7" cx="425.8" cy="485" rx="110" ry="126"/>
				</g>
				<g class="st10">
					<g>
						<path class="st5" d="M536.4,497.3c0.7-4,1.2-8.1,1.5-12.3c-0.1-0.8-0.1-1.6-0.2-2.4c-5.9-68.4-60.8-123.9-122.6-123.9
							c-55.2,0-97.2,44.3-101.4,102.5c0.1,0.8,0.1,1.5,0.1,2.3c0.3,3.5,0.8,7,1.3,10.5c8.8-52,48.7-90.1,99.9-90.1
							C473.8,383.9,526.1,433.8,536.4,497.3z"/>
					</g>
				</g>
				<g>
					<g>
						<path class="st1" d="M436.5,618.5c-66.6,0-125.9-59.5-132.2-132.7c-3.3-37.7,8.3-74,31.6-99.4c20.6-22.5,48.8-34.9,79.2-34.9
							c0,0,0,0,0,0c66.6,0,125.9,59.5,132.2,132.7c3.3,37.7-8.3,74-31.6,99.4C495.1,606.1,467,618.5,436.5,618.5
							C436.5,618.5,436.5,618.5,436.5,618.5z M415.1,370.8C415.1,370.8,415.1,370.8,415.1,370.8c-25,0-48.1,10.2-65,28.7
							c-19.7,21.5-29.4,52.4-26.6,84.8c5.5,63.4,56.2,115,113,115.1c0,0,0,0,0,0c25,0,48.1-10.2,65-28.7
							c19.7-21.5,29.4-52.4,26.6-84.8l0,0C522.7,422.4,472,370.8,415.1,370.8z"/>
					</g>
				</g>
				<g>
					
						<ellipse transform="matrix(0.9258 -0.3779 0.3779 0.9258 -153.7365 197.2972)" class="st9" cx="425.8" cy="490.4" rx="53.4" ry="61.1"/>
				</g>
				<g>
					<g>
						<path class="st1" d="M431,560.1c-34.8,0-65.8-30.9-69.1-68.9c-1.7-19.7,4.4-38.6,16.6-52c11-12,25.9-18.5,42.1-18.5
							c0,0,0,0,0,0c34.8,0,65.8,30.9,69.1,68.9l0,0c1.7,19.7-4.4,38.6-16.6,52C462.1,553.5,447.2,560.1,431,560.1
							C431,560.1,431,560.1,431,560.1z M420.6,439.9C420.6,439.9,420.6,439.9,420.6,439.9c-10.7,0-20.6,4.4-27.9,12.3
							c-8.6,9.4-12.9,23-11.6,37.3c2.4,28.3,24.8,51.3,49.9,51.3c0,0,0,0,0,0c10.7,0,20.6-4.4,27.9-12.3c8.6-9.4,12.9-23,11.6-37.3
							l0,0C468.1,462.9,445.7,439.9,420.6,439.9z"/>
					</g>
				</g>
				<g class="st6">
					<path class="st1" d="M1184.2,543.4c-22.2,39-61.7,65.5-104.4,65.5c-61.8,0-107.1-55.5-101.2-123.9
						c2.6-29.9,14.6-57.4,32.4-78.8c-0.6,3.7-1.1,7.4-1.4,11.2c-6.8,78,44.9,141.3,115.4,141.3
						C1145.8,558.7,1166,553.2,1184.2,543.4z"/>
				</g>
				<g class="st6">
					<path class="st1" d="M436.6,608.9c-42.8,0-82.2-26.5-104.4-65.5c18.3,9.8,38.4,15.3,59.2,15.3c70.5,0,122.2-63.3,115.4-141.3
						c-0.3-3.8-0.8-7.5-1.4-11.2c17.8,21.5,29.8,48.9,32.4,78.8C543.7,553.4,498.4,608.9,436.6,608.9z"/>
				</g>
				<g>
					<path class="st7" d="M1107.1,413.8c0-148.8-93.7-267-225.3-312.4c-51.7-18.8-74.2-57.8-83.6-82.3c-4.6-12-21.3-13-27-1.4
						c-6.3,12.8-8.8,32.9,3.1,63.9l0.2,0c-0.1,0-0.2,0-0.3,0c0,0,0.1,0,0.1,0S723,35.8,653.9,51.2c-5.2,1.2-6.2,8.2-1.5,10.8
						c11.6,6.3,27.2,16.4,31.4,27.2c0,0,0,0.1,0,0.1C529.1,121,413.3,248.5,413.3,413.8c0,62.3,16.5,120.7,45.3,171.2
						c1.1,1.9,1,4.3-0.3,6.2c-12.5,18-19.5,37.3-19.5,57.6c0,92.8,143.9,141.6,321.4,141.6c177.5,0,321.4-48.7,321.4-141.6
						c0-20.2-6.9-39.6-19.5-57.6c-1.3-1.8-1.4-4.2-0.3-6.2C1090.6,534.5,1107.1,476.1,1107.1,413.8z"/>
				</g>
				<g class="st6">
					<path class="st1" d="M764.4,841.8c-15.8-84.9-76.3-153.7-175.3-153.7c-47.7,0-95.6,24.2-135.7,59.9
						c40.8,61.7,162.7,93.9,306.8,93.9C761.6,841.8,763,841.8,764.4,841.8z"/>
				</g>
				<g>
					<path class="st9" d="M884.6,244.2c-46.2,0-89,28.9-119.4,74.5c-30.4-45.6-73.2-74.5-119.4-74.5c-84.8,0-148.6,97.1-142.6,216.8
						c2.6,51.3,17.6,98.5,40.5,135.6c-29.2,22.2-46.4,49-46.4,78c0,75.9,117.7,115.8,263,115.8s263-39.9,263-115.8
						c0-26.7-14.6-51.6-39.8-72.7c24.8-37.9,41.2-87.1,43.9-140.8C1033.2,341.3,969.3,244.2,884.6,244.2z"/>
				</g>
				<g class="st6">
					<path class="st1" d="M760.2,729.3c-157.2,0-287.9-38.3-315.8-111.5c-3.6,10-5.6,20.4-5.6,31c0,92.8,143.9,141.6,321.4,141.6
						c177.5,0,321.4-48.7,321.4-141.6c0-10.6-1.9-21-5.6-31C1048.1,691,917.4,729.3,760.2,729.3z"/>
				</g>
				<g class="st8">
					<g>
						<path class="st5" d="M881.7,101.5c-51.7-18.8-74.2-57.8-83.6-82.3c-4.6-12-21.3-13-27-1.4c-2.7,5.5-4.7,12.4-5.2,21
							c0.5,9.9,2.9,21.7,8.3,35.7l0.2,0c-0.1,0-0.2,0-0.3,0c0,0,0.1,0,0.1,0s-1.2-1.1-3.4-2.8c1,3.2,2.1,6.5,3.4,10l0.2,0
							c-0.1,0-0.2,0-0.3,0c0,0,0.1,0,0.1,0S723,35.8,653.9,51.2c-1.4,0.3-2.5,1.1-3.3,2.1c0.5,0.6,1.1,1.1,1.8,1.5
							c11.6,6.3,27.2,16.4,31.4,27.2c0,0,0,0.1,0,0.1c-1.3,0.3-2.5,0.5-3.8,0.8c1.6,2,2.9,4.1,3.7,6.3c0,0,0,0.1,0,0.1
							C536,119.5,423.8,237.2,414,391.7c4.5-12.3,46.8-126,95.5-178.7c45.9-49.6,109-89.3,178.3-103.5c9.3-1.9,19.9-4.1,24.3-12.5
							c3.1-5.8,1.3-20.8-3.7-28.4c26,8.3,39.8,26,43.6,29c5.5,5.3,12.9,8.6,21,8.9c0.2,0,0.4,0,0.6,0c0.3,0,0.5,0,0.8,0
							c14.8,0,27.5-10.2,30.9-24.4c15.8,16.4,37,31.9,65.4,42.2c0.2,0.1,0.4,0.1,0.5,0.2c59.8,20.6,120,57.9,156.2,106.8
							c32.6,44.1,74.1,148.5,78.8,160.4C1097.6,253.4,1006.8,144.6,881.7,101.5z"/>
					</g>
				</g>
				<g>
					<path class="st1" d="M760.2,800c-92.4,0-172.2-12.7-230.9-36.7c-65.5-26.8-100.1-66.4-100.1-114.5c0-21,6.7-41.6,19.8-61.1
						c-29.7-53-45.3-113-45.3-173.9c0-82.2,27.5-157.8,79.5-218.7c46.7-54.6,111.5-94,183.8-112c-4.8-4.1-11.3-8.5-19.2-12.7
						c-5.7-3.1-8.8-9.3-7.9-15.7c0.9-6.4,5.6-11.5,11.9-12.9c45.4-10.1,83.2,4.2,105.9,17c-3-17.4-1.4-32.5,4.8-45.2
						c4.3-8.8,13.1-14,22.9-13.5c9.9,0.5,18.2,6.5,21.7,15.7c9.8,25.6,31.3,59.7,77.9,76.7c140.7,48.5,231.6,174.7,231.6,321.4
						c0,60.9-15.7,120.9-45.3,173.9c13.2,19.5,19.8,40.1,19.8,61.1c0,48.1-34.6,87.7-100.1,114.5C932.4,787.3,852.6,800,760.2,800z
						 M692.7,85.1c0.1,0.2,0.2,0.4,0.3,0.6c1,2.6,0.8,5.6-0.5,8.1c-1.4,2.5-3.7,4.2-6.5,4.8c-157.3,32.3-262.9,159-262.9,315.2
						c0,58.3,15.2,115.9,44,166.5c2.9,5.1,2.6,11.6-0.8,16.4c-11.8,16.8-17.7,34.4-17.7,52.1c0,78.9,125.3,131.9,311.8,131.9
						s311.8-53,311.8-131.9c0-17.7-6-35.2-17.7-52.1c-3.4-4.9-3.7-11.3-0.8-16.4c28.8-50.6,44-108.1,44-166.5
						c0-138.4-85.9-257.4-218.8-303.3c-56.4-20.6-80.2-63.9-89.5-87.9c-1.1-2.9-3.6-3.3-4.6-3.4c-1.2-0.1-3.4,0.2-4.7,2.8
						c-6.6,13.3-5.5,32.4,3.1,55.3c0.8,1.6,1.2,3.4,1,5.3c-0.5,5-4.7,8.8-9.8,8.7l-0.3,0c-2.7-0.1-5.1-1.3-6.9-3.1
						c-6.1-5-47.1-36.7-100.9-29.4C680.1,67.5,689,76.3,692.7,85.1z"/>
				</g>
				<g>
					<g>
						<g>
							<path class="st1" d="M760.2,800c-75.8,0-141.4-10.4-189.6-30.2c-54.3-22.2-83-55.2-83-95.3c0-28.9,15-56.5,43.4-80.3
								c-22.2-38.7-35.2-84.5-37.6-132.8c-3.6-72.9,18.3-141.8,58.8-184.3c26.5-27.9,58.9-42.6,93.5-42.6
								c43.9,0,86.8,24.4,119.4,67.5c32.6-43.1,75.5-67.5,119.4-67.5c34.6,0,67,14.7,93.5,42.6c40.4,42.5,62.4,111.4,58.8,184.3
								c-2.5,50.2-17,99.1-41,138.5c24.2,22.4,36.9,48,36.9,74.5c0,40.1-28.7,73.1-83,95.3C901.5,789.6,836,800,760.2,800z
								 M645.7,253.8c-29.2,0-56.7,12.7-79.5,36.7c-36.9,38.8-56.9,102.3-53.5,170c2.4,47.5,16.3,94.1,39.1,131
								c2.6,4.2,1.6,9.7-2.4,12.7c-27.9,21.1-42.6,45.4-42.6,70.3c0,63.5,101.8,106.2,253.3,106.2c151.5,0,253.3-42.7,253.3-106.2
								c0-22.8-12.6-45.4-36.4-65.3c-3.7-3.1-4.6-8.6-1.9-12.7c24.8-37.8,39.8-86.1,42.3-136c3.4-67.7-16.6-131.3-53.5-170
								c-22.8-24-50.3-36.7-79.5-36.7c-41.1,0-81.7,25.6-111.4,70.2c-1.8,2.7-4.8,4.3-8,4.3s-6.2-1.6-8-4.3
								C727.4,279.4,686.8,253.8,645.7,253.8z"/>
						</g>
					</g>
				</g>
				<g>
					<g>
						<circle class="st2" cx="791.7" cy="898.8" r="258.2"/>
					</g>
					<g class="st4">
						<path class="st5" d="M921,1005.9c-30.2,42.7-79.9,70.6-136.2,70.6c-92.2,0-166.8-74.7-166.8-166.8
							c0-43.4,16.6-82.9,43.8-112.6c-19.5,27.2-30.8,60.5-30.8,96.5c0,92.1,74.7,166.8,166.8,166.8
							C846.6,1060.3,890.5,1039.3,921,1005.9z"/>
					</g>
					<g>
						<path class="st0" d="M601.8,724.1c-40.8,45.7-65.7,106-65.7,172c0,142.6,115.6,258.2,258.2,258.2
							c69.2,0,132.1-27.2,178.5-71.6c3.2-3.6,6.3-7.3,9.4-11.1c-41,27.4-90.2,43.3-143.2,43.3c-142.6,0-258.2-115.6-258.2-258.2
							c0-61,21.2-117.1,56.6-161.3C624.7,704,612.8,713.6,601.8,724.1z"/>
					</g>
					<g class="st4">
						<path class="st5" d="M1052.6,896.1c0,84-40.1,158.6-102.2,205.8c45.5-46.5,73.6-110.2,73.6-180.5
							c0-142.6-115.6-258.2-258.2-258.2c-58.6,0-112.7,19.5-156,52.4c46.9-48,112.3-77.7,184.6-77.7
							C937,637.9,1052.6,753.5,1052.6,896.1z"/>
					</g>
					<g>
						<g>
							<path class="st1" d="M794.4,1165c-148.3,0-268.9-120.6-268.9-268.9s120.6-268.9,268.9-268.9c148.3,0,268.9,120.6,268.9,268.9
								S942.7,1165,794.4,1165z M794.4,648.6c-136.5,0-247.6,111.1-247.6,247.6s111.1,247.6,247.6,247.6S1042,1032.6,1042,896.1
								S930.9,648.6,794.4,648.6z"/>
						</g>
					</g>
					<g>
						<circle class="st0" cx="794.4" cy="896.1" r="171.3"/>
					</g>
					<g class="st6">
						<path class="st1" d="M921,1011.6c19.8-27.9,31.4-62.1,31.4-98.9c0-94.6-76.7-171.3-171.3-171.3c-50.1,0-95.1,21.5-126.4,55.6
							c31-43.7,82-72.2,139.7-72.2c94.6,0,171.3,76.7,171.3,171.3C965.7,940.6,948.8,981.1,921,1011.6z"/>
					</g>
				</g>
				<g>
					<path class="st11" d="M627.6,1053.2c-16.4,14.6-36.9,23.2-59.2,23.2c-53.5,0-92.8-49.9-92.8-111.5c0-48.1,25.2-93.5,61.7-111
						c-2.5,14.3-3.7,29.1-3.7,44.1c0,11,0.7,21.9,2,32.5c0,0,15.7-2.8,33-9.5c12.6-4.9,26.9,1,31.9,13.6c1.2,3,1.8,6.1,1.8,9.2
						c0,8.9-4.8,17.3-13.1,21.7c-3.3,1.7-6.8,3.4-10.6,4.8c6.3-2.1,12.3-4.6,17.4-6.8c11.5-5.1,24.8-0.5,30.9,10.5
						c2.1,3.7,3.1,7.8,3.1,11.8c0,6.5-2.6,13-7.8,17.7c-8.4,7.7-22,16.9-43.1,24c10-2.5,18.3-5.7,25.1-8.9c3-1.5,6.2-2.1,9.3-2.1
						c9.3,0,18,6,20.5,15.7C635.9,1039.7,633.5,1047.9,627.6,1053.2z"/>
				</g>
				<g>
					<path class="st9" d="M627.6,1053.2c-16.4,14.6-36.9,23.2-59.2,23.2c-53.5,0-92.8-49.9-92.8-111.5c0-48.1,25.2-93.5,61.7-111
						c-2.5,14.3-3.7,29.1-3.7,44.1c0,11,0.7,21.9,2,32.5c0,0,15.7-2.8,33-9.5c12.6-4.9,26.9,1,31.9,13.6c1.2,3,1.8,6.1,1.8,9.2
						c0,8.9-4.8,17.3-13.1,21.7c-3.3,1.7-6.8,3.4-10.6,4.8c6.3-2.1,12.3-4.6,17.4-6.8c11.5-5.1,24.8-0.5,30.9,10.5
						c2.1,3.7,3.1,7.8,3.1,11.8c0,6.5-2.6,13-7.8,17.7c-8.4,7.7-22,16.9-43.1,24c10-2.5,18.3-5.7,25.1-8.9c3-1.5,6.2-2.1,9.3-2.1
						c9.3,0,18,6,20.5,15.7C635.9,1039.7,633.5,1047.9,627.6,1053.2z"/>
				</g>
				<g class="st6">
					<g>
						<path class="st1" d="M574.7,942.3c1.2,3,1.8,6.1,1.8,9.2c0,8.9-4.8,17.3-13.1,21.7c-3.3,1.7-6.8,3.4-10.6,4.8
							c6.3-2.1,12.3-4.6,17.4-6.8c3.6-1.6,7.4-2.2,11.1-2c2.7-1.1,5.3-2.3,7.8-3.6c8.3-4.3,13.1-12.8,13.1-21.7
							c0-3.1-0.6-6.2-1.8-9.2c-5-12.6-19.3-18.5-31.9-13.6c-6.6,2.6-12.9,4.5-18.2,6C560.6,926.3,570.7,932.1,574.7,942.3z"/>
					</g>
					<g>
						<path class="st1" d="M581.7,969.1c7.9,0.6,15.4,5.1,19.4,12.5c2.1,3.7,3.1,7.8,3.1,11.8c0,6.5-2.6,13-7.8,17.7
							c-8.4,7.7-22,16.9-43.1,24c10-2.5,18.3-5.7,25.1-8.9c3-1.5,6.2-2.1,9.3-2.1c0.1,0,0.1,0,0.2,0c16.2-6.5,27.1-14.1,34.3-20.7
							c5.1-4.7,7.8-11.1,7.8-17.7c0-4.1-1-8.1-3.1-11.8c-6.1-11-19.4-15.6-30.9-10.5C591.7,965.3,586.8,967.2,581.7,969.1z"/>
					</g>
					<g>
						<path class="st1" d="M507.8,905.7c0,0.5,0,0.9,0,1.4c0.1,16.7,16.9,28.3,32.6,22.5c0.2-0.1,0.3-0.1,0.5-0.2
							c-3.4,0.8-5.4,1.1-5.4,1.1c-1.3-10.6-2-21.5-2-32.5c0-15.1,1.3-29.8,3.7-44.1c-10.2,4.9-19.4,12-27.5,20.6
							C508.5,884.7,507.8,895.1,507.8,905.7z"/>
					</g>
					<g>
						<path class="st1" d="M633.9,1032.1c-2.5-9.7-11.2-15.7-20.5-15.7c-3.1,0-6.3,0.6-9.3,2.1c-4.2,2-8.9,3.9-14.3,5.7
							c8.4,0.8,16.1,6.7,18.4,15.6c2,7.6-0.4,15.8-6.3,21.1c-6.7,6-14.2,10.9-22.1,14.7c17.9-2.4,34.3-10.4,47.8-22.4
							C633.5,1047.9,635.9,1039.7,633.9,1032.1z"/>
					</g>
				</g>
				<g>
					<path class="st1" d="M570.6,982.4c-4.4,0-8.4-3.1-9.4-7.5c-1.1-5.2,2.1-10.3,7.2-11.5l0.4-0.1c5-1.7,10.5,1,12.2,6.1
						c1.7,5-1,10.5-6.1,12.2c-0.7,0.2-1.5,0.5-2.2,0.6C572,982.4,571.3,982.4,570.6,982.4z"/>
				</g>
				<g>
					<path class="st1" d="M576.9,980.4c-4,0-7.8-2.6-9.1-6.6c-1.7-5,1.1-10.5,6.1-12.2c0.3-0.1,0.6-0.2,0.9-0.3
						c4.9-2.1,10.5,0.3,12.6,5.2c2.1,4.9-0.3,10.6-5.2,12.6c-0.8,0.3-1.5,0.6-2.3,0.8C578.9,980.3,577.9,980.4,576.9,980.4z"/>
				</g>
				<g>
					<path class="st1" d="M579,1036.9L579,1036.9c-5.4,0-9.7-4.3-9.7-9.6c0-5.3,4.3-9.6,9.6-9.6c5.3,0,9.7,4.3,9.7,9.6
						C588.6,1032.6,584.3,1036.9,579,1036.9z"/>
				</g>
				<g>
					<path class="st1" d="M576.9,980.4c-4,0-7.8-2.6-9.1-6.6c-1.7-5,1.1-10.5,6.1-12.2c0.3-0.1,0.6-0.2,0.9-0.3
						c4.9-2.1,10.5,0.3,12.6,5.2c2.1,4.9-0.3,10.6-5.2,12.6c-0.8,0.3-1.5,0.6-2.3,0.8C578.9,980.3,577.9,980.4,576.9,980.4z"/>
				</g>
				<g>
					<path class="st1" d="M555.1,986.4c-4.5,0-8.5-3.2-9.4-7.7c-1-5.2,2.3-10.3,7.6-11.3c5-1,9.9-2.2,14.6-3.7
						c0.2-0.1,0.5-0.1,0.8-0.2l0.3-0.1c5-1.7,10.5,1,12.2,6.1c1.7,5-1,10.5-6.1,12.2c-0.6,0.2-1.2,0.4-1.7,0.5
						c-5.2,1.6-10.7,3-16.2,4.1C556.3,986.3,555.7,986.4,555.1,986.4z"/>
				</g>
				<g>
					<g>
						<path class="st1" d="M568.4,1086C511,1086,466,1032.8,466,964.9c0-51.5,27.6-100.7,67.1-119.7c3.2-1.6,7.1-1.2,10,1
							c2.9,2.2,4.3,5.8,3.7,9.3c-2.4,13.9-3.6,28.2-3.6,42.5c0,6.9,0.3,13.8,0.8,20.7c5.7-1.5,13.2-3.7,21-6.7
							c17.5-6.9,37.4,1.7,44.3,19c1.6,4.2,2.5,8.4,2.5,12.7c0,2.8-0.3,5.6-1,8.3c10,1.5,19.1,7.6,24.5,17.2c2.8,5,4.3,10.7,4.3,16.5
							c0,9.4-4,18.5-10.9,24.8c-0.1,0.1-0.1,0.1-0.2,0.2c7.1,4,12.6,10.8,14.8,19.1c2.9,11.1-0.7,23.1-9.2,30.7c0,0,0,0,0,0
							C615.2,1077.1,592.5,1086,568.4,1086z M525,873.2c-24.1,20.1-39.8,55.1-39.8,91.7c0,57.1,36.5,101.8,83.2,101.8
							c19.3,0,37.5-7.2,52.8-20.7c3.1-2.8,4.4-7.3,3.3-11.4c-1.3-5.1-5.9-8.6-11.2-8.6c-1.8,0-3.6,0.4-5.1,1.1
							c-8.3,3.9-17.3,7.1-26.9,9.5c-5,1.3-10.1-1.7-11.6-6.6c-1.5-5,1.3-10.2,6.2-11.8c16.4-5.5,29.8-12.9,39.7-21.9
							c2.9-2.7,4.6-6.5,4.6-10.6c0-2.5-0.6-5-1.8-7.1c-3.7-6.7-11.7-9.4-18.6-6.4c-6.3,2.8-12.5,5.2-18.2,7.2
							c-5,1.7-10.4-1-12.2-5.9c-1.8-5,0.8-10.4,5.8-12.2c2.9-1.1,6-2.5,9.4-4.3c4.9-2.6,8-7.6,8-13.2c0-1.9-0.4-3.8-1.1-5.6
							c-3-7.5-11.7-11.2-19.4-8.2c-18,7-34.1,9.9-34.8,10.1c-2.6,0.5-5.3-0.2-7.4-1.7c-2.1-1.6-3.5-3.9-3.8-6.6
							c-1.4-11.1-2.1-22.4-2.1-33.7C523.9,889.7,524.2,881.4,525,873.2z M627.6,1053.2L627.6,1053.2L627.6,1053.2z"/>
					</g>
				</g>
				<g>
					<path class="st1" d="M537.2,863.5c-5.3,0-9.6-4.3-9.6-9.6v0c0-5.3,4.3-9.6,9.6-9.6c5.3,0,9.6,4.3,9.6,9.6
						C546.9,859.1,542.6,863.5,537.2,863.5z"/>
				</g>
				<g>
					<path class="st1" d="M562,1040.3c-4.7,0-8.8-3.5-9.5-8.3c-0.8-5.3,2.9-10.1,8.2-10.9c5.5-0.8,10.8-1.8,15.9-3.1
						c0.8-0.2,1.6-0.3,2.4-0.3c5.3,0,9.7,4.3,9.7,9.6c0,4.7-3.3,8.6-7.7,9.4c-5.6,1.4-11.5,2.6-17.5,3.4
						C562.9,1040.2,562.5,1040.3,562,1040.3z"/>
				</g>
				<g>
					<path class="st1" d="M537.2,863.5c-5.3,0-9.6-4.3-9.6-9.6v0c0-4.1,2.6-7.7,6.3-9c4.7-1.9,10,0.1,12.3,4.7
						c2.3,4.7,0.4,10.3-4.1,12.7c-0.2,0.1-0.3,0.2-0.5,0.3C540.2,863.1,538.8,863.5,537.2,863.5z"/>
				</g>
				<g>
					<line class="st11" x1="1072.7" y1="875.2" x2="1039" y2="870.3"/>
				</g>
				<g>
					<line class="st11" x1="1076.4" y1="820.4" x2="1026.7" y2="821.3"/>
				</g>
				<g>
					<path class="st11" d="M1023.8,776.6c20.4-2.1,45.4-3.6,45.4-3.6"/>
				</g>
				<g>
					<path class="st9" d="M1130.3,898c-23.4,67.9-77.6,24.7-77.6,24.7l-27.2,1.8c-11.2,0.7-21.4-6.4-24.5-17.1c-0.6-2.2-1-4.5-1-6.7
						c0-8.9,5-17.3,13.2-21.4l25.8-9l-22.8,7.7c-1,0.4-2.1,0.8-3.1,1.3l-14.5,5.1c-2.3,0.8-4.6,1.2-6.9,1.2
						c-9.4,0-18.1-6.4-20.5-16.1c-2.3-9.3,2-18.9,10.4-23.5l45.1-24.7L990,837.6c-2.4,1-5,1.6-7.5,1.6c-6.2,0-12.1-3.1-15.7-8.6
						c-4.6-7.2-3.7-16.6,2.3-22.7c9.9-10.2,24.2-24.6,29.7-27.1c3.1-1.5,13.3-2.9,25.1-4.1c-9.1-17.3-20.1-33.4-32.8-48.1
						c0,0,33.6-18.8,62.8,0c5.7,3.7,11,7.3,15.8,10.7c31.2,22.2,54.2,54.6,62.9,91.9C1137.3,851.5,1138.3,874.7,1130.3,898z"/>
				</g>
				<g>
					<g class="st6">
						<path class="st1" d="M990,837.6l14.1-6.3l27.3-15l-19.1,6.7c-2.4,1-5,1.6-7.5,1.6c-6.2,0-12.1-3.1-15.7-8.6
							c-4.6-7.2-3.7-16.6,2.3-22.7c4.3-4.4,9.4-9.6,14.2-14.3c-3.2,0.6-5.5,1.1-6.8,1.7c-5.4,2.5-19.8,16.9-29.7,27.1
							c-5.9,6.1-6.8,15.5-2.3,22.7c3.5,5.5,9.5,8.6,15.7,8.6C985,839.2,987.5,838.7,990,837.6z"/>
					</g>
					<g class="st6">
						<path class="st1" d="M1024.1,772.8c3.1-1.5,13.3-2.9,25.1-4.1c-7.8-14.8-17-28.7-27.4-41.6c-15.7,1.4-27.6,8.1-27.6,8.1
							c10.4,12.1,19.7,25.1,27.7,39C1022.7,773.5,1023.5,773.1,1024.1,772.8z"/>
					</g>
					<g class="st6">
						<path class="st1" d="M1025,875.1c2.3-4.3,5.8-8,10.4-10.3l-14.5,5.1c-2.3,0.8-4.6,1.2-6.9,1.2c-9.4,0-18.1-6.4-20.5-16.1
							c-1.5-6.1-0.2-12.4,3.4-17.3l-15.2,8.4c-8.4,4.6-12.6,14.2-10.4,23.5c2.4,9.7,11.1,16.1,20.5,16.1c2.3,0,4.7-0.4,6.9-1.2
							l14.5-5.1c1-0.5,2-0.9,3.1-1.3L1025,875.1z"/>
					</g>
					<g class="st6">
						<path class="st1" d="M1038.4,863.5c-1,0.4-2.1,0.8-3.1,1.3l25.8-9L1038.4,863.5z"/>
					</g>
					<g class="st6">
						<path class="st1" d="M1074.9,908.2l-27.2,1.8c-11.2,0.7-21.4-6.4-24.5-17.1c-0.6-2.2-1-4.5-1-6.7c0-3.8,1-7.6,2.7-10.9
							l-11.7,4.1c-8.2,4.1-13.2,12.4-13.2,21.4c0,2.2,0.3,4.5,1,6.7c3.1,10.7,13.3,17.8,24.5,17.1l27.2-1.8c0,0,39.7,31.5,65.8-1.8
							C1096.6,925.4,1074.9,908.2,1074.9,908.2z"/>
					</g>
				</g>
				<g>
					<g>
						<path class="st1" d="M991.7,895.2c-5.1,0-10.1-1.3-14.7-3.7c-7.6-4.1-13.1-11.3-15.2-19.7c-3.3-13.5,2.9-27.6,15.1-34.3
							l45.1-24.7c4.7-2.6,10.5-0.8,13.1,3.8c2.6,4.7,0.8,10.5-3.8,13.1l-45.1,24.7c-4.5,2.5-6.9,7.7-5.6,12.8
							c0.8,3.2,2.8,5.8,5.7,7.3c2.9,1.6,6.1,1.8,9.2,0.7l40.3-14.1c1.5-0.5,3-0.7,4.5-0.4l33.7,4.8c5.3,0.8,8.9,5.6,8.2,10.9
							c-0.8,5.3-5.6,8.9-10.9,8.2l-31.3-4.5l-38.1,13.3C998.6,894.6,995.1,895.2,991.7,895.2z"/>
					</g>
					<g>
						<path class="st1" d="M982.6,848.8c-9.4,0-18.6-4.7-23.9-13.1c-7-11-5.5-25.2,3.5-34.6c24.5-25.4,30.1-28,32.5-29.1
							c2.9-1.4,8.3-2.9,28.2-4.9c5.3-0.5,10,3.3,10.6,8.6c0.5,5.3-3.3,10-8.6,10.6c-17.7,1.8-21.5,3.1-22.1,3.3
							c-0.4,0.2-5.6,3.2-26.7,25c-2.8,2.9-3.3,7.4-1.1,10.9c2.3,3.7,7.1,5.1,11.1,3.4l36.7-16.3c1.2-0.5,2.5-0.8,3.7-0.8l49.6-0.9
							c5.3,0,9.7,4.1,9.8,9.5c0.1,5.3-4.1,9.7-9.5,9.8l-47.7,0.8l-35,15.5C990.2,848,986.4,848.8,982.6,848.8z"/>
					</g>
					<g>
						<path class="st1" d="M1023.8,786.3c-4.9,0-9.1-3.7-9.6-8.6c-0.5-5.3,3.3-10,8.6-10.6c20.5-2.1,32.1-2.6,32.6-2.6
							c5.4-0.2,9.8,4,10,9.3c0.2,5.3-3.9,9.8-9.3,10c-0.1,0-11.6,0.5-31.4,2.5C1024.5,786.3,1024.2,786.3,1023.8,786.3z"/>
					</g>
					<g>
						<path class="st1" d="M1023.8,934.2c-14.9,0-27.9-9.7-32.1-24.1c-5.1-17.3,4.4-35.4,21.4-41.2l22.8-7.7c5-1.7,10.5,1,12.2,6
							c1.7,5-1,10.5-6,12.2l-22.8,7.7c-7.3,2.5-11.3,10.2-9.1,17.5c1.9,6.5,7.9,10.7,14.6,10.2l27.2-1.8c5.3-0.4,9.9,3.7,10.2,9
							c0.3,5.3-3.7,9.9-9,10.2l-27.2,1.8C1025.3,934.2,1024.5,934.2,1023.8,934.2z"/>
					</g>
					<g>
						<path class="st1" d="M1088.8,945.9c-22.2,0-41.2-14.8-42.1-15.6c-4.2-3.3-4.9-9.4-1.5-13.5c3.3-4.2,9.4-4.9,13.5-1.5
							c0.2,0.1,20.1,15.6,37.7,10.4c10.5-3.1,18.9-13.4,24.9-30.7c6.5-18.8,7.2-39.5,2-61.4c-8-34.2-29-64.8-59.2-86.3
							c-5-3.6-10.2-7.1-15.4-10.5c-23.8-15.3-52.6,0.2-52.9,0.3c-4.7,2.6-10.5,0.9-13.1-3.8c-2.6-4.6-0.9-10.5,3.7-13.1
							c1.6-0.9,39.1-21.4,72.7,0.3c5.5,3.5,10.9,7.2,16.2,11c33.9,24.2,57.6,58.8,66.7,97.6c6,25.5,5.1,49.8-2.6,72.1
							c-8.1,23.6-20.8,38-37.8,42.9C1097.3,945.4,1093,945.9,1088.8,945.9z"/>
					</g>
				</g>
				<g>
					<path class="st1" d="M1023.8,786.3c-3.5,0-6.8-1.9-8.5-5.1c-8.8-16.5-19.4-32.1-31.6-46.3c-3.5-4-3-10.1,1-13.6
						c4-3.5,10.1-3,13.6,1c13.1,15.3,24.6,32,34,49.8c2.5,4.7,0.7,10.5-4,13C1026.9,785.9,1025.4,786.3,1023.8,786.3z"/>
				</g>
				<g>
					<g>
						<path class="st1" d="M793.4,540.5c-5.5,1-13.9,3.6-19,10.7c-2,2.8-1.4,6.6,1.2,8.9l0,0c3.5,3.1,9,1.9,10.8-2.4
							c1.9-4.7,4.7-10.2,8.5-14.2C796.1,542.2,795.1,540.3,793.4,540.5z"/>
					</g>
					<g>
						<path class="st1" d="M723.9,545.8c5.6-0.6,14.3-0.3,21.2,5.2c2.7,2.1,3.1,6,1.3,8.9l0,0c-2.5,3.9-8.2,4.2-11.1,0.5
							c-3.1-4-7.3-8.6-12-11.4C721.8,548.1,722.2,546,723.9,545.8z"/>
					</g>
				</g>
				<g>
					<path class="st5" d="M880.4,643.6c0,0-76.1,46-185.9,7.1c13.5-5.2,28.3-12.4,43.9-21.9C807.4,586.5,871.2,624.2,880.4,643.6z"
						/>
				</g>
				<g>
					<g>
						<path class="st1" d="M782.7,676c-26.6,0-57.4-4.2-91.5-16.3c-3.8-1.3-6.4-4.9-6.4-8.9c-0.1-4,2.4-7.7,6.1-9.1
							c14.2-5.5,28.4-12.6,42.3-21.2c45-27.5,85.6-21.5,105.8-15.4c23.2,6.9,43.7,21.1,50,34.4c2.1,4.5,0.5,9.8-3.7,12.3
							C883.1,653.2,844.3,676,782.7,676z M721.9,648.9c69.9,17.7,122.5,0.5,143.5-8.7c-6.6-5.8-17.6-12.5-31.8-16.7
							c-20.9-6.3-53.6-9-90.3,13.4C736.2,641.3,729.1,645.3,721.9,648.9z"/>
					</g>
				</g>
				<g>
					<path class="st1" d="M616.9,664.4c6.7-3.4,12.9-5,19.2-6.2c6.3-1.3,12.5-2.9,18.6-4.6c6.1-1.8,12.2-3.7,18.2-5.7
						c3-1,6-2.1,9-3.1c3-1.1,6-2.2,9-3.1l0.4-0.1c5-1.6,10.4,1.3,12,6.3c1.5,4.7-1,9.7-5.4,11.6c-6.3,2.7-12.9,4.9-19.6,6.7l-5,1.3
						c-1.7,0.4-3.4,0.7-5.1,1c-3.4,0.7-6.8,1.2-10.2,1.7c-6.9,0.9-13.8,1.4-20.7,1.3c-3.5,0-6.9-0.2-10.4-1.1
						c-3.5-0.9-6.9-2-10.2-4.4c-0.4-0.3-0.5-0.9-0.2-1.3C616.6,664.6,616.7,664.5,616.9,664.4L616.9,664.4z"/>
				</g>
				<g>
					<path class="st9" d="M1097.3,1202c3.2-17.2,17.9-26.7,35.3-24.3c5.7,0.8,10.1,3.8,14.4,7.2c0.4,0.3,0.7,0.6,1.1,1
						c4.2,4.7,6.8,9.3,8.2,15.6c1.7,7.8,3.8,16,7.2,23.4c1.8,1.2,3.6,1.8,5.2,3.6c1.6-19.1,1.6-24.5,4.6-46.7
						c3.4-25,10.9-63.7,28.8-86.8c3-3.8,7.4-6.4,11.5-7s7-0.4,10.5,1.5c9.9,5.3,12.5,14.2,9,24.6c-0.3,0.9-0.8,1.7-1.1,2.5
						c3.8-6.8,9-11.3,16.8-12.5c4.3-0.7,8.1-0.4,12.1,1.7c11.2,6.1,14.9,16.6,10.7,28.5c-0.2,0.7-0.8,1.7-0.8,1.7
						c0.1,0,0.6-1.2,0.9-1.9c3.9-6.4,9.5-11.2,17.3-11.8c4.3-0.4,8.6-0.5,12.4,2.1c9.8,6.6,15.6,13.4,11.5,27.1
						c-7,23.7-11.8,52.2-11.6,77.8c0,1.6,0.1,4.2,0.1,5.4c0.8,63.1-12.9,156.9-89.8,164.8c-76.9,7.9-105.5-75.8-115.7-139.8
						C1093.5,1244.2,1094,1219.2,1097.3,1202z"/>
				</g>
				<g class="st6">
					<g>
						<path class="st1" d="M1301.3,1124.4c-3.8-2.5-8.1-2.4-12.4-2.1c-0.2,0-0.4,0.1-0.7,0.1c-4.8,23-8.1,49.9-8,74.2
							c0,1.6,0.1,4.2,0.1,5.4c0.6,63.1-9.7,156.9-67.4,164.8c-57.8,7.9-79.3-75.8-86.9-139.8c-1.6-13.3-1.5-33.4,0.1-49.8
							c-14.5,0.5-26.1,9.6-28.9,24.7c-3.2,17.2-3.8,42.2-1.3,57.7c10.1,64,38.7,147.7,115.7,139.8c76.9-7.9,90.6-101.7,89.8-164.8
							c0-1.2-0.1-3.8-0.1-5.4c-0.1-25.6,4.7-54.1,11.6-77.8C1316.9,1137.8,1311.2,1130.9,1301.3,1124.4z"/>
					</g>
				</g>
				<g>
					<path class="st1" d="M1219.4,1199.6c-4.8,0-9-3.6-9.5-8.5c-0.1-0.9-0.2-1.8-0.3-2.7c-0.4-5.3,3.6-9.9,8.9-10.3
						c5.3-0.4,9.9,3.6,10.3,8.9c0,0.6,0.1,1.2,0.2,1.8c0.6,5.3-3.1,10.1-8.4,10.7C1220.2,1199.6,1219.8,1199.6,1219.4,1199.6z"/>
				</g>
				<g>
					<g>
						<path class="st1" d="M1259.4,1210.2c-1.2,0-2.4-0.2-3.6-0.7c-4.6-1.9-6.9-6.8-5.7-11.5c-1.1-21.2,3.4-46,12.1-66.8
							c3.4-8.1,1.7-13.2-5.5-16.6c0,0,0,0,0,0l0,0c-7-3.2-12.5-1-16.1,6.7c-8.9,18.6-13.4,43.6-11.7,65.3c0.4,5.3-3.6,9.9-8.9,10.3
							c-5.3,0.5-9.9-3.6-10.3-8.9c-1.9-25.2,3.1-53.3,13.5-75.1c7.7-16,22.7-22.7,38.2-17.3c1.1,0.1,2.3,0.3,3.4,0.8
							c1.2,0.5,2.3,1.3,3.2,2.2c14.2,8.2,19,23.5,12.1,39.9c-7.8,18.5-11.8,41.5-10.5,60c0.1,1.5-0.2,3.1-0.8,4.5
							c-0.1,0.3-0.2,0.6-0.3,1C1266.8,1207.9,1263.2,1210.2,1259.4,1210.2z M1268.5,1203.6
							C1268.5,1203.6,1268.5,1203.6,1268.5,1203.6C1268.5,1203.6,1268.5,1203.6,1268.5,1203.6z"/>
					</g>
				</g>
				<g>
					<path class="st1" d="M1301.4,1238.8c-5.2,0-9.5-4.1-9.6-9.4c-0.8-30.5,7-63.5,11.8-80.4c2.7-9.5-0.5-13.1-6.3-15.7c0,0,0,0,0,0
						c-11.3-5.1-15.6,3.3-17.1,6.1c-7.4,14.4-11.5,37.3-10.7,59.6c0,1-0.1,2-0.4,3c-0.2,0.7-0.3,1-0.4,1.3c-1.6,5.1-6.9,8-12,6.4
						c-5-1.5-7.8-6.7-6.5-11.7c-0.7-25.3,4.1-50.4,12.8-67.4c8-15.7,23.1-21.8,39-16.1c1.7,0.1,3.3,0.6,4.8,1.6
						c0.6,0.4,1.1,0.8,1.6,1.3c13.2,7.5,18.2,20.7,13.7,36.8c-7.6,27.1-11.6,54.3-11.1,74.7c0.1,5.3-4.1,9.7-9.4,9.9
						C1301.5,1238.8,1301.4,1238.8,1301.4,1238.8z"/>
				</g>
				<g>
					<path class="st1" d="M1219.3,1197.2c-4.9,0-9.1-3.7-9.6-8.7c-2.9-29.2,6-58.3,14-77.6c2.7-6.6,1.8-9.5-4.4-12.8c0,0,0,0,0,0
						c-3.3-1.8-6.9-0.8-9.5,2.8c-17.3,23.6-22.9,53.1-27.4,83.9c-0.8,5.3-5.7,8.9-10.9,8.1c-5.3-0.8-8.9-5.7-8.1-10.9
						c4.7-32,11-65.4,31-92.5c7.6-10.3,20-14.1,31.1-9.7c0.7,0.1,1.3,0.3,2,0.5c1.4,0.5,2.7,1.4,3.7,2.4c12.7,8.1,16.5,21,10.4,35.6
						c-7.2,17.3-15.2,43.1-12.7,68.3c0.5,5.3-3.3,10-8.6,10.5C1219.9,1197.2,1219.6,1197.2,1219.3,1197.2z"/>
				</g>
				<g>
					<g>
						<path class="st1" d="M1201.7,1409.6c-59.3,0-100-52.2-115.2-148.4c-2.6-16.5-2-42.7,1.4-61c4.1-22,23-35.2,46-32.1
							c8.2,1.1,14.1,5.3,19,9.1c0.9,0.7,1.6,1.4,2.3,2.2c3.1,3.5,5.5,7,7.2,10.7c0.3-2.5,0.6-5.1,0.9-7.8c0.6-5.3,5.4-9,10.7-8.4
							c5.3,0.6,9,5.4,8.4,10.7c-2.1,17-3.4,31-4.2,44.1c-0.2,3.4-2.3,6.5-5.4,8c-3.1,1.5-6.8,1.3-9.6-0.7c-1.8-1.2-3.3-2.1-4.7-3
							c-1.7-1-3.1-2.5-3.9-4.3c-4-8.8-6.3-18.2-7.9-25.4c-0.9-4.3-2.6-7.4-5.8-11.1c-3.9-3-6.6-4.7-9.7-5.2
							c-12.7-1.7-22.3,4.8-24.5,16.6c-3,16.1-3.6,40-1.3,54.4c10.1,64,36.6,138.7,105.2,131.7c30.3-3.1,52.5-21.9,66.1-55.7
							c13.1-32.7,15.4-72,15.1-99.3c0-0.3,0-0.9-0.1-1.5c-0.1-2.5-0.1-3.7,0-4.8c0.5-5.3,5.3-9.2,10.6-8.6c5.2,0.5,9,5.1,8.6,10.2
							c0,0.6,0,1.5,0.1,2.4c0,0.8,0.1,1.6,0.1,2.1c1.3,104.3-34.6,167.9-98.4,174.4C1208.9,1409.4,1205.2,1409.6,1201.7,1409.6z
							 M1310.9,1230.2c0,0.1,0,0.2,0,0.3C1310.8,1230.4,1310.9,1230.3,1310.9,1230.2z"/>
					</g>
				</g>
				<g>
					<path class="st1" d="M1174.3,1220.3c5.1,4.7,10,9.6,14.6,14.9c4.5,5.4,8.7,11.2,11.9,17.5c3.2,6.3,5.5,13,6.5,19.8
						c1.1,6.8,1.1,13.5,0.3,20.1c-0.8-6.6-2.4-12.9-4.9-18.8c-2.5-5.9-5.9-11.1-9.9-15.8c-8.1-9.3-18.6-16-29.7-22.1
						c-4.7-2.6-6.4-8.5-3.9-13.2c2.6-4.7,8.5-6.4,13.2-3.9C1173,1219.3,1173.6,1219.7,1174.3,1220.3L1174.3,1220.3z"/>
				</g>
				<g>
					<path class="st11" d="M1207.6,1292.5"/>
				</g>
				<g>
					<path class="st9" d="M453.9,1181.9c-4.5-16.5-22-25.8-38.2-20.3c-5.3,1.8-9.8,5-13.1,9c-0.3,0.4-0.6,0.7-0.9,1.1
						c-3.5,4.6-5.7,10.3-6,16.3c-0.4,7.5-1.5,16.1-4,23.8c0,0-1.8,1.3-4.7,3.8c0,0-3.1-18.8-10.5-42.7
						c-8.4-26.9-22.2-60.2-43.5-79.9c-3.5-3.3-8.1-5-12.6-5c-3.5,0-7,1-10.1,2.9c-8.9,5.7-11.3,17.4-5.5,26.2c0.5,0.7,1,1.5,1.5,2.3
						c-4.2-6.5-11.3-10.1-18.5-10.1c-4,0-8.1,1.1-11.8,3.4c-10.3,6.5-13.3,20.2-6.7,30.5c0.4,0.6,0.7,1.2,1.1,1.8
						c-0.4-0.6-0.8-1.3-1.2-1.9c-4.2-6.6-11.3-10.2-18.6-10.2c-4.1,0-8.2,1.1-11.9,3.5c-9.5,6.1-13,18.3-8,28.4
						c8.6,17.5,20.5,45.4,23.6,70.5c0.2,1.6,0.4,3.1,0.5,4.7c0,84.8,46.3,153.6,103.4,153.6c57.1,0,103.5-68.8,103.5-153.6
						C461.6,1219.4,458.9,1199.7,453.9,1181.9z"/>
				</g>
				<g class="st6">
					<path class="st1" d="M453.9,1181.9c-2.3-8.5-8.1-15-15.3-18.7c1.1,9.9,1.7,20,1.7,30.5c0,84.8-37.2,153.6-83.1,153.6
						c-45.9,0-83.1-68.8-83.1-153.6c-0.1-1.6-0.2-3.1-0.4-4.7c-1.7-18-7.2-37.4-12.7-53.4c-3.2-1.8-6.9-2.7-10.5-2.7
						c-4.1,0-8.2,1.1-11.9,3.5c-9.5,6.1-13,18.3-8,28.4c8.6,17.5,20.5,45.4,23.6,70.5c0.2,1.6,0.4,3.1,0.5,4.7
						c0,84.8,46.3,153.6,103.4,153.6c57.1,0,103.5-68.8,103.5-153.6C461.6,1219.4,458.9,1199.7,453.9,1181.9z"/>
				</g>
				<g>
					<path class="st1" d="M331.2,1195.5c-5,0-9.3-3.9-9.6-9c0-0.5-0.1-0.9-0.1-1.4c-0.7-5.3,3-10.1,8.3-10.8
						c5.3-0.7,10.1,3,10.8,8.3c0.1,0.9,0.2,1.8,0.2,2.7c0.4,5.3-3.7,9.9-9,10.2C331.6,1195.5,331.4,1195.5,331.2,1195.5z"/>
				</g>
				<g>
					<path class="st1" d="M292.5,1212c-3.2,0-6.3-1.6-8.2-4.5l-0.5-0.9c-0.7-1.2-1.2-2.4-1.4-3.8c-3.1-22.3-13.3-41.9-21.3-54.5
						c-4.6-7.2-6.1-15.7-4.2-24c1.8-8.2,6.8-15.3,13.9-19.8c14.6-9.3,34.2-5,43.6,9.6c10.8,16.8,24.1,42.4,26.2,68.9
						c0.4,5.3-3.6,9.9-8.9,10.3c-5.3,0.4-9.9-3.6-10.3-8.9c-1.7-22.6-13.6-45.1-23.2-60c-3.7-5.7-11.3-7.4-17.1-3.7
						c-2.8,1.8-4.7,4.5-5.4,7.7c-0.7,3.3-0.1,6.6,1.7,9.5c8.8,13.8,19.9,35.3,23.8,60.2c2.1,4.3,0.6,9.6-3.6,12.3
						C296.1,1211.5,294.3,1212,292.5,1212z"/>
				</g>
				<g>
					<path class="st1" d="M254.3,1244.9c-4.8,0-9-3.6-9.6-8.5c-2.8-23.3-13.9-49.5-22.6-67.4c-7.2-14.6-2.2-32.1,11.5-40.8
						c14.8-9.4,34.4-5,43.7,9.6c8.8,13.8,20,35.4,23.9,60.4c2.1,4.3,0.6,9.6-3.6,12.3c-4.5,2.8-10.4,1.5-13.3-3l-0.5-0.9
						c-0.7-1.2-1.2-2.4-1.4-3.8c-3.2-22.4-13.4-42-21.4-54.6c-3.7-5.7-11.4-7.4-17.2-3.7c-5.4,3.4-7.3,10.3-4.5,16.1
						c9.4,19.2,21.4,47.6,24.5,73.6c0.6,5.3-3.1,10.1-8.4,10.7C255,1244.9,254.6,1244.9,254.3,1244.9z"/>
				</g>
				<g>
					<path class="st1" d="M331,1193.5c-5,0-9.2-3.8-9.6-8.9c-1.8-23.4-14.4-46.8-24.6-62.2c-4.2-6.4-5.7-14.1-4.1-21.6
						c1.6-7.5,6-13.9,12.5-18c10.9-6.9,25.1-5.6,34.5,3.1c18.5,17.3,34.1,45.5,46.1,84.1c1.6,5.1-1.2,10.5-6.3,12.1
						c-5.1,1.6-10.5-1.2-12.1-6.3c-10.9-34.8-25-61-40.8-75.7c-3-2.8-7.5-3.2-11-0.9c-2.1,1.3-3.5,3.4-4,5.8c-0.5,2.4,0,4.9,1.3,6.9
						c11.5,17.3,25.6,43.8,27.8,71.4c0.4,5.3-3.6,9.9-8.9,10.3C331.5,1193.5,331.2,1193.5,331,1193.5z"/>
				</g>
				<g>
					<path class="st1" d="M358.1,1403.2c-62.3,0-112.9-73.1-113.1-163c-0.1-1.3-0.2-2.6-0.4-3.8c-0.6-5.3,3.2-10.1,8.4-10.7
						c5.3-0.7,10.1,3.2,10.7,8.4c0.2,1.7,0.4,3.5,0.5,5.2c0,0.2,0,0.4,0,0.6c0,79.4,42.1,144,93.8,144c51.7,0,93.8-64.6,93.8-144
						c0-19.2-2.5-37.9-7.3-55.5c-1.5-5.4-5-9.8-10-12.5c-4.9-2.6-10.6-3.1-15.9-1.3c-3.5,1.2-6.6,3.3-8.8,6
						c-0.1,0.1-0.1,0.2-0.2,0.2c-0.2,0.2-0.3,0.4-0.5,0.5c-2.5,3.2-3.9,7-4.1,11.1c-0.5,9.9-2,18.7-4.4,26.2c-0.6,2-1.9,3.7-3.5,4.9
						c0,0-1.6,1.2-4.1,3.3c-2.6,2.3-6.3,2.9-9.6,1.7c-3.3-1.2-5.6-4.1-6.2-7.5c0-0.2-3.1-18.5-10.1-41.4c-1.6-5.1,1.3-10.5,6.4-12.1
						c5.1-1.6,10.5,1.3,12.1,6.4c0.8,2.5,1.5,5,2.2,7.4c1.4-4.2,3.4-8.1,6.1-11.6c0.3-0.5,0.8-1,1.2-1.5c4.5-5.4,10.5-9.5,17.3-11.9
						c10.3-3.5,21.6-2.6,31.1,2.5c9.6,5.1,16.7,14,19.5,24.4c5.3,19.3,8,39.7,8,60.6C471.2,1330,420.5,1403.2,358.1,1403.2z"/>
				</g>
				<g>
					<path class="st1" d="M352.6,1283.7c-1.5-6.5-1.8-13.4-0.9-20.2c0.9-6.9,2.9-13.6,5.6-20.1c2.8-6.5,6.2-12.6,10.2-18.4
						c3.9-5.9,8.3-11.4,13.2-16.6l0-0.1c3.6-4,9.8-4.2,13.7-0.6c4,3.6,4.2,9.8,0.6,13.7c-0.5,0.6-1.2,1.1-1.8,1.5
						c-10.3,6.8-19.9,15.2-27.5,25.2c-3.8,5-7,10.5-9.3,16.5C354.1,1270.6,352.7,1277,352.6,1283.7z"/>
				</g>
				<g>
					<path class="st11" d="M352.6,1283.7"/>
				</g>
				<g>
					<path class="st1" d="M916,1261.3c28.6-9.4,56-23.1,80.1-41.6c24.1-18.4,44.8-41.7,60.3-68.4c0.5-0.8,1.5-1.1,2.3-0.6
						c0.7,0.4,1,1.4,0.7,2.1c-13.3,28.3-32.5,54.2-56,75.5c-23.5,21.4-51.1,38.4-80.6,50.9l0,0c-4.9,2.1-10.6-0.2-12.6-5.1
						c-2.1-4.9,0.2-10.6,5.1-12.6C915.5,1261.5,915.7,1261.4,916,1261.3z"/>
				</g>
				<g>
					<path class="st1" d="M785.7,1302.8c-46.3,0-89.7-6.9-129-20.5c-5-1.7-7.7-7.2-5.9-12.3c1.7-5,7.2-7.7,12.3-5.9
						c37.2,12.9,78.5,19.5,122.7,19.5c47.3,0,91.2-7.5,130.3-22.2c5-1.9,10.5,0.6,12.4,5.6c1.9,5-0.6,10.5-5.6,12.4
						C881.5,1294.9,835.3,1302.8,785.7,1302.8z"/>
				</g>
				<g>
					<path class="st1" d="M515.1,1151.2c16.1,28,37.9,52.2,63.4,71c25.5,18.9,54.4,32.7,84.5,41.8c5.1,1.5,8,6.9,6.4,12
						c-1.5,5.1-6.9,8-12,6.4c-0.2-0.1-0.5-0.2-0.7-0.2l0,0c-31.1-12.2-60.4-29.2-85.4-51.1c-12.5-10.9-23.9-23.1-33.9-36.2
						c-10-13.1-18.5-27.3-25.6-42c-0.4-0.9,0-2,0.9-2.5C513.6,1150.1,514.7,1150.4,515.1,1151.2z"/>
				</g>
				<g>
					<g>
						<g>
							<g>
								<path class="st1" d="M649.7,398.8c-32.1-5.6-63.7,24.2-70.6,66.7c-7,42.5,13.4,81.5,45.5,87.1c32.1,5.6,63.7-24.2,70.6-66.7
									C702.1,443.5,681.7,404.5,649.7,398.8z"/>
							</g>
						</g>
					</g>
					<g>
						<g>
							<g>
								<path class="st5" d="M646.4,416.6c-10.5,3.1-15.8,17.3-11.8,31.8c4,14.5,15.8,23.7,26.3,20.6c10.5-3.1,15.8-17.3,11.8-31.8
									C668.6,422.7,656.9,413.5,646.4,416.6z"/>
							</g>
						</g>
					</g>
					<g>
						<g>
							<g>
								<path class="st12" d="M606.5,505.9c-5.1,2.9-6.1,10.9-2.4,17.9c3.7,7,10.9,10.3,15.9,7.4c5.1-2.9,6.1-10.9,2.4-17.8
									C618.7,506.3,611.6,503,606.5,505.9z"/>
							</g>
						</g>
					</g>
				</g>
				<g>
					<path class="st1" d="M951.9,452.2c-4.6,0.8-9.5,1.6-14.2,2.8c-2.4,0.5-4.7,1.2-7,1.7l-6.9,2c-9.1,2.8-17.7,6.3-25.8,10.6
						c-4.1,2-7.9,4.5-11.8,6.8c-3.6,2.7-7.4,5.1-10.7,8.1c-7.1,5.6-12.9,12.5-18.6,19.5L843.6,486c0.9-0.3,1.4-0.4,2-0.6
						c0.6-0.2,1.2-0.3,1.7-0.4c1.1-0.3,2.2-0.5,3.3-0.7c2.2-0.4,4.4-0.7,6.6-1c4.4-0.5,8.7-0.7,13.1-0.7c2.2,0.1,4.3,0.1,6.5,0.3
						l6.5,0.7l6.4,1.2c2.1,0.4,4.2,1.1,6.3,1.6c8.2,2.5,16.2,5.8,23.3,10.5c7.3,4.3,13.4,10.2,19,16.2c1.5,1.6,1.4,4.2-0.2,5.6
						c-1.2,1.1-3,1.3-4.4,0.7l-0.4-0.2c-3.5-1.7-6.7-3.7-10.1-5.2c-3.5-1.5-6.7-3.1-10.2-4.2c-6.8-2.5-13.8-4.1-20.8-5
						c-7-1-14.1-1.1-21-0.5c-1.7,0.1-3.5,0.4-5.2,0.6l-5.1,0.8c-1.7,0.4-3.4,0.7-5,1.1c-0.8,0.2-1.6,0.4-2.4,0.7
						c-0.4,0.1-0.8,0.2-1.1,0.3l-0.8,0.3l-0.4,0.1c-6.1,2-12.6-1.3-14.6-7.3c-1.2-3.7-0.5-7.6,1.7-10.5c6.5-8.9,13.6-17.6,22.5-24.4
						c4.2-3.7,9-6.5,13.6-9.6c2.4-1.3,4.9-2.5,7.4-3.8c2.4-1.3,5-2.3,7.6-3.3c10.2-4,20.9-6.6,31.6-7.4c2.7-0.1,5.4-0.3,8-0.3
						c2.7,0.1,5.3,0,8,0.3c5.4,0.4,10.5,1.1,15.9,2.6c2.1,0.6,3.4,2.8,2.8,4.9c-0.4,1.6-1.7,2.7-3.2,2.9L951.9,452.2z"/>
				</g>
			</g>
		</g>
	</g>
	<g>
		<path class="st5" d="M795.3,783.1c0.4,0.9,1.3,1.1,2,1.5c18.9,11,37.9,22,56.9,33c0.6,0.4,1.2,0.7,1.8,1.1c-0.1,1-0.9,1-1.5,1.4
			c-5.7,3.3-11.4,6.6-17.1,9.9c-1.4,0.8-2.3,0.7-3.6,0c-12.5-7.3-25.1-14.6-37.7-21.9c-1.3-0.8-2.3-0.8-3.6,0
			c-12.5,7.3-25.1,14.6-37.7,21.9c-1.3,0.8-2.3,0.8-3.6,0c-5.7-3.4-11.5-6.7-17.3-10.1c-0.5-0.3-1.1-0.4-1.3-1.2
			c5.6-3.3,11.3-6.5,17-9.8c14.1-8.2,28.2-16.3,42.2-24.5c0.6-0.3,1.4-0.5,1.6-1.3C794.1,783.1,794.7,783.1,795.3,783.1z"/>
		<path class="st5" d="M793.4,1022.1c-0.9-1.2-2.3-1.6-3.5-2.3c-4.8-2.9-9.7-5.7-14.6-8.5c-1.2-0.7-1.7-1.4-1.7-2.8
			c0.1-6.7,0.1-13.4,0-20c0-1.7,0.3-2.1,2-1.2c5.7,3.4,11.5,6.7,17.3,10c1.1,0.7,1.9,0.7,3,0c5.7-3.4,11.4-6.6,17.1-9.9
			c1.8-1.1,2.2-0.7,2.2,1.3c-0.1,6.5-0.1,13,0,19.6c0,1.6-0.6,2.4-1.9,3.1c-5.4,3-10.7,6.1-16.1,9.3c-0.6,0.4-1.5,0.5-1.8,1.4
			C794.7,1022.1,794.1,1022.1,793.4,1022.1z"/>
		<path class="st5" d="M773.7,938.5c0-7.2,0-14.5,0-21.7c0-1.6-0.4-2.4-1.8-3.2c-12.5-7.1-24.9-14.4-37.4-21.5
			c-1.6-0.9-2.3-1.9-2.3-3.9c0.1-6.5,0.1-13.1,0-19.6c0-1.4,0.4-2.2,1.6-2.8c5.8-3.3,11.6-6.6,17.3-10c1.5-0.9,2.5-0.7,3.8,0.1
			c12.4,7.2,24.9,14.4,37.3,21.7c1.5,0.9,2.5,0.9,4.1,0c12.4-7.3,24.9-14.4,37.3-21.7c1.5-0.9,2.6-0.9,4.1,0
			c5.6,3.4,11.4,6.7,17.1,9.9c1.2,0.7,1.7,1.4,1.7,2.8c-0.1,6.7-0.1,13.4,0,20.1c0,1.7-0.7,2.5-2,3.3c-12.4,7.1-24.7,14.3-37.2,21.4
			c-1.6,0.9-2.3,1.9-2.3,3.9c0.1,14.3,0,28.7,0.1,43c0,1.8-0.6,2.7-2.1,3.5c-5.7,3.2-11.3,6.4-16.9,9.8c-1.2,0.7-2.2,0.8-3.4,0
			c-5.7-3.4-11.5-6.8-17.3-10c-1.3-0.7-1.7-1.6-1.7-3C773.7,953.2,773.7,945.9,773.7,938.5z"/>
		<path class="st5" d="M753,998.3c-4.9-2.8-9.6-5.5-14.2-8.2c-15.3-8.9-30.7-17.8-46-26.6c-1.2-0.7-1.8-1.4-1.8-2.9
			c0-22.9,0-45.7,0-68.6c0-0.3,0-0.6,0.1-1c0.9-0.3,1.5,0.4,2.2,0.8c5.6,3.2,11.1,6.5,16.7,9.6c1.5,0.8,1.9,1.7,1.9,3.3
			c-0.1,14.4,0,28.8-0.1,43.3c0,1.7,0.5,2.7,2,3.6c12.5,7.1,24.9,14.4,37.4,21.5c1.4,0.8,2,1.7,2,3.4c-0.1,6.5,0,12.9,0,19.4
			C753.1,996.6,753,997.3,753,998.3z"/>
		<path class="st5" d="M835.7,998.3c0-7.9,0-15.4,0-22.9c0-1.5,1.1-1.8,2.1-2.3c12.4-7.2,24.9-14.4,37.3-21.6
			c1.5-0.8,1.9-1.7,1.9-3.4c-0.1-14.5,0-29-0.1-43.5c0-1.6,0.4-2.4,1.8-3.2c5.7-3.2,11.3-6.5,16.9-9.8c0.6-0.3,1.1-0.9,2.1-0.8
			c0,0.8,0,1.5,0,2.3c0,22.2,0,44.4,0,66.7c0,1.8-0.5,2.8-2.1,3.8c-19.2,11-38.4,22.1-57.6,33.2
			C837.5,997.4,836.8,997.7,835.7,998.3z"/>
		<path class="st5" d="M711.8,878.9c-6.9-4-13.4-7.8-19.9-11.5c-0.9-0.5-0.9-1.2-0.9-2c0-7,0-14,0-21c0-1.1,0.4-1.7,1.3-2.3
			c6.1-3.5,12.1-7,18.1-10.5c0.9-0.5,1.6-0.6,2.6,0c5.9,3.5,11.9,7,17.9,10.4c1.5,0.8,1.2,1.3-0.1,2c-5.7,3.3-11.4,6.6-17.1,9.8
			c-1.5,0.8-1.9,1.7-1.9,3.4C711.8,864.2,711.8,871.3,711.8,878.9z"/>
		<path class="st5" d="M877,878.9c0-7.5-0.1-14.5,0.1-21.5c0-2-0.7-3-2.3-3.9c-5.6-3.1-11-6.4-16.5-9.5c-1.8-1-1.5-1.5,0.1-2.4
			c5.8-3.3,11.6-6.6,17.3-10c1.1-0.7,1.9-0.7,3,0c5.8,3.4,11.6,6.8,17.5,10.2c1.3,0.7,1.8,1.5,1.8,3c-0.1,6.8,0,13.5,0,20.3
			c0,0.9,0.1,1.7-0.9,2.3C890.4,871.1,883.9,874.8,877,878.9z"/>
		<path class="st5" d="M732.3,914.5c4.2,2.4,8.2,4.6,12,6.9c2.9,1.7,7,2.6,8.4,5.4c1.4,2.7,0.4,6.5,0.4,9.9c0,4.1,0,8.1,0,12.2
			c0,1.4-0.3,1.7-1.6,0.9c-6-3.5-12.1-7-18.1-10.5c-0.6-0.4-1.2-0.7-1.2-1.6c0-6.8,0-13.7,0-20.5
			C732.3,916.4,732.3,915.7,732.3,914.5z"/>
		<path class="st5" d="M835.6,950.2c0-5.4,0.5-10.8-0.1-16.1c-0.6-5.7,1.3-9,6.5-11.3c4.9-2.2,9.4-5.2,14.5-8.1c0,2.9,0,5.4,0,7.9
			c0,4.9,0,9.7,0,14.6c0,0.9,0,1.7-1,2.2c-6.4,3.6-12.8,7.3-19.2,11C836.2,950.3,836,950.2,835.6,950.2z"/>
		<path class="st5" d="M815.2,842.9c-6.9,4-13.4,7.8-20,11.6c-0.6,0.4-1.1,0.4-1.7,0c-6.5-3.8-13-7.5-19.9-11.5
			c2-1.2,3.6-2.1,5.3-3.1c4.7-2.7,9.3-5.4,14-8.1c0.8-0.5,1.5-0.9,2.6-0.3C801.9,835.2,808.3,838.9,815.2,842.9z"/>
	</g>
	<g>
		<g>
			<path class="st13" d="M1197.8,849.3V510.8h138.1c30.3,0,56.4,8.8,75.3,25.5c18.4,16.3,28.6,39.2,28.6,64.6
				c0,10.5-1.7,26.2-9.6,41c-5.9,11-14.2,19.6-24.7,25.6c14.2,5.2,26.2,14.3,35,26.8c10.6,15,16.4,34.6,16.4,55.3
				c0,26-9.1,50-25.6,67.6c-9.4,10-21.2,17.8-34.8,23.2c-14.8,5.8-32,8.8-51.1,8.8H1197.8z M1336.4,773.2
				c23.8,0,34.4-15.6,34.4-31.1s-10.6-31.1-34.4-31.1h-53v62.2H1336.4z M1330.2,638.7c15,0,24-9.7,24-25.9c0-7.8-2.3-25.9-23.5-25.9
				h-47.3v51.7H1330.2z"/>
			<path class="st1" d="M1335.9,516.3c59.9,0,98.4,36.1,98.4,84.6c0,22.8-8.6,57-46.1,68c43.3,6.2,63.2,43.3,63.2,80.8
				c0,44.7-29,94.1-106,94.1h-142.1V516.3H1335.9 M1277.9,644.2h52.3c17.6,0,29.5-11.4,29.5-31.4c0-16.6-8.6-31.4-29-31.4h-52.8
				V644.2 M1277.9,778.7h58.5c26.6,0,39.9-18.1,39.9-36.6c0-17.1-11.9-36.6-39.9-36.6h-58.5V778.7 M1335.9,505.3h-132.6h-11v11
				v327.5v11h11h142.1c19.7,0,37.6-3.1,53.1-9.2c14.4-5.7,26.8-14,36.8-24.6c17.5-18.6,27.1-43.9,27.1-71.3
				c0-21.8-6.2-42.6-17.4-58.5c-7.5-10.6-17-18.9-28.2-24.7c0.5-0.4,1-0.8,1.5-1.2c6.8-5.7,12.4-12.7,16.7-20.7
				c8.5-15.9,10.3-32.5,10.3-43.6c0-13.5-2.7-26.4-7.9-38.1c-5.2-11.7-12.8-22-22.6-30.6c-9.8-8.6-21.5-15.3-34.7-19.9
				C1366.6,507.7,1351.8,505.3,1335.9,505.3L1335.9,505.3z M1288.9,592.4h41.8c6.2,0,10.7,1.8,13.6,5.4c2.8,3.5,4.4,8.8,4.4,15
				c0,9.3-3.2,20.4-18.5,20.4h-41.3V592.4L1288.9,592.4z M1288.9,716.5h47.5c21.4,0,28.9,13.8,28.9,25.6c0,11.8-7.6,25.6-28.9,25.6
				h-47.5V716.5L1288.9,716.5z"/>
		</g>
		<g>
			<path class="st14" d="M1460.6,849.3v-233h81.3v233H1460.6z M1501.3,594c-12.9,0-25.2-4.8-34.5-13.5c-9.5-8.8-14.7-20.5-14.7-32.8
				c0-12.7,5.2-24.5,14.7-33.2c9.2-8.5,21.5-13.2,34.5-13.2c27.1,0,48.3,20.4,48.3,46.4C1549.6,573.2,1527.9,594,1501.3,594z"/>
			<path class="st1" d="M1501.3,506.8c23.8,0,42.8,17.6,42.8,40.9c0,22.3-19,40.9-42.8,40.9c-23.8,0-43.7-18.5-43.7-40.9
				C1457.6,524.4,1477.6,506.8,1501.3,506.8 M1536.5,621.8v222h-70.4v-222H1536.5 M1501.3,495.8c-14.4,0-28,5.2-38.2,14.6
				c-10.6,9.8-16.5,23-16.5,37.3c0,7.1,1.5,13.9,4.5,20.4c2.8,6.2,6.9,11.7,12,16.5c10.4,9.7,24,15,38.3,15
				c29.7,0,53.8-23.3,53.8-51.9C1555.1,518.6,1531.5,495.8,1501.3,495.8L1501.3,495.8z M1547.5,610.8h-11h-70.4h-11v11v222v11h11
				h70.4h11v-11v-222V610.8L1547.5,610.8z"/>
		</g>
		<g>
			<path class="st15" d="M1711.1,849.3V728.8c0-29-16.6-42-33-42c-11.2,0-37.3,4-37.3,41.6v121h-81.3v-233h81.3v22.1
				c5.8-7.2,12.6-12.4,18.5-16c12.2-7.4,27.1-11.8,39.7-11.8c60.3,0,93.4,40.4,93.4,113.9v124.8H1711.1z"/>
			<path class="st1" d="M1699.1,616.1c58.9,0,87.9,40.4,87.9,108.4v119.3h-70.3v-115c0-34.2-20.9-47.5-38.5-47.5
				c-19,0-42.8,10-42.8,47.1v115.5H1565v-222h70.4v39.9C1643,630.4,1678.1,616.1,1699.1,616.1 M1699.1,605.1
				c-13.6,0-29.5,4.7-42.5,12.6c-3.7,2.2-7.1,4.6-10.2,7.2v-3.2v-11h-11H1565h-11v11v222v11h11h70.4h11v-11V728.3
				c0-29.8,17.3-36.1,31.8-36.1c12.7,0,27.5,9.6,27.5,36.5v115v11h11h70.3h11v-11V724.5c0-36.9-8.1-66-24.2-86.5
				c-8.5-10.8-19.1-19.1-31.7-24.6C1729.6,607.9,1715.1,605.1,1699.1,605.1L1699.1,605.1z"/>
		</g>
		<g>
			<path class="st16" d="M1906.3,855c-16.1,0-31.2-3-45-8.9c-13.5-5.8-25.5-14.2-35.4-25.1c-10-10.9-17.7-23.9-23-38.6
				c-5.4-15.1-8.1-31.7-8.1-49.3c0-17.8,2.7-34.5,8.1-49.6c5.3-14.8,13.1-27.9,23.1-38.8c10-10.9,22-19.4,35.7-25.2
				c13.9-5.9,29.2-8.9,45.5-8.9c24.2,0,47.5,8.8,63.9,23.7v-18h81.3v233h-81.3v-19.1C1954.5,845.8,1930.8,855,1906.3,855z
				 M1922.9,686.7c-25.9,0-45.4,19.9-45.4,46.3c0,22.5,17.1,45.8,45.8,45.8c24.6,0,45.4-21,45.4-45.8
				C1968.8,707.1,1948.6,686.7,1922.9,686.7z"/>
			<path class="st1" d="M1907.2,616.1c27.1,0,54.2,11.9,69.4,32.3v-26.6h70.4v222h-70.4v-28c-15.2,20.9-42.3,33.7-70.4,33.7
				c-62.3,0-106-47.1-106-116.5C1800.3,663.2,1844,616.1,1907.2,616.1 M1923.4,784.4c28.5,0,50.9-24.2,50.9-51.3
				c0-29-22.8-51.8-51.3-51.8c-29.9,0-50.9,23.3-50.9,51.8C1872.1,760.1,1893,784.4,1923.4,784.4 M1907.2,605.1
				c-17,0-33.1,3.1-47.7,9.3c-14.4,6.1-27.1,15-37.6,26.5c-10.5,11.4-18.7,25.1-24.2,40.7c-5.6,15.7-8.5,33-8.5,51.4
				c0,18.3,2.8,35.5,8.4,51.2c5.5,15.5,13.6,29.1,24.1,40.5c10.5,11.5,23,20.4,37.3,26.5c14.5,6.2,30.3,9.3,47.2,9.3
				c21.7,0,42.7-6.9,59.4-18.7v2v11h11h70.4h11v-11v-222v-11h-11h-70.4h-11v11v1.1C1949.3,611.6,1928.6,605.1,1907.2,605.1
				L1907.2,605.1z M1923.4,773.4c-25.3,0-40.3-20.5-40.3-40.3c0-23.3,17.1-40.8,39.9-40.8c22.6,0,40.3,17.9,40.3,40.8
				C1963.3,754.9,1945,773.4,1923.4,773.4L1923.4,773.4z"/>
		</g>
		<g>
			<path class="st17" d="M2221.7,849.3V728.8c0-29-16.6-42-33-42c-11.2,0-37.3,4-37.3,41.6v121H2070v-233h81.3v22.1
				c5.8-7.2,12.6-12.4,18.5-16c12.2-7.4,27.1-11.8,39.7-11.8c60.3,0,93.4,40.4,93.4,113.9v124.8H2221.7z"/>
			<path class="st1" d="M2209.6,616.1c58.9,0,87.9,40.4,87.9,108.4v119.3h-70.4v-115c0-34.2-20.9-47.5-38.5-47.5
				c-19,0-42.8,10-42.8,47.1v115.5h-70.4v-222h70.4v39.9C2153.5,630.4,2188.6,616.1,2209.6,616.1 M2209.6,605.1
				c-13.6,0-29.5,4.7-42.5,12.6c-3.7,2.2-7.1,4.6-10.2,7.2v-3.2v-11h-11h-70.4h-11v11v222v11h11h70.4h11v-11V728.3
				c0-29.8,17.3-36.1,31.8-36.1c12.7,0,27.5,9.6,27.5,36.5v115v11h11h70.4h11v-11V724.5c0-36.9-8.1-66-24.2-86.5
				c-8.5-10.8-19.1-19.1-31.7-24.6C2240.1,607.9,2225.6,605.1,2209.6,605.1L2209.6,605.1z"/>
		</g>
		<g>
			<path class="st18" d="M2432.5,855c-16.7,0-33-3-48.4-8.8c-15.3-5.8-29.1-14.2-40.9-24.9c-25.1-22.8-38.9-54.5-38.9-89.2
				c0-17.8,3.6-34.7,10.6-50.1c6.6-14.6,16.2-27.5,28.3-38.4c23.8-21.3,55.5-33,89.2-33c21.5,0,41.5,5.1,59.2,15.1
				c16.5,9.3,30.7,22.6,42.3,39.6l3.2,4.7l-64.1,40.1l-2.9-4.6c-7-10.9-22.7-18.9-37.2-18.9c-27,0-45.8,18.7-45.8,45.4
				c0,22.5,14.3,46.8,45.8,46.8c14.5,0,30.2-7.9,37.2-18.9l2.9-4.6l64.1,40.1l-3.2,4.7c-11.6,17-25.8,30.3-42.3,39.6
				C2474,849.9,2454,855,2432.5,855z"/>
			<path class="st1" d="M2432.5,616.1c42.8,0,75.6,20.9,97,52.3l-54.7,34.2c-8.6-13.3-26.6-21.4-41.8-21.4
				c-32.3,0-51.3,23.3-51.3,50.9c0,28,19,52.3,51.3,52.3c15.2,0,33.3-8.1,41.8-21.4l54.7,34.2c-21.4,31.4-54.2,52.3-97,52.3
				c-64.6,0-122.6-47.1-122.6-117.4C2309.9,661.7,2367.8,616.1,2432.5,616.1 M2432.5,605.1c-17.4,0-34.3,3-50.3,8.9
				c-16,5.9-30.4,14.5-42.6,25.5c-12.7,11.4-22.7,24.9-29.7,40.2c-7.3,16.1-11.1,33.7-11.1,52.4c0,18.6,3.7,36.3,11,52.5
				c6.9,15.4,16.9,29.1,29.6,40.7c12.3,11.2,26.6,20,42.6,26c16,6.1,33,9.2,50.3,9.2c22.5,0,43.3-5.3,61.9-15.8
				c17.2-9.7,32.1-23.6,44.1-41.3l6.4-9.4l-9.7-6.1l-54.7-34.2l-9.2-5.8l-5.9,9.1c-6,9.3-20,16.3-32.6,16.3
				c-27.7,0-40.3-21.4-40.3-41.3c0-19.8,12.5-39.9,40.3-39.9c12.6,0,26.6,7,32.6,16.3l5.9,9.1l9.2-5.8l54.7-34.2l9.7-6.1l-6.4-9.4
				c-12-17.7-26.9-31.6-44.1-41.3C2475.8,610.4,2455,605.1,2432.5,605.1L2432.5,605.1z"/>
		</g>
		<g>
			<path class="st19" d="M2645.4,855c-17.9,0-34.9-3-50.4-9c-15.1-5.8-28.5-14.3-39.7-25.2c-22.7-22-35.2-53-35.2-87.2
				c0-18.3,3.4-35.4,10.1-51c6.4-14.8,15.6-27.9,27.4-38.8c23-21.3,54-33.1,87.3-33.1c33,0,63.5,11.4,86.1,32.2
				c11.4,10.5,20.4,23.1,26.6,37.2c6.5,14.8,9.8,31,9.8,48.2c0,4.7-0.3,10.4-0.6,17.6c-0.1,2.4-0.2,5-0.4,7.8l-0.2,5.3h-58
				l41.4,52.3l-3.2,3.5c-11.2,12.2-26.7,22.4-44.8,29.6C2683.9,851.3,2664.4,855,2645.4,855z M2606.5,759
				c7.7,15.2,23.2,23.7,43.7,23.7c18.7,0,38.7-8.2,52.3-21.3l2.5-2.4H2606.5z M2685.8,706.6c-3.6-15.3-19-25.6-39.4-25.6
				c-11.7,0-31.7,3.5-40.8,25.6H2685.8z"/>
			<path class="st1" d="M2645,616.1c63.7,0,116.9,44.7,116.9,112.2c0,6.2-0.5,14.3-1,25.2h-162.6c6.7,21.4,25.2,34.7,51.8,34.7
				c20.9,0,42.3-9.5,56.1-22.8l36.1,45.6c-21.9,23.8-59.9,38.5-97,38.5c-70.4,0-119.8-48.5-119.8-116
				C2525.7,661.3,2581.3,616.1,2645,616.1 M2597.9,712.1h94.1c-1-21.9-20.4-36.6-45.6-36.6C2625.5,675.5,2605,685.5,2597.9,712.1
				 M2645,605.1c-17.2,0-33.8,3-49.4,8.9c-15.7,5.9-29.7,14.6-41.6,25.7c-12.4,11.5-22,25.2-28.7,40.7c-7,16.3-10.6,34.2-10.6,53.2
				c0,18,3.2,35.1,9.6,50.8c6.3,15.4,15.4,29,27.2,40.4c11.8,11.4,25.8,20.3,41.6,26.4c16.1,6.2,33.7,9.4,52.4,9.4
				c19.7,0,39.8-3.8,58.2-11.1c18.9-7.4,35.1-18.1,46.8-30.9l6.4-6.9l-5.8-7.4l-31.4-39.7h41.3h10.5l0.5-10.5
				c0.1-2.8,0.2-5.4,0.4-7.8c0.3-7.3,0.6-13,0.6-17.9c0-17.9-3.4-34.9-10.2-50.4c-6.5-14.9-15.9-28-27.9-39.1
				C2711.2,617.1,2679.3,605.1,2645,605.1L2645,605.1z M2614.8,701.1c8.3-11.7,21.1-14.6,31.6-14.6c14.3,0,25.7,5.6,31.2,14.6
				H2614.8L2614.8,701.1z M2616.9,764.5h73.1c-11.7,7.9-26.3,12.7-39.7,12.7C2635.8,777.2,2624.4,772.8,2616.9,764.5L2616.9,764.5z"
				/>
		</g>
		<g>
			<path class="st20" d="M3051.7,849.3l-24.7-76.1h-107l-24.2,76.1h-91.8l125.3-338.5h88.9l124.8,338.5H3051.7z M3002.5,697.6
				l-29.5-91.9l-29.1,91.9H3002.5z"/>
			<path class="st1" d="M3014.3,516.3L3135,843.8h-79.4l-24.7-76.1h-115l-24.2,76.1h-79.9L2933,516.3H3014.3 M2936.4,703.1h73.7
				L2973,587.6L2936.4,703.1 M3022,505.3h-7.7H2933h-7.7l-2.7,7.2L2801.5,840l-5.5,14.8h15.8h79.9h8l2.4-7.7l21.8-68.4h99l22.2,68.5
				l2.5,7.6h8h79.4h15.8l-5.5-14.8l-120.7-327.5L3022,505.3L3022,505.3z M2951.4,692.1l21.6-68.3l21.9,68.3H2951.4L2951.4,692.1z"/>
		</g>
		<g>
			<path class="st21" d="M3124.3,958.6V616.3h81.3v15.8c18.7-15.7,44.4-21.5,63-21.5c14.6,0,28.9,2.9,42.5,8.6
				c13.6,5.7,25.8,14,36.3,24.5c10.8,10.9,19.3,23.9,25.2,38.5c6.3,15.5,9.4,32.4,9.4,50.3c0,18-3.2,35.1-9.4,50.6
				c-5.9,14.7-14.4,27.7-25.2,38.6c-10.5,10.6-22.7,18.9-36.3,24.6c-13.6,5.7-27.9,8.6-42.5,8.6c-12.7,0-26.5-2.8-38.8-7.8
				c-9.2-3.7-17.4-8.7-24.2-14.5v125.9H3124.3z M3253.9,686.7c-24.8,0-45.8,21-45.8,45.8c0,25.1,21,46.3,45.8,46.3
				s45.8-21.2,45.8-46.3C3299.7,707.7,3278.7,686.7,3253.9,686.7z"/>
			<path class="st1" d="M3268.6,616.1c55.6,0,107.9,45.2,107.9,116.5c0,71.8-52.3,116.9-107.9,116.9c-22.8,0-52.3-9.5-68.4-30.4v134
				h-70.4V621.8h70.4v23.8C3216.3,625.1,3245.8,616.1,3268.6,616.1 M3253.9,784.4c27.6,0,51.3-23.3,51.3-51.8
				c0-28-23.8-51.3-51.3-51.3c-27.1,0-51.3,22.8-51.3,51.3C3202.5,761.6,3227.3,784.4,3253.9,784.4 M3268.6,605.1
				c-16.7,0-38.9,4.5-57.5,16.2v-10.5h-11h-70.4h-11v11v331.3v11h11h70.4h11v-11V843.7c5.1,3.3,10.6,6.2,16.6,8.6
				c12.9,5.3,27.5,8.2,40.9,8.2c15.3,0,30.3-3,44.6-9c14.3-6,27.1-14.7,38-25.8c11.4-11.5,20.3-25.1,26.4-40.5
				c6.5-16.2,9.8-33.9,9.8-52.7c0-18.6-3.3-36.3-9.8-52.4c-6.2-15.3-15.1-28.8-26.4-40.3c-11-11.1-23.8-19.7-38-25.7
				C3298.9,608.2,3283.9,605.1,3268.6,605.1L3268.6,605.1z M3253.9,773.4c-21.5,0-40.3-19.1-40.3-40.8c0-21.9,18.5-40.3,40.3-40.3
				s40.3,18.5,40.3,40.3C3294.2,754.7,3275.7,773.4,3253.9,773.4L3253.9,773.4z"/>
		</g>
		<g>
			<path class="st22" d="M3499.6,855c-17.9,0-34.9-3-50.4-9c-15.1-5.8-28.5-14.3-39.7-25.2c-22.7-22-35.2-53-35.2-87.2
				c0-18.3,3.4-35.4,10.1-51c6.4-14.8,15.6-27.9,27.4-38.8c23-21.3,54-33.1,87.3-33.1c33,0,63.5,11.4,86.1,32.2
				c11.4,10.5,20.4,23.1,26.6,37.2c6.5,14.8,9.8,31,9.8,48.2c0,4.7-0.3,10.4-0.6,17.6c-0.1,2.4-0.2,5-0.4,7.8l-0.2,5.3h-58
				l41.4,52.3l-3.2,3.5c-11.2,12.2-26.7,22.4-44.8,29.6C3538,851.3,3518.6,855,3499.6,855z M3460.7,759
				c7.7,15.2,23.2,23.7,43.7,23.7c18.7,0,38.7-8.2,52.3-21.3l2.5-2.4H3460.7z M3539.9,706.6c-3.6-15.3-19-25.6-39.4-25.6
				c-11.7,0-31.7,3.5-40.8,25.6H3539.9z"/>
			<path class="st1" d="M3499.2,616.1c63.7,0,116.9,44.7,116.9,112.2c0,6.2-0.5,14.3-1,25.2h-162.6c6.7,21.4,25.2,34.7,51.8,34.7
				c20.9,0,42.3-9.5,56.1-22.8l36.1,45.6c-21.9,23.8-59.9,38.5-97,38.5c-70.4,0-119.8-48.5-119.8-116
				C3379.8,661.3,3435.5,616.1,3499.2,616.1 M3452.1,712.1h94.1c-1-21.9-20.4-36.6-45.6-36.6
				C3479.7,675.5,3459.2,685.5,3452.1,712.1 M3499.2,605.1c-17.2,0-33.8,3-49.4,8.9c-15.7,5.9-29.7,14.6-41.6,25.7
				c-12.4,11.5-22,25.2-28.7,40.7c-7,16.3-10.6,34.2-10.6,53.2c0,18,3.2,35.1,9.6,50.8c6.3,15.4,15.4,29,27.2,40.4
				c11.8,11.4,25.8,20.3,41.6,26.4c16.1,6.2,33.7,9.4,52.4,9.4c19.7,0,39.8-3.8,58.2-11.1c18.9-7.4,35.1-18.1,46.8-30.9l6.4-6.9
				l-5.8-7.4l-31.4-39.7h41.3h10.5l0.5-10.5c0.1-2.8,0.2-5.4,0.4-7.8c0.3-7.3,0.6-13,0.6-17.9c0-17.9-3.4-34.9-10.2-50.4
				c-6.5-14.9-15.9-28-27.9-39.1C3565.4,617.1,3533.5,605.1,3499.2,605.1L3499.2,605.1z M3469,701.1c8.3-11.7,21.1-14.6,31.6-14.6
				c14.3,0,25.7,5.6,31.2,14.6H3469L3469,701.1z M3471,764.5h73.1c-11.7,7.9-26.3,12.7-39.7,12.7
				C3490,777.2,3478.6,772.8,3471,764.5L3471,764.5z"/>
		</g>
		<g>
			<path class="st23" d="M3820,855c-17.8,0-34.5-2.6-49.7-7.6c-15-5-28.2-12.3-39.2-21.7c-11.1-9.5-19.8-20.9-25.7-33.9
				c-6.1-13.3-9.2-28-9.2-43.6v-5.5h85.6v5.5c0,8.3,4.1,16.2,11.6,22.1c7.8,6.1,18.3,9.5,29.5,9.5c17.2,0,37.3-7.4,37.3-28.3
				c0-9.1-3.8-19.6-32.3-29l-38.8-11.8c-33.5-9-58-24.2-73.1-45.1c-11.3-15.6-17-34.1-17-54.8c0-29.9,12.5-57,35.3-76.4
				c22.2-18.9,52.6-29.4,85.7-29.4c16.2,0,31.5,2.4,45.5,7.2c14.1,4.8,26.6,11.8,37,20.9c22.1,19.3,33.7,46.5,33.7,78.6v5.5h-85.6
				v-5.5c0-19.2-12-30.6-32.1-30.6c-18.8,0-33,12.1-33,28.3c0,2.7,0.4,6.7,3.6,10.9c4.4,5.7,12.7,10.4,24.7,13.7l0.1,0l34.3,11
				c18.8,5.7,46.1,15.4,66.5,32.9c9.9,8.5,17.6,18.3,22.8,29.2c5.8,12,8.7,25.7,8.7,40.7c0,34.2-13.9,62.4-40.2,81.7
				C3883.6,845.9,3853,855,3820,855z"/>
			<path class="st1" d="M3820,510.6c62.7,0,110.8,37.6,110.8,101.2h-74.6c0-19.5-11.9-36.1-37.6-36.1c-23.3,0-38.5,15.7-38.5,33.7
				c0,6.7,1.9,21.4,32.3,29.9l34.2,10.9c46.6,14.3,94.1,38,94.1,97.4c0,70.4-60.8,101.7-120.7,101.7c-69.9,0-118.4-40.9-118.4-101.2
				h74.6c0,20.9,20.9,37.1,46.6,37.1c24.2,0,42.8-12.4,42.8-33.7c0-12.8-7.1-24.7-36.1-34.2l-39-11.9c-72.3-19.5-86-63.7-86-94.6
				C3704.5,551.9,3754.9,510.6,3820,510.6 M3820,499.6c-34.4,0-66.1,10.9-89.3,30.7c-24,20.5-37.2,49.1-37.2,80.6
				c0,9.7,1.2,19.1,3.7,28c3,10.9,7.8,20.9,14.3,30c15.8,21.9,41.3,37.8,76,47.2l38.7,11.8c28.5,9.4,28.4,19.1,28.4,23.7
				c0,6.7-2.7,12.2-7.9,16.1c-5.7,4.3-14.2,6.6-23.9,6.6c-10,0-19.3-3-26.1-8.3c-6.1-4.8-9.5-11.1-9.5-17.7v-11h-11h-74.6h-11v11
				c0,16.4,3.3,31.8,9.7,45.9c6.3,13.7,15.4,25.8,27.2,35.8c11.6,9.9,25.4,17.5,41.1,22.7c15.8,5.2,33.1,7.9,51.4,7.9
				c34.2,0,65.9-9.4,89.3-26.6c27.7-20.3,42.4-50.1,42.4-86.1c0-15.8-3.1-30.3-9.2-43c-5.5-11.5-13.7-22-24.2-31
				c-21.2-18.1-49.2-28-68.4-33.9l-34.2-10.9l-0.2-0.1l-0.2-0.1c-13.5-3.8-19.3-8.5-21.8-11.8c-2.2-2.9-2.5-5.4-2.5-7.6
				c0-11.3,9.4-22.8,27.5-22.8c24,0,26.6,17.6,26.6,25.1v11h11h74.6h11v-11c0-17-3.2-32.9-9.4-47.1c-6-13.8-14.9-25.8-26.2-35.7
				c-11-9.6-24-17-38.8-22C3852.7,502.1,3836.8,499.6,3820,499.6L3820,499.6z"/>
		</g>
		<g>
			<polygon class="st24" points="3970.4,849.3 3970.4,680.6 3930,680.6 3930,616.3 3970.4,616.3 3970.4,536.9 4051.8,536.9 
				4051.8,616.3 4098.3,616.3 4098.3,680.6 4051.8,680.6 4051.8,849.3 			"/>
			<path class="st1" d="M4046.3,542.4v79.4h46.6v53.2h-46.6v168.7h-70.4V675.1h-40.4v-53.2h40.4v-79.4H4046.3 M4057.3,531.4h-11
				h-70.4h-11v11v68.4h-29.4h-11v11v53.2v11h11h29.4v157.7v11h11h70.4h11v-11V686.1h35.6h11v-11v-53.2v-11h-11h-35.6v-68.4V531.4
				L4057.3,531.4z"/>
		</g>
		<g>
			<path class="st25" d="M4189.3,855c-16.1,0-31.2-3-45-8.9c-13.5-5.8-25.5-14.2-35.4-25.1c-10-10.9-17.7-23.9-23-38.6
				c-5.4-15.1-8.1-31.7-8.1-49.3c0-17.8,2.7-34.5,8.1-49.6c5.3-14.8,13.1-27.9,23.1-38.8c10-10.9,22-19.4,35.7-25.2
				c13.9-5.9,29.2-8.9,45.5-8.9c24.2,0,47.5,8.8,63.9,23.7v-18h81.3v233h-81.3v-19.1C4237.6,845.8,4213.9,855,4189.3,855z
				 M4206,686.7c-25.9,0-45.4,19.9-45.4,46.3c0,22.5,17.1,45.8,45.8,45.8c24.6,0,45.4-21,45.4-45.8
				C4251.8,707.1,4231.7,686.7,4206,686.7z"/>
			<path class="st1" d="M4190.3,616.1c27.1,0,54.2,11.9,69.4,32.3v-26.6h70.4v222h-70.4v-28c-15.2,20.9-42.3,33.7-70.4,33.7
				c-62.3,0-106-47.1-106-116.5C4083.3,663.2,4127.1,616.1,4190.3,616.1 M4206.5,784.4c28.5,0,50.9-24.2,50.9-51.3
				c0-29-22.8-51.8-51.3-51.8c-29.9,0-50.9,23.3-50.9,51.8C4155.1,760.1,4176,784.4,4206.5,784.4 M4190.3,605.1
				c-17,0-33.1,3.1-47.7,9.3c-14.4,6.1-27.1,15-37.6,26.5c-10.5,11.4-18.7,25.1-24.2,40.7c-5.6,15.7-8.5,33-8.5,51.4
				c0,18.3,2.8,35.5,8.4,51.2c5.5,15.5,13.6,29.1,24.1,40.5c10.5,11.5,23,20.4,37.3,26.5c14.5,6.2,30.3,9.3,47.2,9.3
				c21.7,0,42.7-6.9,59.4-18.7v2v11h11h70.4h11v-11v-222v-11h-11h-70.4h-11v11v1.1C4232.3,611.6,4211.6,605.1,4190.3,605.1
				L4190.3,605.1z M4206.5,773.4c-25.3,0-40.3-20.5-40.3-40.3c0-23.3,17.1-40.8,39.9-40.8c22.6,0,40.3,17.9,40.3,40.8
				C4246.3,754.9,4228.1,773.4,4206.5,773.4L4206.5,773.4z"/>
		</g>
		<g>
			<polygon class="st26" points="4375.9,849.3 4375.9,680.6 4335.5,680.6 4335.5,616.3 4375.9,616.3 4375.9,536.9 4457.2,536.9 
				4457.2,616.3 4503.8,616.3 4503.8,680.6 4457.2,680.6 4457.2,849.3 			"/>
			<path class="st1" d="M4451.7,542.4v79.4h46.6v53.2h-46.6v168.7h-70.4V675.1H4341v-53.2h40.4v-79.4H4451.7 M4462.7,531.4h-11
				h-70.4h-11v11v68.4H4341h-11v11v53.2v11h11h29.4v157.7v11h11h70.4h11v-11V686.1h35.6h11v-11v-53.2v-11h-11h-35.6v-68.4V531.4
				L4462.7,531.4z"/>
		</g>
		<g>
			<path class="st27" d="M4500.9,849.3v-233h81.3v233H4500.9z M4541.6,594c-12.9,0-25.2-4.8-34.5-13.5c-9.5-8.8-14.7-20.5-14.7-32.8
				c0-12.7,5.2-24.5,14.7-33.2c9.2-8.5,21.5-13.2,34.5-13.2c27.1,0,48.3,20.4,48.3,46.4C4589.8,573.2,4568.2,594,4541.6,594z"/>
			<path class="st1" d="M4541.6,506.8c23.8,0,42.8,17.6,42.8,40.9c0,22.3-19,40.9-42.8,40.9s-43.7-18.5-43.7-40.9
				C4497.8,524.4,4517.8,506.8,4541.6,506.8 M4576.7,621.8v222h-70.4v-222H4576.7 M4541.6,495.8c-14.4,0-28,5.2-38.2,14.6
				c-10.6,9.8-16.5,23-16.5,37.3c0,7.1,1.5,13.9,4.5,20.4c2.8,6.2,6.9,11.7,12,16.5c10.4,9.7,24,15,38.3,15
				c29.7,0,53.8-23.3,53.8-51.9C4595.3,518.6,4571.7,495.8,4541.6,495.8L4541.6,495.8z M4587.7,610.8h-11h-70.4h-11v11v222v11h11
				h70.4h11v-11v-222V610.8L4587.7,610.8z"/>
		</g>
		<g>
			<path class="st28" d="M4712.7,855c-16.4,0-32.3-2.9-47.4-8.7c-15-5.8-28.6-14.1-40.1-24.7c-24.6-22.7-38.2-54.1-38.2-88.5
				c0-34.6,13.6-66.2,38.2-88.9c11.6-10.7,25.1-19,40.1-24.8c15.1-5.8,31.1-8.7,47.4-8.7c16.4,0,32.3,2.9,47.5,8.7
				c15.1,5.8,28.7,14.1,40.3,24.8c24.8,22.7,38.4,54.3,38.4,88.9c0,34.4-13.7,65.8-38.4,88.5c-11.6,10.6-25.2,19-40.3,24.7
				C4745,852.1,4729,855,4712.7,855z M4712.7,686.7c-24.8,0-43.5,19.9-43.5,46.3c0,26.6,18.3,45.8,43.5,45.8
				c25.2,0,43.5-19.3,43.5-45.8C4756.1,706.6,4737.5,686.7,4712.7,686.7z"/>
			<path class="st1" d="M4712.7,616.1c63.2,0,120.7,46.6,120.7,116.9c0,69.9-57.5,116.5-120.7,116.5s-120.3-46.6-120.3-116.5
				C4592.4,662.7,4649.5,616.1,4712.7,616.1 M4712.7,784.4c27.1,0,49-20.9,49-51.3c0-30.4-21.9-51.8-49-51.8
				c-27.1,0-49,21.4-49,51.8C4663.7,763.5,4685.6,784.4,4712.7,784.4 M4712.7,605.1c-17,0-33.7,3.1-49.4,9.1
				c-15.7,6-29.8,14.7-41.9,25.9c-12.5,11.5-22.3,25.2-29.1,40.5c-7.2,16.2-10.8,33.8-10.8,52.4c0,18.5,3.7,36,10.9,52.2
				c6.8,15.3,16.6,28.9,29.1,40.4c12.1,11.1,26.2,19.8,41.9,25.8c15.7,6,32.4,9.1,49.4,9.1c17,0,33.7-3.1,49.5-9.1
				c15.7-6,29.9-14.7,42-25.8c12.6-11.5,22.4-25.1,29.3-40.4c7.3-16.2,10.9-33.7,10.9-52.2c0-18.6-3.7-36.2-10.9-52.4
				c-6.9-15.4-16.7-29-29.3-40.5c-12.1-11.1-26.3-19.8-42-25.9C4746.4,608.2,4729.7,605.1,4712.7,605.1L4712.7,605.1z M4712.7,773.4
				c-22,0-38-17-38-40.3c0-23.6,16-40.8,38-40.8s38,17.2,38,40.8C4750.6,756.4,4734.7,773.4,4712.7,773.4L4712.7,773.4z"/>
		</g>
		<g>
			<path class="st29" d="M4994.8,849.3V728.8c0-29-16.6-42-33-42c-11.2,0-37.3,4-37.3,41.6v121h-81.3v-233h81.3v22.1
				c5.8-7.2,12.6-12.4,18.5-16c12.2-7.4,27.1-11.8,39.7-11.8c60.3,0,93.4,40.4,93.4,113.9v124.8H4994.8z"/>
			<path class="st1" d="M4982.7,616.1c58.9,0,87.9,40.4,87.9,108.4v119.3h-70.4v-115c0-34.2-20.9-47.5-38.5-47.5
				c-19,0-42.8,10-42.8,47.1v115.5h-70.4v-222h70.4v39.9C4926.6,630.4,4961.8,616.1,4982.7,616.1 M4982.7,605.1
				c-13.6,0-29.5,4.7-42.5,12.6c-3.7,2.2-7.1,4.6-10.2,7.2v-3.2v-11h-11h-70.4h-11v11v222v11h11h70.4h11v-11V728.3
				c0-29.8,17.3-36.1,31.8-36.1c12.7,0,27.5,9.6,27.5,36.5v115v11h11h70.4h11v-11V724.5c0-36.9-8.1-66-24.2-86.5
				c-8.5-10.8-19.1-19.1-31.7-24.6C5013.2,607.9,4998.7,605.1,4982.7,605.1L4982.7,605.1z"/>
		</g>
	</g>
</g>
</svg>
