<?xml version="1.0" encoding="utf-8"?>
<!-- Generator: Adobe Illustrator 26.2.1, SVG Export Plug-In . SVG Version: 6.00 Build 0)  -->
<svg version="1.1" id="Calque_1" xmlns="http://www.w3.org/2000/svg" xmlns:xlink="http://www.w3.org/1999/xlink" x="0px" y="0px"
	 viewBox="0 0 61.7 75.9" style="enable-background:new 0 0 61.7 75.9;" xml:space="preserve">
<style type="text/css">
	.st0{fill:#B17E4F;}
	.st1{fill:#FFDCA4;}
	.st2{fill:#FF1A2B;}
	.st3{fill:#0D124E;}
	.st4{fill:#FF7F15;}
	.st5{fill:#F7D011;}
	.st6{fill:#F3C70E;}
	.st7{opacity:0.6;}
	.st8{fill:#FFFFFF;}
	.st9{opacity:0.2;}
	.st10{fill:#FC8401;}
	.st11{fill:#FEFFFF;}
	.st12{fill:#234078;}
	.st13{filter:url(#Adobe_OpacityMaskFilter);}
	.st14{filter:url(#Adobe_OpacityMaskFilter_00000110431719218540314650000002058649967599307442_);}
	.st15{mask:url(#SVGID_1_);fill:url(#SVGID_00000151519605526056808700000011508569693847140236_);}
	.st16{opacity:0.6;fill:url(#SVGID_00000163759749661910377650000010714571054189309081_);}
</style>
<g>
	<g>
		<g>
			<g>
				<path class="st0" d="M23.3,26.2c-3.7,3-4.3,8.6-1.6,13.1c0.3,0.5,0.6,1,1,1.5c2.3,2.8,5.5,4.2,8.6,4.3c2.1,0,4.1-0.6,5.8-2
					c2.1-1.7,3.2-4.3,3.3-6.9c0.1-2.6-0.8-5.3-2.7-7.6c-1.8-2.1-4.1-3.5-6.4-4c-1.2-0.3-2.5-0.3-3.7-0.1c-0.5,0.1-1.1,0.2-1.6,0.4
					C24.9,25.1,24.1,25.6,23.3,26.2z"/>
			</g>
			<g>
				<path class="st1" d="M23.3,26.2c-4.1,3.4-4.4,9.9-0.6,14.5c2.3,2.8,5.5,4.2,8.6,4.3c1.9-2.6,2.4-6.2,1.8-9.4
					c-0.7-3.6-2.8-5-4.8-8.1c-0.3-0.5-0.4-2.7-0.8-3.2C25.9,24.6,24.5,25.2,23.3,26.2z"/>
			</g>
			<g>
				<g>
					<path class="st2" d="M19.1,55.5c9.9,4,3.9,14.2,1.4,17.7c-0.5,0.7-1.4,0.7-1.9,0.1C16,69.9,9.5,60.1,19.1,55.5z"/>
				</g>
				<g>
					<path class="st3" d="M18.3,73.6c-2.2-2.7-5.6-8.1-4.5-12.8c0.6-2.4,2.3-4.4,5.1-5.7c0.1-0.1,0.3-0.1,0.4,0
						c2.9,1.2,4.7,3,5.4,5.4c1.4,4.6-1.8,10.1-3.8,13c-0.3,0.4-0.8,0.7-1.3,0.7C19.1,74.2,18.6,74,18.3,73.6
						C18.3,73.6,18.3,73.6,18.3,73.6z M19.1,56.1c-2.5,1.2-4,2.9-4.5,5c-1,4.5,2.7,9.9,4.3,12c0.1,0.2,0.4,0.3,0.6,0.3
						c0.2,0,0.4-0.1,0.6-0.3c1.5-2.2,5-7.8,3.7-12.2c-0.2-0.8-0.6-1.6-1.2-2.2C21.8,57.5,20.6,56.7,19.1,56.1z"/>
				</g>
				<g>
					<path class="st4" d="M19.2,61.2c5.3,2.2,2.1,7.6,0.8,9.5c-0.2,0.4-0.8,0.4-1,0C17.5,68.9,14,63.7,19.2,61.2z"/>
				</g>
				<g>
					<path class="st5" d="M19.3,63.4c2.8,1.2,1.1,4.1,0.4,5.1c-0.1,0.2-0.4,0.2-0.5,0C18.4,67.5,16.6,64.7,19.3,63.4z"/>
				</g>
				<g>
					<path class="st6" d="M13,55.7l-1.8,4.5c0,0,2.6,3.9,8.2,3.8c0.5,0,0.9-0.1,1.3-0.1c4.7-0.7,6.7-4.1,6.7-4.1L26,57l-0.7-1.6
						l-1.4,0l-4.7,0.1L13,55.7z"/>
				</g>
				<g class="st7">
					<path class="st8" d="M25.7,59.6c0,0-2.3,3.4-5.1,4.2c4.7-0.7,6.7-4.1,6.7-4.1L26,57l-0.7-1.6l-1.4,0L25.7,59.6z"/>
				</g>
				<g class="st9">
					<path class="st3" d="M13,55.7l-1.8,4.5c0,0,2.6,3.9,8.2,3.8c-3.8-0.7-3.6-5.3,0.5-4.9C24,59.4,26,57,26,57l-0.7-1.6l-6.1,0.2
						L13,55.7z"/>
				</g>
				<g>
					<path class="st3" d="M10.8,60.5c-0.1-0.1-0.1-0.3,0-0.4l1.8-4.5c0.1-0.2,0.2-0.3,0.4-0.3l12.2-0.3c0.2,0,0.4,0.1,0.4,0.3
						l2.1,4.4c0.1,0.1,0.1,0.3,0,0.4c-0.1,0.2-2.5,4.3-8.3,4.5c-4.7,0.1-7.4-2.5-8.2-3.5C10.9,60.7,10.8,60.5,10.8,60.5z M24.9,55.8
						l-11.6,0.3l-1.6,4c0.6,0.8,3,3.5,7.6,3.4c4.6-0.1,6.9-3,7.4-3.8L24.9,55.8z"/>
				</g>
				<g>
					<path class="st10" d="M12.5,53.1c0,1,0.4,2,1,2.7c0.8,1,2.1,1.7,3.6,1.6l1.2,0l3.1-0.1c2.5-0.1,4.4-2.1,4.4-4.6
						c0-0.7-0.2-1.4-0.5-1.9c-0.1-0.3-0.3-0.5-0.5-0.8c-0.8-1-2.1-1.7-3.6-1.6l-4.3,0.1C14.4,48.6,12.4,50.6,12.5,53.1z"/>
				</g>
				<g class="st9">
					<path class="st3" d="M12.5,53.1c0,1,0.4,2,1,2.7c0.8,1,2.1,1.7,3.6,1.6l1.2,0c0,0-3-2.5,2-2.5c5,0,4.9-4.2,5-4.1
						c-0.1-0.3-0.3-0.5-0.5-0.8c-0.8-1-2.1-1.7-3.6-1.6l-4.3,0.1C14.4,48.6,12.4,50.6,12.5,53.1z"/>
				</g>
				<g class="st7">
					<path class="st8" d="M15.7,57.3l4.3-0.1c2.5-0.1,4.4-2.1,4.4-4.6l0,0c-0.1-1.8-1.2-3.3-2.7-4c2.2,0.2,4,2,4.1,4.3l0,0
						c0.1,2.5-1.9,4.5-4.4,4.6l-4.3,0.1c-0.7,0-1.3-0.1-1.9-0.4C15.4,57.3,15.6,57.3,15.7,57.3z"/>
				</g>
				<g>
					<path class="st3" d="M12,53.1c-0.1-2.7,2.1-5,4.8-5.1l4.3-0.1c1.3,0,2.6,0.4,3.5,1.4c1,0.9,1.5,2.1,1.5,3.5
						c0.1,2.7-2.1,5-4.8,5.1l-4.3,0.1l0,0c-1.6,0-3-0.7-4-1.8C12.5,55.3,12,54.3,12,53.1z M21.4,56.9c2.2-0.1,4-1.9,3.9-4.1
						c0-1.1-0.5-2.1-1.3-2.8c-0.8-0.7-1.8-1.1-2.9-1.1L16.8,49c-2.2,0.1-4,1.9-3.9,4.1c0.1,2.2,1.9,4,4.1,3.9L21.4,56.9z"/>
				</g>
				<g>
					<g>
						<g>
							<path class="st6" d="M9.6,13.4C6.4,22.9,7.3,39.2,7.8,46c0.2,2.2,1.3,4.1,3.2,5.3c4.5,2.9,8.1,2.4,8.1,2.4s2.8,0.2,6.5-1.9
								l0,0c0.5-0.3,0.9-0.6,1.4-0.9c1.8-1.3,2.8-3.3,2.9-5.5c0,0,0,0,0,0c0.2-6.8,0.2-23.2-3.6-32.4c-2.2-5.3-4.4-7.9-6-9.2
								c-0.5-0.4-0.9-0.6-1.2-0.8c-0.5-0.2-1-0.3-1.5-0.3c-0.5,0-0.9,0.2-1.3,0.4C14.7,4,11.9,6.5,9.6,13.4z"/>
						</g>
					</g>
					<g>
						<path class="st3" d="M7.8,46c-0.5-6.6-1.5-23.1,1.8-32.6c2.4-7.1,5.2-9.6,6.7-10.4c0.4-0.2,0.9-0.4,1.3-0.4
							c0.5,0,1,0.1,1.5,0.3c0.4,0.2,0.8,0.5,1.2,0.8c1.5,1.2,3.8,3.8,6.1,9.2c3.8,9.3,3.7,25.7,3.6,32.4l0,0
							c-0.1,2.2-1.1,4.2-2.9,5.5c-0.5,0.3-0.9,0.6-1.4,0.9c-3.6,2.1-6.4,2-6.6,1.9c-0.2,0-3.7,0.4-8.1-2.4c-0.6-0.4-1.1-0.9-1.6-1.4
							C8.4,48.8,7.9,47.4,7.8,46z M29.8,45.4C30,38.7,30,22.2,26.3,13c-2.2-5.5-4.5-8-6-9.2C19.8,3.5,19.4,3.2,19,3
							c-0.4-0.2-1-0.3-1.5-0.3c-0.4,0-0.9,0.2-1.3,0.4C14.8,3.9,12,6.4,9.6,13.4l0,0C6.4,22.9,7.3,39.3,7.9,46
							c0.2,2.1,1.3,4.1,3.1,5.2c4.5,2.9,8,2.4,8.1,2.4l0,0c0,0,2.9,0.2,6.5-1.9c0.5-0.3,0.9-0.6,1.4-0.9
							C28.7,49.5,29.8,47.5,29.8,45.4L29.8,45.4z"/>
					</g>
				</g>
				<g>
					<g>
						<path class="st10" d="M9.6,13.2c9.8,6,16.7-0.5,16.7-0.5c-2.7-6.8-5.6-9.2-7.3-10c-0.9-0.5-1.9-0.4-2.8,0.1
							C14.7,3.8,12,6.3,9.6,13.2z"/>
					</g>
				</g>
				<g class="st7">
					<path class="st8" d="M17.6,2.6C17.6,2.6,17.6,2.6,17.6,2.6c0,0,8,5.9,9.2,25.8c0.7,11.6-0.2,19.1-1.1,23.3
						c0.5-0.3,0.9-0.6,1.4-0.9c1.8-1.3,2.8-3.3,2.9-5.5c0,0,0,0,0,0c0.2-6.8,0.2-23.2-3.6-32.4c-2.2-5.3-4.4-7.9-6-9.2
						c-0.5-0.4-0.9-0.6-1.2-0.8C18.6,2.7,18.1,2.6,17.6,2.6z"/>
				</g>
				<g>
					<path class="st3" d="M7.4,46L7.4,46c-0.5-6.7-1.5-23.2,1.8-32.7c2.3-6.8,5-9.6,6.9-10.6C17,2,18.2,2,19.3,2.5
						c1.9,1,4.8,3.5,7.5,10.2c3.8,9.4,3.8,25.9,3.6,32.6c-0.1,2.3-1.2,4.5-3.1,5.8c-4.2,3.1-7.7,3-8.2,2.9c-0.5,0.1-4,0.3-8.4-2.5
						c-0.6-0.4-1.2-0.9-1.7-1.5C8.1,49,7.5,47.5,7.4,46z M18.9,3.4C18.1,3,17.2,3,16.5,3.4c-1.4,0.8-4.1,3.2-6.5,10.1
						c-3.2,9.4-2.3,25.8-1.7,32.4c0,0,0,0,0,0c0.2,2,1.3,3.9,2.9,4.9c4.3,2.8,7.7,2.4,7.8,2.3c0,0,0.1,0,0.1,0c0,0,3.5,0.3,7.6-2.8
						c1.6-1.2,2.6-3.1,2.7-5.1c0.2-6.6,0.2-23-3.5-32.2c-1.4-3.4-2.8-5.7-4-7.2C20.6,4.5,19.6,3.7,18.9,3.4z"/>
				</g>
				<g>
					<path class="st10" d="M12.3,31.2c0.1,3.4,3,6.1,6.4,6c0.8,0,1.5-0.2,2.1-0.4c2.4-0.9,4-3.3,3.9-6c-0.1-3.4-3-6.1-6.4-6
						c-0.5,0-1,0.1-1.5,0.2C14.1,25.8,12.2,28.3,12.3,31.2z"/>
				</g>
				<g class="st7">
					<path class="st8" d="M23.6,31.2c-0.1-3.4-3.2-5.8-6.6-5.7c-0.5,0-1,0.1-1.5,0.2c-0.1,0-0.2,0.1-0.3,0.1
						c0.6-0.4,1.2-0.7,1.9-0.9c0.5-0.1,1-0.2,1.5-0.2c3.4-0.1,6.3,2.6,6.4,6c0.1,2.7-1.6,5-3.9,6c-0.1,0-0.2,0.1-0.3,0.1
						C22.3,35.6,23.6,33.3,23.6,31.2z"/>
				</g>
				<g>
					<path class="st3" d="M11.8,31.2c-0.1-3.7,2.8-6.8,6.5-6.9c3.7-0.1,6.8,2.8,6.9,6.5c0.1,3.7-2.8,6.8-6.5,6.9
						c-1.8,0-3.5-0.6-4.8-1.8c-0.2-0.2-0.4-0.4-0.6-0.6C12.4,34.1,11.9,32.7,11.8,31.2z M18.3,25.3c-3.2,0.1-5.7,2.7-5.6,5.9l0,0
						c0,1.5,0.7,3,1.8,4c1.1,1.1,2.6,1.6,4.1,1.6c3.2-0.1,5.7-2.7,5.6-5.9c0-1.3-0.5-2.5-1.3-3.5C21.9,26,20.2,25.2,18.3,25.3z"/>
				</g>
				<g>
					<g>
						<circle class="st6" cx="18.5" cy="31" r="3.9"/>
					</g>
					<g>
						<path class="st3" d="M14.6,31.1c0-1,0.4-2,1.1-2.8c0.7-0.8,1.7-1.2,2.7-1.2c2.2-0.1,4,1.6,4,3.8c0,1-0.4,2-1.1,2.8
							c-0.7,0.8-1.7,1.2-2.7,1.2c-1,0-2-0.4-2.8-1.1c-0.1-0.1-0.2-0.2-0.3-0.4C14.9,32.8,14.6,32,14.6,31.1z M18.4,27.2
							c-1,0-2,0.4-2.6,1.2c-0.7,0.7-1.1,1.7-1,2.7l0,0c0,1,0.4,2,1.2,2.6c0.7,0.7,1.7,1.1,2.7,1c1,0,2-0.4,2.6-1.2
							c0.7-0.7,1.1-1.7,1-2.7c0-0.9-0.3-1.7-0.9-2.3C20.7,27.8,19.6,27.2,18.4,27.2z"/>
					</g>
				</g>
				<g>
					<path class="st3" d="M14.2,31.1c0-1.2,0.4-2.2,1.2-3.1s1.9-1.3,3-1.3c2.4-0.1,4.4,1.8,4.4,4.2c0,1.2-0.4,2.2-1.2,3.1
						c-0.8,0.8-1.9,1.3-3,1.3c-1.2,0-2.2-0.4-3.1-1.2c-0.1-0.1-0.3-0.3-0.4-0.4C14.5,33,14.2,32.1,14.2,31.1z M18.4,27.6
						c-0.9,0-1.7,0.4-2.4,1.1c-0.6,0.7-1,1.5-0.9,2.4l0,0c0,0.9,0.4,1.7,1.1,2.4c0.7,0.6,1.5,1,2.4,0.9c0.9,0,1.7-0.4,2.4-1.1
						c0.6-0.7,1-1.5,0.9-2.4c0-0.8-0.3-1.5-0.8-2.1C20.5,28.1,19.5,27.6,18.4,27.6z"/>
				</g>
				<g>
					<path class="st3" d="M9.2,13.1c2.3-6.8,5-9.6,6.9-10.6c1-0.6,2.2-0.6,3.2-0.1c1.9,1,4.8,3.5,7.5,10.2c0.1,0.2,0,0.4-0.1,0.5
						c-0.1,0.1-1.8,1.7-4.9,2.6c-2.8,0.8-7.2,1.1-12.4-2.1c0,0-0.1-0.1-0.1-0.1C9.2,13.4,9.1,13.2,9.2,13.1z M18.9,3.2
						c-0.7-0.4-1.6-0.4-2.4,0.1c-1.4,0.8-4,3.1-6.4,9.8c3.8,2.3,7.6,2.9,11.3,1.8c2.2-0.6,3.7-1.7,4.3-2.2
						C23.1,6.1,20.3,3.9,18.9,3.2z"/>
				</g>
				<g>
					<g class="st9">
						<path class="st3" d="M12.1,51.5c-1.8-1.2-3-3.1-3.2-5.3c-0.6-6.8-1.5-23.1,1.8-32.6c2.4-6.9,5.1-9.5,6.7-10.4
							c0.4-0.3,0.9-0.4,1.4-0.4c0.1,0,0.2,0.1,0.3,0.1c0.4,0.2,0.8,0.4,1.2,0.8c0,0-10.7,9.7-9.7,28.8c1.3,24.1,19.3,12.8,19.3,12.8
							s0,0,0,0c-0.1,2.2-1.1,4.2-2.9,5.5c-4.4,3.2-8,2.9-8,2.9s-0.7,0.1-1.9-0.1C15.7,53.3,14,52.7,12.1,51.5z"/>
					</g>
				</g>
				<g class="st9">
					<path class="st3" d="M12.3,31.2c0.1,3.4,3,6.1,6.4,6c0.8,0,1.5-0.2,2.1-0.4c-6.4-4.9-4-11.8-4-11.8
						C14.1,25.8,12.2,28.3,12.3,31.2z"/>
				</g>
				<g>
					
						<ellipse transform="matrix(0.7726 -0.6349 0.6349 0.7726 -14.7812 19.3508)" class="st8" cx="19.6" cy="30.3" rx="1.3" ry="1.7"/>
				</g>
			</g>
			<g>
				<g>
					<path class="st0" d="M37.9,45.8L36,47.6c4,5.4,9.5,1.6,12.2-0.5c0.9-0.7,2-0.8,3-0.6c1.8,0.3,3.5,1.6,5,2.2
						c0.9,0.4,2.1,0,2.8-0.7c0.2-0.2,0.4-0.4,0.5-0.7c0.7-1.4,0.2-3.5-3.2-5.4c-1.7-0.9-3.3-1-4.8-0.6c-4.2,1.1-7.7,5.7-9.8,6
						c-0.3,0-0.5,0.1-0.8,0.1c-0.6,0-1.1-0.1-1.5-0.3C38.3,46.6,37.9,45.8,37.9,45.8z"/>
				</g>
				<g>
					<path class="st1" d="M49.6,44.3c0.1,1.4,1.3,1.9,2.1,2.2c1.7,0.3,3.3,1.5,4.7,2.1c2.4,1,6-3.1,0.1-6.5c-1.6-0.9-3.1-1-4.6-0.6
						C51.9,41.5,49.4,41.9,49.6,44.3z"/>
				</g>
				<g class="st7">
					<path class="st8" d="M40.9,47.3c1,0.3,2.8,0,5.9-2.3c5.9-4.4,8.8-2.3,10.7-0.9c1.2,0.9,1.4,2.6,1.4,3.8
						c0.2-0.2,0.4-0.4,0.5-0.7c0.7-1.4,0.2-3.5-3.2-5.4c-1.7-0.9-3.3-1-4.8-0.6c-4.2,1.1-7.7,5.7-9.8,6
						C41.4,47.3,41.1,47.3,40.9,47.3z"/>
				</g>
				<g class="st9">
					<path class="st3" d="M37.9,45.8L36,47.6c4,5.4,9.5,1.6,12.2-0.5c0.9-0.7,2-0.8,3-0.6c1.8,0.3,3.5,1.6,5,2.2
						c1.2,0.5,2.7-0.2,3.2-1.4c-0.1,0-1.2,0.9-3.3-0.2c-2.1-1.1-4.8-4.2-8.8-1c-4,3.2-6.1,3.1-7.1,2.7c-0.8-0.3-1.2-1-0.9-1.8
						C38.3,46.6,37.9,45.8,37.9,45.8z"/>
				</g>
				<g>
					<path class="st3" d="M35.6,47.9c-0.1-0.2-0.1-0.5,0.1-0.6l1.9-1.8c0.1-0.1,0.3-0.1,0.4-0.1c0.1,0,0.3,0.1,0.3,0.3
						c0,0,0.7,1.5,3.3,1.1c0.8-0.1,2-1.1,3.3-2.1c1.8-1.5,4-3.3,6.5-3.9c1.8-0.5,3.5-0.2,5.2,0.7c3.7,2.1,4.1,4.5,3.3,6.1
						c-0.7,1.5-2.4,2.2-3.8,1.6c-0.5-0.2-1-0.5-1.6-0.8c-1.1-0.6-2.2-1.2-3.3-1.4c-1-0.2-1.9,0-2.6,0.5c-2.1,1.6-5.2,3.7-8.4,3.3
						c-1.6-0.2-3-1.1-4.2-2.5C35.8,48.1,35.7,48,35.6,47.9z M56,42.2c-1.4-0.8-2.9-1-4.5-0.6c-2.3,0.6-4.3,2.2-6.1,3.7
						c-1.5,1.2-2.7,2.2-3.7,2.3c-2.2,0.3-3.4-0.6-3.9-1.2l-1.2,1.1c0,0,0,0,0,0c1,1.3,2.2,2,3.6,2.2c2.8,0.4,5.7-1.6,7.7-3.1
						c1-0.7,2.1-1,3.4-0.7c1.2,0.2,2.4,0.9,3.5,1.5c0.6,0.3,1.1,0.6,1.5,0.8c0.9,0.4,2.1-0.1,2.6-1.2c0.4-0.8,0.3-1.9-0.6-3
						C57.9,43.5,57.1,42.8,56,42.2z"/>
				</g>
			</g>
			<g>
				<g>
					<g>
						<path class="st0" d="M31.2,24.5l3.9,9.3c-0.2,0-0.3,0-0.4-0.1c-0.1,0-0.2,0-0.3-0.1c0,0,0,0,0,0c-4.5-0.9-7.6-5-10-5.6
							c0,0,0,0,0,0c-0.6-0.2-1.2-0.1-1.8,0.4c-0.3,0.3-0.5,0.7-0.6,1.1c-0.2,1.8,1.4,4.8,4.6,7.1c3.1,2.3,7.5,2.6,9.1,2.7l0,0l0,0
							c0.4,0,0.7,0,0.7,0l0.1,1l0.1,0.9c-0.3,0.1-0.5,0.2-0.8,0.3c-6.7,2.2-9.1-1.5-12.4-2.2c-0.6-0.1-1.1-0.1-1.7-0.1
							c-0.7,0.1-1.3,0.4-1.9,0.7c-1,0.6-1.6,1.5-1.8,2.4c-0.1,0.4,0,0.8,0.1,1.2c0.9,1.8,3.7,1,3.7,1s3.2,5.3,9.6,5.3
							c0.7,0,1.3-0.1,1.9-0.2c0,0,0,0,0,0c2.5-0.6,4.4-2.1,5.7-3.9l0,0c1.4-1.9,2.2-4.1,2.3-5.5c0.1-1.2,0.3-2.5,0.6-3.8
							c0.5-2,1-3.7,1-3.7l-1-1.1L30.2,18l-1.1,1.5L31.2,24.5z"/>
					</g>
				</g>
				<g class="st7">
					<path class="st8" d="M42.4,31.9c-1.1,2-1.5,3.6-1.7,5.1c-0.7,4.7-0.9,10.6-7.2,12.6c2.5-0.6,4.4-2.1,5.7-3.9l0,0
						c1.4-1.9,2.2-4.1,2.3-5.5c0.1-3,1.7-7.4,1.7-7.4L42.4,31.9z"/>
				</g>
				<g class="st7">
					<path class="st8" d="M18,42.4c3.6-4.3,7.2-0.6,10.9,0.6c4,1.3,6.8-1.5,6.8-1.5c-6.7,2.2-9.1-1.5-12.4-2.2
						c-1.4-0.3-2.6,0-3.5,0.6C18.8,40.6,18.2,41.5,18,42.4z"/>
				</g>
				<g class="st7">
					<path class="st8" d="M22,29.6c1.1-1.1,3-0.1,6.2,2.2c4.1,2.9,6.1,1.9,6.2,1.8c-4.5-0.9-7.6-5-10-5.6c0,0,0,0,0,0
						c-0.6-0.2-1.2-0.1-1.8,0.4C22.2,28.7,22,29.1,22,29.6z"/>
				</g>
				<g class="st9">
					<path class="st3" d="M18.2,43.6c0.9,1.8,3.7,1,3.7,1s3.2,5.3,9.6,5.3c3.4,0,6-1.9,7.6-4.1l0,0c0,0-7.4,6.9-15.5-3
						c0,0-5.5,1.2-3.8-2.7C18.4,40.9,17.6,42.5,18.2,43.6z"/>
				</g>
				<g>
					<path class="st3" d="M35.1,33.6c-0.7-0.3-1.3-0.6-2-0.8c-0.6-0.3-1.3-0.5-1.9-0.9c-0.6-0.3-1.2-0.7-1.8-1.1
						c-0.6-0.4-1.2-0.8-1.7-1.3c-0.6-0.4-1.2-0.9-1.8-1.3c-0.3-0.2-0.7-0.4-1-0.5c-0.4-0.1-0.8-0.3-1.2-0.2c-0.2,0-0.5,0.1-0.7,0.1
						c-0.2,0.1-0.4,0.2-0.6,0.3l-0.1,0.1l-0.1,0.1c0,0-0.1,0.1-0.1,0.1c0,0-0.1,0.1-0.1,0.1c-0.1,0.2-0.2,0.4-0.3,0.6
						c-0.1,0.4-0.1,0.9-0.1,1.3c0,0.4,0.1,0.8,0.3,1.2c0.3,0.7,0.6,1.4,1,2c0.4,0.6,0.9,1.2,1.4,1.7c0.5,0.5,1.1,1,1.7,1.5
						c0.1,0.1,0.3,0.2,0.4,0.3l0.5,0.3l0.2,0.2c0.1,0.1,0.2,0.1,0.2,0.1l0.5,0.3l0.1,0.1c0,0,0.1,0,0.1,0.1l0.3,0.1
						c0.2,0.1,0.3,0.2,0.5,0.2l0.5,0.2l0.3,0.1c0.1,0,0.2,0.1,0.3,0.1l0.5,0.2c0.2,0.1,0.4,0.1,0.5,0.1c0.4,0.1,0.7,0.2,1.1,0.3
						c0.2,0,0.4,0.1,0.5,0.1c0.2,0,0.4,0.1,0.5,0.1c0.2,0,0.4,0.1,0.5,0.1l0.5,0.1c0.4,0,0.7,0.1,1.1,0c0.4,0,0.7-0.1,1.1-0.3
						c0.1,0,0.1-0.1,0.1-0.2c0,0,0-0.1-0.1-0.1l0,0c-0.4-0.2-0.7-0.3-1.1-0.3c-0.4-0.1-0.7-0.1-1.1-0.1l-0.5,0c-0.2,0-0.4,0-0.5-0.1
						c-0.2,0-0.3-0.1-0.5-0.1c-0.2,0-0.3-0.1-0.5-0.1c-0.3-0.1-0.7-0.1-1-0.2c-0.2,0-0.3-0.1-0.5-0.1l-0.5-0.2
						c-0.1,0-0.2-0.1-0.3-0.1l-0.2-0.1l-0.5-0.2c-0.2-0.1-0.3-0.1-0.5-0.2l-0.2-0.1c0,0-0.1,0-0.1-0.1l-0.1-0.1l-0.5-0.3
						c-0.1,0-0.2-0.1-0.2-0.1l-0.2-0.1l-0.4-0.3c-0.1-0.1-0.3-0.2-0.4-0.3c-0.6-0.4-1.1-0.9-1.6-1.4c-0.5-0.5-0.9-1-1.3-1.6
						c-0.4-0.6-0.7-1.2-0.9-1.8c-0.1-0.3-0.2-0.6-0.2-1c0-0.3,0-0.6,0.1-0.9c0-0.1,0.1-0.2,0.2-0.4c0,0,0,0,0.1-0.1c0,0,0,0,0.1-0.1
						l0.1-0.1l0.1-0.1c0.2-0.2,0.5-0.3,0.8-0.3c0.3,0,0.6,0.1,0.9,0.2c0.3,0.1,0.6,0.3,0.9,0.5c0.6,0.4,1.2,0.8,1.7,1.2
						c0.6,0.4,1.2,0.9,1.8,1.3c0.6,0.4,1.2,0.8,1.9,1.2c0.6,0.4,1.3,0.7,2,0.9c0.7,0.2,1.5,0.4,2.2,0.2c0.1,0,0.1-0.1,0.1-0.2
						C35.2,33.7,35.2,33.6,35.1,33.6L35.1,33.6z"/>
				</g>
				<g>
					<path class="st3" d="M18.1,44.3c1,1.2,2.8,1,3.6,0.8c0.8,1.1,4,5.2,9.9,5.2c3.7,0,6.2-2.1,7.7-3.9c1.8-2.2,2.6-4.7,2.7-6.2
						c0.1-2.9,1.6-7.3,1.6-7.3c0.1-0.2,0-0.3-0.1-0.5L30.5,17.7c-0.1-0.1-0.2-0.2-0.4-0.2c-0.1,0-0.3,0.1-0.4,0.2l-1.1,1.5
						c-0.1,0.2-0.1,0.5,0.1,0.6c0.2,0.1,0.5,0.1,0.6-0.1l0.7-1.1l12.3,14.1c-0.3,1-1.5,4.7-1.6,7.3c-0.1,2.6-3.1,9.2-9.4,9.2
						c-6.1,0-9.2-5-9.3-5c-0.1-0.2-0.3-0.3-0.5-0.2c0,0-2.4,0.7-3.1-0.7c-0.3-0.6-0.1-1.3,0.5-2.1c0.7-0.9,2.2-1.9,4.2-1.5
						c0.9,0.2,1.8,0.7,2.8,1.1c1,0.5,2.2,1.2,3.6,1.5c0.2,0.1,0.5-0.1,0.6-0.3c0.1-0.2-0.1-0.5-0.3-0.6c-1.3-0.3-2.4-0.9-3.4-1.4
						c-1-0.5-1.9-1-3-1.2c-2.3-0.5-4.2,0.7-5.1,1.8c-0.8,1-1,2.2-0.6,3C17.9,44,18,44.1,18.1,44.3z"/>
				</g>
				<g>
					<path class="st3" d="M36.5,41.1c-0.6,0-1.1,0.1-1.6,0.2c-0.1,0-0.3,0.1-0.4,0.1l-0.4,0.1c-0.1,0-0.3,0.1-0.4,0.1l-0.4,0.1
						c-0.5,0.1-1.1,0.1-1.6,0.1c-0.5,0-1.1-0.1-1.6-0.2l0,0c-0.2,0-0.5,0.1-0.5,0.3c0,0.2,0.1,0.5,0.3,0.5c0.6,0.1,1.1,0.2,1.7,0.2
						c0.6,0,1.1,0,1.7-0.1l0.4-0.1c0.1,0,0.3-0.1,0.4-0.1l0.4-0.1c0.1,0,0.3-0.1,0.4-0.1c0.5-0.2,1.1-0.4,1.5-0.8
						c0.1-0.1,0.1-0.2,0-0.2C36.6,41.1,36.5,41.1,36.5,41.1L36.5,41.1z"/>
				</g>
				<g class="st9">
					<path class="st3" d="M29.1,19.5l2.1,5c-1.2-0.3-2.5-0.3-3.7-0.1c-0.5,0.1-1.1,0.2-1.6,0.4c0.7,1.1,1.4,2.2,2.3,3.2
						c2,2.4,4.2,4.3,6.5,5.7c1.9,1.1,3.8,1.9,5.6,2.4c0.6,0.1,1.1,0.2,1.7,0.3c0.5-2,1-3.7,1-3.7l-1-1.1L30.2,18L29.1,19.5z"/>
				</g>
			</g>
			<g>
				<g>
					<path class="st0" d="M27,11.4c-0.6,0.8-0.9,1.8-0.7,2.8c0.1,0.9,0.6,1.7,1.4,2.3c1.6,1.2,3.9,1,5.1-0.6c1.2-1.6,1-3.9-0.6-5.1
						c-0.6-0.4-1.2-0.7-1.9-0.8C29.1,9.9,27.8,10.4,27,11.4z"/>
				</g>
				<g>
					<path class="st3" d="M26.7,11.1c1.4-1.8,4-2.1,5.7-0.7c1.8,1.4,2.1,4,0.7,5.7c-1.4,1.8-4,2.1-5.7,0.7c-0.2-0.2-0.5-0.4-0.6-0.6
						C25.6,14.8,25.5,12.6,26.7,11.1z M31.9,11.1c-1.4-1.1-3.4-0.8-4.4,0.5c-1.1,1.4-0.8,3.4,0.5,4.4c1.4,1.1,3.4,0.8,4.4-0.5
						c0.9-1.2,0.9-2.8,0-4C32.2,11.4,32,11.3,31.9,11.1z"/>
				</g>
				<g>
					<g>
						<circle class="st11" cx="29.9" cy="13.6" r="1.5"/>
					</g>
					<g>
						<path class="st3" d="M28.7,12.7c0.3-0.3,0.6-0.5,1.1-0.6c0.4-0.1,0.8,0.1,1.2,0.3c0.7,0.5,0.8,1.5,0.3,2.2
							c-0.5,0.7-1.5,0.8-2.2,0.3c-0.1-0.1-0.2-0.2-0.2-0.2C28.2,14.1,28.2,13.2,28.7,12.7z M30.8,12.5c-0.3-0.2-0.7-0.3-1.1-0.3
							c-0.4,0-0.7,0.2-1,0.5c-0.5,0.6-0.4,1.6,0.2,2.1c0.6,0.5,1.6,0.4,2.1-0.2c0.4-0.5,0.4-1.3,0-1.8C31,12.6,30.9,12.5,30.8,12.5z
							"/>
					</g>
				</g>
				<g>
					<path class="st3" d="M28.4,12.4c0.3-0.4,0.8-0.7,1.3-0.7c0.5-0.1,1,0.1,1.4,0.4c0.8,0.7,1,1.9,0.3,2.7c-0.7,0.8-1.9,1-2.7,0.3
						c-0.1-0.1-0.2-0.2-0.3-0.3C27.8,14.2,27.8,13.2,28.4,12.4z M30.6,12.8c-0.2-0.2-0.5-0.3-0.8-0.2c-0.3,0-0.6,0.2-0.7,0.4
						c-0.4,0.5-0.3,1.2,0.2,1.5c0.5,0.4,1.2,0.3,1.5-0.2c0.3-0.4,0.3-1,0-1.4C30.7,12.9,30.6,12.8,30.6,12.8z"/>
				</g>
				<g class="st9">
					<path class="st3" d="M26.3,14.1c0.1,0.9,0.6,1.7,1.4,2.3c1.6,1.2,3.9,1,5.1-0.6c1.2-1.6,1-3.9-0.6-5.1
						c-0.6-0.4-1.2-0.7-1.9-0.8c-0.6,1-1.3,2.4-1.3,3.3C29,13.3,27.7,13.3,26.3,14.1z"/>
				</g>
				<g>
					<path class="st0" d="M24.7,18c-1.8,3.7,1.9,9.9,8.7,13.7c3.2,1.8,6.9,2.4,10.3,1.7c0,0,0,0,0,0c1.2-0.2,2.3-0.6,3.4-1.2
						c0,0,0,0,0,0c1.5-0.8,2.9-1.9,4.1-3.4c0.6-0.8,1.1-1.7,1.6-2.6c3.6-7.8,0.7-15.5-7.7-19.2c-1.9-0.8-3.9-1.3-5.9-1.2
						c-2.2,0.1-4.4,1-6.1,2.9c0,0,0,0,0,0c-1.3,1.4-2.4,3.3-3.1,5.9c0,0-2.1-0.2-3.9,1.6C25.5,16.7,25.1,17.2,24.7,18z"/>
				</g>
				<g class="st7">
					<path class="st8" d="M39.1,5.7c21.3,5.8,12,23,12,23l0,0c0.6-0.8,1.1-1.7,1.6-2.6c3.6-7.8,0.7-15.5-7.7-19.2
						C43.1,6.1,41,5.6,39.1,5.7z"/>
				</g>
				<g>
					<path class="st1" d="M24.7,18c-1.8,3.7,1.9,9.9,8.7,13.7c3.2,1.8,6.9,2.4,10.3,1.7c0,0,0,0,0,0c4.7-2.7,3.3-5.9,2.3-7.2
						c-0.3-0.4-0.1-0.9,0.3-1.1c1.9-1,6.2-4,4.4-8.6c-1.7-4.3-5.9-4.3-8.1-4.1c-0.7,0.1-1.4-0.4-1.5-1.1c-1.5-7.4-7.3-3.9-8.1-2.6
						c0,0,0,0,0,0c-1.3,1.4-2.4,3.3-3.1,5.9C29.8,14.6,26.5,14.3,24.7,18z"/>
				</g>
				<g class="st9">
					<path class="st3" d="M24.7,18c-1.8,3.7,1.9,9.9,8.7,13.7c3.2,1.8,6.9,2.4,10.3,1.7c0,0,0,0,0,0c1.2-0.2,2.3-0.6,3.4-1.2
						c-0.3,0.1-8.1,2.4-16.3-4.2c-7.9-6.4-4.8-11.8-4.8-11.8C25.5,16.7,25.1,17.2,24.7,18z"/>
				</g>
				<g>
					<path class="st3" d="M24.3,17.8c1.6-3.3,4.2-3.7,5.2-3.7c0.7-2.4,1.8-4.3,3.1-5.8l0,0c0,0,0,0,0,0c1.6-1.8,3.7-2.8,6.1-3
						c2-0.2,4.3,0.2,6.5,1.2c4.3,1.9,7.3,4.8,8.7,8.5c1.3,3.5,1.1,7.4-0.8,11.3c-1.9,4-5.2,6.7-9.3,7.5c0,0,0,0-0.1,0
						c-3.5,0.7-7.2,0.1-10.6-1.8c-2.7-1.5-4.9-3.3-6.5-5.3C24.1,23.7,23.1,20.3,24.3,17.8z M43.6,32.9c3.8-0.8,6.9-3.3,8.7-7
						c1.7-3.6,2-7.3,0.7-10.6c-1.3-3.5-4.1-6.2-8.2-8C42.6,6.4,37.2,4.7,33.3,9c0,0,0,0,0,0c-1.3,1.4-2.3,3.3-3,5.7
						c-0.1,0.2-0.3,0.4-0.5,0.3c0,0-3-0.3-4.7,3.2c0,0,0,0,0,0c-0.8,1.7-0.4,4,1.1,6.4c1.6,2.6,4.2,4.9,7.4,6.7
						C36.8,33,40.3,33.6,43.6,32.9C43.5,33,43.6,33,43.6,32.9z"/>
				</g>
				<g>
					<g>
						<path class="st8" d="M42.1,26.1c0.5,0.1,0.8,0.7,0.5,1.1c-0.8,1.6-3.8,3.9-10.4-1c-5.3-4-4.7-7.5-3.5-8.8
							c0.4-0.4,1-0.4,1.3,0.1C31.2,19.6,35,24.7,42.1,26.1z"/>
						<path class="st3" d="M27.9,20.2c-0.2-1.5,0.5-2.5,0.8-2.8c0.2-0.2,0.5-0.3,0.7-0.3c0.3,0,0.5,0.2,0.6,0.4
							c1.3,2.1,5.1,7.2,12.1,8.5l0,0c0.3,0,0.5,0.2,0.6,0.4c0.1,0.2,0.1,0.5,0,0.8c-0.2,0.5-1,1.5-2.5,1.9c-1.4,0.3-4,0.1-7.9-2.9
							c-1.1-0.9-2-1.7-2.6-2.5C28.4,22.4,28,21.1,27.9,20.2z M42.1,26.1L42.1,26.1c-7.1-1.3-10.8-6.4-12.1-8.6
							c-0.1-0.2-0.3-0.3-0.5-0.3c-0.2,0-0.5,0.1-0.6,0.3c-0.3,0.3-0.9,1.2-0.8,2.7c0.1,1.4,1,3.5,4.3,6c3.9,2.9,6.4,3.2,7.8,2.8
							c1.5-0.3,2.2-1.4,2.5-1.8c0.1-0.2,0.1-0.5,0-0.7c0-0.1-0.1-0.1-0.1-0.1C42.4,26.3,42.3,26.2,42.1,26.1z"/>
					</g>
					<g>
						<path class="st3" d="M27.5,20.2c-0.1-1.2,0.2-2.3,0.9-3.1c0.3-0.3,0.7-0.5,1.1-0.4c0.4,0,0.7,0.2,0.9,0.6
							c1.3,2.1,5,7,11.8,8.3c0,0,0,0,0,0c0.4,0.1,0.7,0.3,0.9,0.7c0.2,0.4,0.2,0.8,0,1.1c-0.3,0.5-1.1,1.7-2.8,2.1
							c-2.2,0.5-5-0.5-8.2-2.9c-1.2-0.9-2-1.7-2.7-2.5C28,22.6,27.6,21.2,27.5,20.2z M42,26.5L42,26.5c-7.2-1.4-11.1-6.6-12.4-8.7
							c-0.1-0.1-0.2-0.1-0.2-0.1c-0.1,0-0.2,0-0.3,0.1c-0.5,0.6-0.7,1.5-0.7,2.4c0.1,1.3,0.9,3.3,4.1,5.7c3.8,2.8,6.1,3.1,7.5,2.8
							c1.4-0.3,2-1.3,2.2-1.6c0.1-0.1,0.1-0.2,0-0.3c0,0,0,0,0-0.1C42.2,26.6,42.1,26.6,42,26.5z"/>
					</g>
					<g>
						<path class="st3" d="M33.8,22.4C33.8,22.4,33.9,22.4,33.8,22.4c0.2,0.1,0.4,0.1,0.5,0l1.7-2.3c0.1-0.1,0.1-0.3-0.1-0.4
							c-0.1-0.1-0.3-0.1-0.4,0.1l-1.7,2.3C33.7,22.2,33.7,22.3,33.8,22.4z"/>
					</g>
					<g>
						<path class="st3" d="M28,18.4c0.3,0.5,0.6,0.9,0.9,1.3c0.3,0.4,0.6,0.8,1,1.2c0.3,0.4,0.7,0.8,1,1.1c0.4,0.4,0.7,0.7,1.1,1
							c-0.4-0.4-0.7-0.7-1-1.1c-0.3-0.4-0.6-0.8-0.9-1.2c-0.3-0.4-0.6-0.8-0.8-1.3c-0.3-0.4-0.5-0.9-0.7-1.3l0,0
							C28.4,18,28.2,18,28.1,18C28,18.1,27.9,18.3,28,18.4C28,18.4,28,18.4,28,18.4z"/>
					</g>
					<g>
						<path class="st3" d="M42.1,27.7c-0.1,0-0.2,0-0.3,0c-0.1,0-0.2,0-0.3,0c-0.1,0-0.2,0-0.3,0c-0.1,0-0.2,0-0.3,0
							c-0.2,0-0.4,0-0.6-0.1c-0.1,0-0.2,0-0.3,0l-0.3-0.1c-0.8-0.2-1.5-0.4-2.3-0.7c-0.4-0.2-0.7-0.3-1.1-0.5
							c-0.2-0.1-0.4-0.2-0.5-0.3l-0.5-0.3l-0.3-0.1l-0.3-0.2l-0.5-0.3c-0.3-0.2-0.7-0.5-1-0.7c0.3,0.3,0.6,0.5,0.9,0.8l0.5,0.4
							l0.2,0.2l0.3,0.2l0.5,0.3c0.2,0.1,0.4,0.2,0.5,0.3c0.3,0.2,0.7,0.4,1.1,0.6c0.7,0.3,1.5,0.6,2.3,0.8L40,28
							c0.1,0,0.2,0,0.3,0.1c0.2,0,0.4,0.1,0.6,0.1c0.1,0,0.2,0,0.3,0c0.1,0,0.2,0,0.3,0c0.1,0,0.2,0,0.3,0c0.1,0,0.2,0,0.3,0
							c0.2,0,0.3-0.1,0.3-0.3C42.4,27.8,42.3,27.7,42.1,27.7C42.1,27.7,42.1,27.7,42.1,27.7L42.1,27.7z"/>
					</g>
					<g class="st9">
						<path class="st3" d="M34.6,18.8c0,0-0.3,1.4,0.5,2.1c0.8,0.7,2.2,0,2.2,0s0,0,0,0c0-0.3-0.1-0.9-1-0.9c-0.4,0-0.6-0.2-0.7-0.5
							C35.4,19.1,35.2,18.6,34.6,18.8z"/>
					</g>
					<g>
						<path class="st3" d="M34.4,19c0,0,0.1,0,0.1,0c0,0,0.1,0,0.1,0c0.1,0,0.1,0,0.2,0c0,0,0.1,0.1,0.1,0.1c0,0,0,0.1,0.1,0.1
							c0,0.1,0,0.1,0.1,0.2c0,0,0,0.1,0,0.1l0,0.1l0,0l0,0c0,0.1,0.1,0.3,0.2,0.4c0.1,0.1,0.2,0.2,0.3,0.3c0.1,0.1,0.3,0.1,0.4,0.1
							c0.1,0,0.1,0,0.2,0l0.1,0c0.1,0,0.3,0,0.4,0c0.1,0,0.2,0.1,0.2,0.2c0,0.1,0.1,0.1,0.1,0.2c0,0.1,0,0.2,0,0.2l0,0
							c0,0.1,0.1,0.1,0.2,0.1c0,0,0.1,0,0.1-0.1c0.1-0.1,0.1-0.2,0.1-0.3c0-0.1,0-0.2,0-0.3c0-0.1,0-0.2-0.1-0.4
							c-0.1-0.1-0.2-0.2-0.3-0.3c-0.2-0.2-0.5-0.2-0.7-0.2l-0.2,0c0,0-0.1,0-0.1,0c0,0-0.1,0-0.1,0c-0.1,0-0.1-0.1-0.1-0.2l0,0l0,0
							l0-0.1c0,0,0-0.1-0.1-0.1c0-0.1-0.1-0.2-0.2-0.3c-0.1-0.1-0.2-0.2-0.3-0.3c-0.1-0.1-0.3-0.1-0.4-0.1c-0.3,0-0.5,0.1-0.6,0.3
							c-0.1,0.1-0.1,0.1,0,0.2C34.3,18.9,34.3,19,34.4,19L34.4,19z"/>
					</g>
				</g>
				<g>
					<path class="st0" d="M49.2,29.2l-1.3,1.9c0,0,0,0,0.1,0c2,1.3,4.5,0.9,5.7-1c1.2-1.8,0.6-4.3-1.4-5.6L51,26.5L49.2,29.2z"/>
				</g>
				<g>
					<path class="st8" d="M49.2,29.2L49.2,29.2c0.9,0.6,1.9,0.4,2.4-0.4c0.5-0.8,0.2-1.8-0.6-2.3L49.2,29.2z"/>
				</g>
				<g>
					<path class="st3" d="M47.5,31.4C47.6,31.4,47.6,31.5,47.5,31.4c0.1,0.1,0.1,0.1,0.1,0.1l0,0c1.1,0.7,2.4,1,3.7,0.7
						c1.1-0.2,2.1-0.9,2.7-1.8c1.3-2,0.6-4.8-1.5-6.2c-0.2-0.1-0.5-0.1-0.6,0.1c-0.1,0.2-0.1,0.5,0.1,0.6c1.7,1.2,2.3,3.4,1.2,5
						c-0.5,0.7-1.2,1.2-2.1,1.4c-1,0.2-2.1,0-3-0.6l-0.1,0c-0.2-0.1-0.5-0.1-0.6,0.1C47.4,31,47.4,31.2,47.5,31.4z"/>
				</g>
				<g>
					<path class="st3" d="M48.8,29.3c0-0.1,0-0.2,0.1-0.3l1.9-2.7c0.1-0.2,0.3-0.2,0.5-0.1c1,0.7,1.3,1.9,0.7,2.8
						c-0.3,0.4-0.7,0.7-1.2,0.8c-0.6,0.1-1.2,0-1.7-0.3l0,0c0,0-0.1,0-0.1-0.1C48.8,29.4,48.8,29.3,48.8,29.3z M51.1,27l-1.4,2.1
						c0.3,0.1,0.5,0.1,0.8,0.1c0.3-0.1,0.6-0.3,0.8-0.5C51.6,28.1,51.5,27.5,51.1,27C51.1,27,51.1,27,51.1,27z"/>
				</g>
				<g>
					<g>
						
							<ellipse transform="matrix(0.7098 -0.7044 0.7044 0.7098 -2.3509 35.9635)" class="st3" cx="42.5" cy="20.8" rx="2.3" ry="1.6"/>
					</g>
					<g>
						<g>
							
								<ellipse transform="matrix(0.7098 -0.7044 0.7044 0.7098 -1.8637 35.833)" class="st8" cx="42.6" cy="20.2" rx="0.8" ry="0.5"/>
						</g>
					</g>
				</g>
				<g>
					<g>
						
							<ellipse transform="matrix(0.5796 -0.8149 0.8149 0.5796 2.4683 34.0632)" class="st3" cx="34.2" cy="14.6" rx="2.3" ry="1.6"/>
					</g>
					<g>
						
							<ellipse transform="matrix(0.5796 -0.8149 0.8149 0.5796 2.8905 34.4996)" class="st8" cx="34.9" cy="14.4" rx="0.8" ry="0.5"/>
					</g>
				</g>
			</g>
			<g class="st9">
				<g>
					<path class="st12" d="M22.6,28.4c-1.6,1.3,0,5.3,4,8.3c3.1,2.3,7.5,2.6,9.1,2.7c-0.2,0-5.3-0.6-9.5-5.2c-5.1-5.5-2-6.1-1.9-6.1
						C23.7,27.9,23.1,28,22.6,28.4z"/>
				</g>
				<g>
					<path class="st3" d="M21.9,30c0-0.7,0.2-1.3,0.6-1.6c0.5-0.4,1.1-0.6,1.8-0.4l0.2,0l-0.2,0.1c0,0,0,0,0,0
						c-0.3,0.1-0.7,0.3-0.9,0.8c-0.2,0.7,0.1,2.2,2.9,5.2c4.2,4.5,9.2,5.1,9.4,5.2l0,0.1c-1.7,0-6.1-0.4-9.2-2.7
						c-1.1-0.8-2-1.7-2.7-2.6C22.6,32.7,21.9,31.2,21.9,30z M26.2,34.2C24,31.8,23,30,23.3,28.9c0.1-0.5,0.5-0.7,0.8-0.8
						c-0.6-0.1-1,0-1.5,0.4l0,0C22.2,28.8,22,29.3,22,30c0,1.6,1.5,4.3,4.6,6.6c2.6,1.9,6.2,2.5,8.2,2.6
						C33.2,38.9,29.4,37.7,26.2,34.2z"/>
				</g>
			</g>
			<g>
				<g class="st7">
					<path class="st8" d="M34.9,3.6c4.9-0.9,11.2,0.2,15.4,3.7c2.5,2.1,4.2,4.5,5.3,7.1c-0.6-0.9-1.5-1.5-2.6-1.2
						c-1.2,0.3-2,1.5-2,2.7c0,0.9,0.3,1.7,0.4,2.5c0.3,2-0.2,4-0.6,5.9c-0.2,0.7-0.3,1.5,0,2.2c0.3,0.9,1.3,1.5,2.3,1.5
						c1.1-0.1,2-1,2.6-1.9c0.2-0.3,0.4-0.7,0.6-1.1c-0.7,2.4-1.9,4.7-3.5,6.7c-2.1,2.6-5.3,4.3-8.3,5.3c3.8-0.7,7.3-2.7,9.9-5.9
						c6-7.3,4.7-18.2-2.8-24.3C46.6,2.9,40.4,1.9,34.9,3.6z"/>
				</g>
				<defs>
					<filter id="Adobe_OpacityMaskFilter" filterUnits="userSpaceOnUse" x="23.3" y="2.4" width="34.8" height="34.5">
						<feFlood  style="flood-color:white;flood-opacity:1" result="back"/>
						<feBlend  in="SourceGraphic" in2="back" mode="normal"/>
					</filter>
				</defs>
				<mask maskUnits="userSpaceOnUse" x="23.3" y="2.4" width="34.8" height="34.5" id="SVGID_1_">
					<g class="st13">
						<defs>
							
								<filter id="Adobe_OpacityMaskFilter_00000105401890962274473690000011447281704920952252_" filterUnits="userSpaceOnUse" x="23.3" y="2.4" width="34.8" height="34.5">
								<feFlood  style="flood-color:white;flood-opacity:1" result="back"/>
								<feBlend  in="SourceGraphic" in2="back" mode="normal"/>
							</filter>
						</defs>
						<mask maskUnits="userSpaceOnUse" x="23.3" y="2.4" width="34.8" height="34.5" id="SVGID_1_">
							<g style="filter:url(#Adobe_OpacityMaskFilter_00000105401890962274473690000011447281704920952252_);">
							</g>
						</mask>
						
							<linearGradient id="SVGID_00000108297947013695386990000004702493656077520565_" gradientUnits="userSpaceOnUse" x1="541.3906" y1="257.1646" x2="544.3904" y2="237.6101" gradientTransform="matrix(-0.6349 -0.7726 -0.7726 0.6349 569.0089 290.409)">
							<stop  offset="0" style="stop-color:#FFFFFF"/>
							<stop  offset="1" style="stop-color:#000000"/>
						</linearGradient>
						<path style="mask:url(#SVGID_1_);fill:url(#SVGID_00000108297947013695386990000004702493656077520565_);" d="M27.1,8.6
							c-6,7.3-4.7,18.2,2.8,24.3s18.5,5.1,24.4-2.2S59,12.5,51.5,6.4S33,1.3,27.1,8.6z"/>
					</g>
				</mask>
				
					<linearGradient id="SVGID_00000124844215122348947440000013914880223813663642_" gradientUnits="userSpaceOnUse" x1="541.3906" y1="257.1646" x2="544.3904" y2="237.6101" gradientTransform="matrix(-0.6349 -0.7726 -0.7726 0.6349 569.0089 290.409)">
					<stop  offset="0" style="stop-color:#FFFFFF"/>
					<stop  offset="1" style="stop-color:#FFFFFF"/>
				</linearGradient>
				<path style="opacity:0.6;fill:url(#SVGID_00000124844215122348947440000013914880223813663642_);" d="M27.1,8.6
					c-6,7.3-4.7,18.2,2.8,24.3s18.5,5.1,24.4-2.2S59,12.5,51.5,6.4S33,1.3,27.1,8.6z"/>
				<g>
					<path class="st3" d="M22.9,21.1c-0.5-4.6,0.9-9.2,3.8-12.7l0,0C32.8,0.8,44-0.2,51.8,6.1c3.8,3.1,6.2,7.5,6.7,12.3
						c0.5,4.6-0.9,9.2-3.8,12.7c-6.1,7.5-17.4,8.5-25.1,2.2c-1-0.8-1.9-1.7-2.7-2.6C24.6,27.9,23.2,24.6,22.9,21.1z M51.1,6.9
						c-7.3-5.9-18-5-23.8,2.1c-2.7,3.4-4,7.6-3.6,12c0.5,4.6,2.7,8.7,6.3,11.6c7.3,5.9,18,5,23.8-2.1c2.7-3.4,4-7.6,3.6-12
						c-0.3-3.4-1.7-6.5-3.8-9.1C52.9,8.5,52.1,7.6,51.1,6.9z M27,8.6L27,8.6L27,8.6z"/>
				</g>
				<g class="st7">
					<ellipse transform="matrix(0.7726 -0.6349 0.6349 0.7726 4.7112 34.1332)" class="st8" cx="50" cy="10.5" rx="1.4" ry="2.1"/>
				</g>
			</g>
		</g>
	</g>
</g>
</svg>
